Giphurs-Black.ufo
<glyph name="percent" format="2">
  <advance width="2144"/>
  <unicode hex="0025"/>
  <outline>
    <contour>
      <point x="399" y="1116" type="curve" smooth="yes"/>
      <point x="399" y="1066"/>
      <point x="434" y="1032"/>
      <point x="484" y="1032" type="curve" smooth="yes"/>
      <point x="534" y="1032"/>
      <point x="568" y="1066"/>
      <point x="568" y="1116" type="curve" smooth="yes"/>
      <point x="568" y="1166"/>
      <point x="534" y="1200"/>
      <point x="484" y="1200" type="curve" smooth="yes"/>
      <point x="434" y="1200"/>
      <point x="399" y="1166"/>
    </contour>
    <contour>
      <point x="50" y="1116" type="curve" smooth="yes"/>
      <point x="50" y="1341"/>
      <point x="259" y="1520"/>
      <point x="484" y="1520" type="curve" smooth="yes"/>
      <point x="709" y="1520"/>
      <point x="918" y="1341"/>
      <point x="918" y="1116" type="curve" smooth="yes"/>
      <point x="918" y="891"/>
      <point x="709" y="712"/>
      <point x="484" y="712" type="curve" smooth="yes"/>
      <point x="259" y="712"/>
      <point x="50" y="891"/>
    </contour>
    <contour>
      <point x="1575" y="364" type="curve" smooth="yes"/>
      <point x="1575" y="314"/>
      <point x="1610" y="280"/>
      <point x="1660" y="280" type="curve" smooth="yes"/>
      <point x="1710" y="280"/>
      <point x="1744" y="314"/>
      <point x="1744" y="364" type="curve" smooth="yes"/>
      <point x="1744" y="414"/>
      <point x="1710" y="448"/>
      <point x="1660" y="448" type="curve" smooth="yes"/>
      <point x="1610" y="448"/>
      <point x="1575" y="414"/>
    </contour>
    <contour>
      <point x="1226" y="364" type="curve" smooth="yes"/>
      <point x="1226" y="589"/>
      <point x="1435" y="768"/>
      <point x="1660" y="768" type="curve" smooth="yes"/>
      <point x="1885" y="768"/>
      <point x="2094" y="589"/>
      <point x="2094" y="364" type="curve" smooth="yes"/>
      <point x="2094" y="139"/>
      <point x="1885" y="-40"/>
      <point x="1660" y="-40" type="curve" smooth="yes"/>
      <point x="1435" y="-40"/>
      <point x="1226" y="139"/>
    </contour>
    <contour>
      <point x="1602" y="1302" type="line"/>
      <point x="850" y="0" type="line"/>
      <point x="542" y="178" type="line"/>
      <point x="1294" y="1480" type="line"/>
    </contour>
  </outline>
</glyph>
<glyph name="quotesingle" format="2">
  <advance width="508"/>
  <unicode hex="0027"/>
  <outline>
    <contour>
      <point x="94" y="968" type="line"/>
      <point x="70" y="1480" type="line"/>
      <point x="438" y="1480" type="line"/>
      <point x="414" y="968" type="line"/>
    </contour>
  </outline>
</glyph>
<glyph name="parenleft" format="2">
  <advance width="877"/>
  <unicode hex="0028"/>
  <outline>
    <contour>
      <point x="50" y="658" type="curve" smooth="yes"/>
      <point x="50" y="1258"/>
      <point x="504" y="1583"/>
      <point x="684" y="1658" type="curve"/>
      <point x="852" y="1369" type="line"/>
      <point x="716" y="1318"/>
      <point x="410" y="1078"/>
      <point x="410" y="658" type="curve" smooth="yes"/>
      <point x="410" y="240"/>
      <point x="716" y="0"/>
      <point x="852" y="-51" type="curve"/>
      <point x="684" y="-340" type="line"/>
      <point x="504" y="-265"/>
      <point x="50" y="60"/>
    </contour>
  </outline>
</glyph>
<glyph name="hyphen" format="2">
  <advance width="1038"/>
  <unicode hex="002D"/>
  <outline>
    <contour>
      <point x="70" y="500" type="line"/>
      <point x="70" y="820" type="line"/>
      <point x="968" y="820" type="line"/>
      <point x="968" y="500" type="line"/>
    </contour>
  </outline>
</glyph>
<glyph name="I" format="2">
  <advance width="924"/>
  <unicode hex="0049"/>
  <anchor x="462" y="1380" name="top_center"/>
  <anchor x="462" y="0" name="bottom_center"/>
  <anchor x="652" y="0" name="bottom_right"/>
  <anchor x="70" y="1480" name="top_left"/>
  <outline>
    <contour>
      <point x="70" y="1480" type="line"/>
      <point x="854" y="1480" type="line"/>
      <point x="854" y="1144" type="line"/>
      <point x="652" y="1144" type="line"/>
      <point x="652" y="336" type="line"/>
      <point x="854" y="336" type="line"/>
      <point x="854" y="0" type="line"/>
      <point x="70" y="0" type="line"/>
      <point x="70" y="336" type="line"/>
      <point x="272" y="336" type="line"/>
      <point x="272" y="1144" type="line"/>
      <point x="70" y="1144" type="line"/>
    </contour>
  </outline>
</glyph>
<glyph name="N" format="2">
  <advance width="1482"/>
  <unicode hex="004E"/>
  <anchor x="742" y="0" name="bottom_center"/>
  <anchor x="742" y="1380" name="top_center"/>
  <outline>
    <contour>
      <point x="434" y="1480" type="line"/>
      <point x="1032" y="652" type="line"/>
      <point x="1032" y="1480" type="line"/>
      <point x="1412" y="1480" type="line"/>
      <point x="1412" y="0" type="line"/>
      <point x="1048" y="0" type="line"/>
      <point x="450" y="828" type="line"/>
      <point x="450" y="0" type="line"/>
      <point x="70" y="0" type="line"/>
      <point x="70" y="1480" type="line"/>
    </contour>
  </outline>
</glyph>
<glyph name="V" format="2">
  <advance width="1530"/>
  <unicode hex="0056"/>
  <anchor x="765" y="0" name="bottom_center"/>
  <anchor x="765" y="1380" name="top_center"/>
  <outline>
    <contour>
      <point x="773" y="400" type="line"/>
      <point x="1103" y="1480" type="line"/>
      <point x="1495" y="1480" type="line"/>
      <point x="1003" y="0" type="line"/>
      <point x="527" y="0" type="line"/>
      <point x="35" y="1480" type="line"/>
      <point x="427" y="1480" type="line"/>
    </contour>
  </outline>
</glyph>
<glyph name="X" format="2">
  <advance width="1572"/>
  <unicode hex="0058"/>
  <anchor x="786" y="0" name="bottom_center"/>
  <anchor x="786" y="1380" name="top_center"/>
  <outline>
    <contour>
      <point x="784" y="487" type="line"/>
      <point x="463" y="0" type="line"/>
      <point x="35" y="0" type="line"/>
      <point x="562" y="740" type="line"/>
      <point x="35" y="1480" type="line"/>
      <point x="463" y="1480" type="line"/>
      <point x="786" y="988" type="line"/>
      <point x="1109" y="1480" type="line"/>
      <point x="1537" y="1480" type="line"/>
      <point x="1010" y="740" type="line"/>
      <point x="1537" y="0" type="line"/>
      <point x="1109" y="0" type="line"/>
    </contour>
  </outline>
</glyph>
<glyph name="k" format="2">
  <advance width="1163"/>
  <unicode hex="006B"/>
  <anchor x="584" y="0" name="bottom_center"/>
  <anchor x="250" y="1380" name="top_center"/>
  <outline>
    <contour>
      <point x="285" y="643" type="line"/>
      <point x="682" y="660" type="line"/>
      <point x="1158" y="0" type="line"/>
      <point x="738" y="0" type="line"/>
    </contour>
    <contour>
      <point x="430" y="344" type="line"/>
      <point x="430" y="0" type="line"/>
      <point x="70" y="0" type="line"/>
      <point x="70" y="1480" type="line"/>
      <point x="430" y="1480" type="line"/>
      <point x="430" y="808" type="line"/>
      <point x="662" y="1040" type="line"/>
      <point x="734" y="1040"/>
      <point x="1054" y="1040"/>
      <point x="1126" y="1040" type="curve"/>
    </contour>
  </outline>
</glyph>
<glyph name="r" format="2">
  <advance width="887"/>
  <unicode hex="0072"/>
  <anchor x="250" y="0" name="bottom_center"/>
  <anchor x="490" y="1040" name="top_center"/>
  <outline>
    <contour>
      <point x="775" y="691" type="line"/>
      <point x="737" y="730"/>
      <point x="679" y="750"/>
      <point x="596" y="750" type="curve" smooth="yes"/>
      <point x="466" y="750"/>
      <point x="430" y="682"/>
      <point x="430" y="572" type="curve" smooth="yes"/>
      <point x="430" y="0" type="line"/>
      <point x="70" y="0" type="line"/>
      <point x="70" y="1040" type="line"/>
      <point x="418" y="1040" type="line"/>
      <point x="418" y="920" type="line"/>
      <point x="453" y="981"/>
      <point x="542" y="1070"/>
      <point x="692" y="1070" type="curve" smooth="yes"/>
      <point x="763" y="1070"/>
      <point x="826" y="1058"/>
      <point x="882" y="1034" type="curve"/>
    </contour>
  </outline>
</glyph>
<glyph name="bar" format="2">
  <advance width="500"/>
  <unicode hex="007C"/>
  <outline>
    <contour>
      <point x="430" y="1660" type="line"/>
      <point x="430" y="-440" type="line"/>
      <point x="70" y="-440" type="line"/>
      <point x="70" y="1660" type="line"/>
    </contour>
  </outline>
</glyph>
<glyph name="cent" format="2">
  <advance width="1137"/>
  <unicode hex="00A2"/>
  <outline>
    <contour>
      <point x="937" y="1220" type="line"/>
      <point x="557" y="-180" type="line"/>
      <point x="261" y="-180" type="line"/>
      <point x="641" y="1220" type="line"/>
    </contour>
    <contour>
      <point x="410" y="520" type="curve" smooth="yes"/>
      <point x="410" y="383"/>
      <point x="463" y="290"/>
      <point x="600" y="290" type="curve" smooth="yes"/>
      <point x="704" y="290"/>
      <point x="759" y="344"/>
      <point x="780" y="430" type="curve"/>
      <point x="1087" y="252" type="line"/>
      <point x="999" y="79"/>
      <point x="821" y="-30"/>
      <point x="600" y="-30" type="curve" smooth="yes"/>
      <point x="280" y="-30"/>
      <point x="50" y="200"/>
      <point x="50" y="520" type="curve" smooth="yes"/>
      <point x="50" y="840"/>
      <point x="279" y="1070"/>
      <point x="599" y="1070" type="curve" smooth="yes"/>
      <point x="820" y="1070"/>
      <point x="999" y="961"/>
      <point x="1087" y="788" type="curve"/>
      <point x="780" y="610" type="line"/>
      <point x="759" y="696"/>
      <point x="704" y="750"/>
      <point x="600" y="750" type="curve" smooth="yes"/>
      <point x="463" y="750"/>
      <point x="410" y="657"/>
    </contour>
  </outline>
</glyph>
<glyph name="logicalnot" format="2">
  <advance width="1278"/>
  <unicode hex="00AC"/>
  <outline>
    <contour>
      <point x="848" y="647" type="line"/>
      <point x="848" y="260" type="line"/>
      <point x="1208" y="260" type="line"/>
      <point x="1208" y="820" type="line"/>
    </contour>
    <contour>
      <point x="70" y="500" type="line"/>
      <point x="1048" y="500" type="line"/>
      <point x="1208" y="820" type="line"/>
      <point x="70" y="820" type="line"/>
    </contour>
  </outline>
</glyph>
<glyph name="acute" format="2">
  <advance width="710"/>
  <unicode hex="00B4"/>
  <anchor x="730" y="1480" name="_top_left"/>
  <anchor x="518" y="1224" name="_top_left_O2"/>
  <anchor x="242" y="1140" name="_dieresis_center"/>
  <anchor x="242" y="1040" name="_top_center"/>
  <outline>
    <contour>
      <point x="420" y="1224" type="line"/>
      <point x="64" y="1224" type="line"/>
      <point x="242" y="1480" type="line"/>
      <point x="646" y="1480" type="line"/>
    </contour>
  </outline>
</glyph>
<glyph name="uni00B9" format="2">
  <advance width="956"/>
  <unicode hex="00B9"/>
  <outline>
    <contour>
      <point x="388" y="1266" type="line"/>
      <point x="168" y="1266" type="line"/>
      <point x="168" y="1506" type="line"/>
      <point x="224" y="1506" type="line" smooth="yes"/>
      <point x="326" y="1506"/>
      <point x="405" y="1576"/>
      <point x="405" y="1652" type="curve" smooth="yes"/>
      <point x="405" y="1668" type="line"/>
      <point x="658" y="1668" type="line"/>
      <point x="658" y="1413" type="line"/>
      <point x="658" y="810" type="line"/>
      <point x="388" y="810" type="line"/>
    </contour>
  </outline>
</glyph>
<glyph name="onehalf" format="2">
  <advance width="2228"/>
  <unicode hex="00BD"/>
  <outline>
    <contour>
      <point x="1392" y="0" type="line"/>
      <point x="1392" y="127"/>
      <point x="1405" y="309"/>
      <point x="1768" y="478" type="curve" smooth="yes"/>
      <point x="1822" y="503"/>
      <point x="1876" y="523"/>
      <point x="1876" y="566" type="curve" smooth="yes"/>
      <point x="1876" y="615"/>
      <point x="1823" y="636"/>
      <point x="1768" y="636" type="curve" smooth="yes"/>
      <point x="1701" y="636"/>
      <point x="1672" y="597"/>
      <point x="1672" y="550" type="curve" smooth="yes"/>
      <point x="1672" y="509"/>
      <point x="1681" y="490"/>
      <point x="1681" y="490" type="curve"/>
      <point x="1402" y="550" type="line"/>
      <point x="1402" y="751"/>
      <point x="1559" y="876"/>
      <point x="1768" y="876" type="curve" smooth="yes"/>
      <point x="1977" y="876"/>
      <point x="2144" y="769"/>
      <point x="2144" y="591" type="curve" smooth="yes"/>
      <point x="2144" y="413"/>
      <point x="2047" y="366"/>
      <point x="1886" y="291" type="curve" smooth="yes"/>
      <point x="1841" y="270"/>
      <point x="1809" y="255"/>
      <point x="1796" y="240" type="curve"/>
      <point x="2144" y="240" type="line"/>
      <point x="2144" y="0" type="line"/>
      <point x="1629" y="0" type="line"/>
      <point x="1460" y="0" type="line"/>
    </contour>
    <contour>
      <point x="383" y="1078" type="line"/>
      <point x="163" y="1078" type="line"/>
      <point x="163" y="1318" type="line"/>
      <point x="219" y="1318" type="line" smooth="yes"/>
      <point x="321" y="1318"/>
      <point x="400" y="1388"/>
      <point x="400" y="1464" type="curve" smooth="yes"/>
      <point x="400" y="1480" type="line"/>
      <point x="653" y="1480" type="line"/>
      <point x="653" y="1225" type="line"/>
      <point x="653" y="622" type="line"/>
      <point x="383" y="622" type="line"/>
    </contour>
    <contour>
      <point x="868" y="67" type="line"/>
      <point x="652" y="191" type="line"/>
      <point x="1360" y="1413" type="line"/>
      <point x="1576" y="1289" type="line"/>
    </contour>
  </outline>
</glyph>
<glyph name="Eth" format="2">
  <advance width="1626"/>
  <unicode hex="00D0"/>
  <outline>
    <contour>
      <point x="860" y="620" type="line"/>
      <point x="860" y="860" type="line"/>
      <point x="0" y="860" type="line"/>
      <point x="0" y="814"/>
      <point x="0" y="666"/>
      <point x="0" y="620" type="curve"/>
    </contour>
    <contour>
      <point x="590" y="1144" type="line"/>
      <point x="810" y="1144" type="line"/>
      <point x="1004" y="1144"/>
      <point x="1196" y="1013"/>
      <point x="1196" y="740" type="curve" smooth="yes"/>
      <point x="1196" y="467"/>
      <point x="1014" y="336"/>
      <point x="810" y="336" type="curve"/>
      <point x="590" y="336" type="line"/>
    </contour>
    <contour>
      <point x="810" y="0" type="line"/>
      <point x="1266" y="0"/>
      <point x="1576" y="290"/>
      <point x="1576" y="740" type="curve" smooth="yes"/>
      <point x="1576" y="1190"/>
      <point x="1266" y="1480"/>
      <point x="810" y="1480" type="curve"/>
      <point x="210" y="1480" type="line"/>
      <point x="210" y="0" type="line"/>
      <point x="438" y="0" type="line"/>
    </contour>
  </outline>
</glyph>
<glyph name="eth" format="2">
  <advance width="1296"/>
  <unicode hex="00F0"/>
  <outline>
    <contour>
      <point x="842" y="1257" type="line"/>
      <point x="993" y="1330" type="line"/>
      <point x="923" y="1465" type="line"/>
      <point x="753" y="1385" type="line"/>
      <point x="347" y="1190" type="line"/>
      <point x="416" y="1052" type="line"/>
    </contour>
    <contour>
      <point x="347" y="1260" type="line"/>
      <point x="465" y="1193"/>
      <point x="906" y="1080"/>
      <point x="906" y="520" type="curve" smooth="yes"/>
      <point x="1246" y="520" type="line" smooth="yes"/>
      <point x="1246" y="1000"/>
      <point x="946" y="1352"/>
      <point x="492" y="1540" type="curve"/>
    </contour>
    <contour>
      <point x="410" y="520" type="curve" smooth="yes"/>
      <point x="410" y="660"/>
      <point x="498" y="750"/>
      <point x="648" y="750" type="curve" smooth="yes"/>
      <point x="798" y="750"/>
      <point x="886" y="660"/>
      <point x="886" y="520" type="curve" smooth="yes"/>
      <point x="886" y="380"/>
      <point x="798" y="290"/>
      <point x="648" y="290" type="curve" smooth="yes"/>
      <point x="498" y="290"/>
      <point x="410" y="380"/>
    </contour>
    <contour>
      <point x="50" y="520" type="curve" smooth="yes"/>
      <point x="50" y="208"/>
      <point x="291" y="-30"/>
      <point x="648" y="-30" type="curve" smooth="yes"/>
      <point x="1005" y="-30"/>
      <point x="1246" y="208"/>
      <point x="1246" y="520" type="curve" smooth="yes"/>
      <point x="1246" y="520"/>
      <point x="1109" y="520"/>
      <point x="1086" y="520" type="curve"/>
      <point x="1086" y="832"/>
      <point x="878" y="1070"/>
      <point x="648" y="1070" type="curve" smooth="yes"/>
      <point x="291" y="1070"/>
      <point x="50" y="832"/>
    </contour>
  </outline>
</glyph>
<glyph name="dcaron" format="2">
  <advance width="1575"/>
  <unicode hex="010F"/>
  <outline>
    <contour>
      <point x="1296" y="1390" type="curve" smooth="yes"/>
      <point x="1296" y="1457"/>
      <point x="1349" y="1510"/>
      <point x="1416" y="1510" type="curve" smooth="yes"/>
      <point x="1483" y="1510"/>
      <point x="1536" y="1457"/>
      <point x="1536" y="1390" type="curve" smooth="yes"/>
      <point x="1536" y="1323"/>
      <point x="1483" y="1270"/>
      <point x="1416" y="1270" type="curve" smooth="yes"/>
      <point x="1349" y="1270"/>
      <point x="1296" y="1323"/>
    </contour>
    <contour>
      <point x="1305" y="1193" type="line"/>
      <point x="1382" y="1205"/>
      <point x="1441" y="1254"/>
      <point x="1441" y="1307" type="curve" smooth="yes"/>
      <point x="1441" y="1333"/>
      <point x="1417" y="1390"/>
      <point x="1417" y="1390" type="curve"/>
      <point x="1416" y="1510" type="line"/>
      <point x="1484" y="1510"/>
      <point x="1575" y="1467"/>
      <point x="1575" y="1307" type="curve" smooth="yes"/>
      <point x="1575" y="1180"/>
      <point x="1436" y="1082"/>
      <point x="1341" y="1065" type="curve"/>
    </contour>
    <contour>
      <point x="820" y="510" type="curve" smooth="yes"/>
      <point x="820" y="640"/>
      <point x="757" y="750"/>
      <point x="620" y="750" type="curve" smooth="yes"/>
      <point x="483" y="750"/>
      <point x="410" y="650"/>
      <point x="410" y="520" type="curve" smooth="yes"/>
      <point x="410" y="390"/>
      <point x="483" y="290"/>
      <point x="620" y="290" type="curve" smooth="yes"/>
      <point x="751" y="290"/>
      <point x="820" y="380"/>
    </contour>
    <contour>
      <point x="1180" y="168" type="line"/>
      <point x="1180" y="66"/>
      <point x="1204" y="0"/>
      <point x="1204" y="0" type="curve"/>
      <point x="856" y="0" type="line"/>
      <point x="856" y="0"/>
      <point x="832" y="60"/>
      <point x="832" y="120" type="curve"/>
      <point x="832" y="80"/>
      <point x="705" y="-30"/>
      <point x="555" y="-30" type="curve" smooth="yes"/>
      <point x="235" y="-30"/>
      <point x="50" y="200"/>
      <point x="50" y="520" type="curve" smooth="yes"/>
      <point x="50" y="840"/>
      <point x="235" y="1070"/>
      <point x="555" y="1070" type="curve" smooth="yes"/>
      <point x="705" y="1070"/>
      <point x="810" y="959"/>
      <point x="820" y="920" type="curve"/>
      <point x="820" y="1480" type="line"/>
      <point x="1180" y="1480" type="line"/>
    </contour>
  </outline>
</glyph>
<glyph name="lslash" format="2">
  <advance width="835"/>
  <unicode hex="0142"/>
  <outline>
    <contour>
      <point x="815" y="1199" type="line"/>
      <point x="815" y="910" type="line"/>
      <point x="35" y="461" type="line"/>
      <point x="35" y="750" type="line"/>
    </contour>
    <contour>
      <point x="735" y="306" type="curve"/>
      <point x="835" y="14" type="line"/>
      <point x="809" y="1"/>
      <point x="761" y="-30"/>
      <point x="673" y="-30" type="curve" smooth="yes"/>
      <point x="489" y="-30"/>
      <point x="245" y="62"/>
      <point x="245" y="362" type="curve" smooth="yes"/>
      <point x="245" y="440" type="line"/>
      <point x="245" y="578" type="line"/>
      <point x="245" y="1480" type="line"/>
      <point x="605" y="1480" type="line"/>
      <point x="605" y="578" type="line"/>
      <point x="605" y="440" type="line"/>
      <point x="605" y="362" type="line" smooth="yes"/>
      <point x="605" y="312"/>
      <point x="621" y="290"/>
      <point x="673" y="290" type="curve" smooth="yes"/>
      <point x="692" y="290"/>
      <point x="722" y="297"/>
    </contour>
  </outline>
</glyph>
<glyph name="oe" format="2">
  <advance width="1940"/>
  <unicode hex="0153"/>
  <outline>
    <contour>
      <point x="916" y="660" type="line"/>
      <point x="1822" y="660" type="line"/>
      <point x="1520" y="400" type="line"/>
      <point x="916" y="400" type="line"/>
    </contour>
    <contour>
      <point x="1529" y="368" type="curve"/>
      <point x="1836" y="242" type="line"/>
      <point x="1744" y="65"/>
      <point x="1562" y="-30"/>
      <point x="1340" y="-30" type="curve" smooth="yes"/>
      <point x="1019" y="-30"/>
      <point x="790" y="200"/>
      <point x="790" y="520" type="curve" smooth="yes"/>
      <point x="790" y="840"/>
      <point x="1020" y="1070"/>
      <point x="1340" y="1070" type="curve" smooth="yes"/>
      <point x="1660" y="1070"/>
      <point x="1890" y="840"/>
      <point x="1890" y="520" type="curve" smooth="yes"/>
      <point x="1890" y="479"/>
      <point x="1885" y="438"/>
      <point x="1878" y="400" type="curve"/>
      <point x="1520" y="400" type="line"/>
      <point x="1534" y="435"/>
      <point x="1560" y="476"/>
      <point x="1560" y="520" type="curve" smooth="yes"/>
      <point x="1560" y="657"/>
      <point x="1477" y="750"/>
      <point x="1340" y="750" type="curve" smooth="yes"/>
      <point x="1203" y="750"/>
      <point x="1110" y="657"/>
      <point x="1110" y="520" type="curve" smooth="yes"/>
      <point x="1110" y="390"/>
      <point x="1202" y="290"/>
      <point x="1340" y="290" type="curve" smooth="yes"/>
      <point x="1454" y="290"/>
      <point x="1511" y="329"/>
    </contour>
    <contour>
      <point x="410" y="520" type="curve" smooth="yes"/>
      <point x="410" y="390"/>
      <point x="463" y="290"/>
      <point x="600" y="290" type="curve" smooth="yes"/>
      <point x="737" y="290"/>
      <point x="790" y="383"/>
      <point x="790" y="520" type="curve" smooth="yes"/>
      <point x="790" y="657"/>
      <point x="737" y="750"/>
      <point x="600" y="750" type="curve" smooth="yes"/>
      <point x="463" y="750"/>
      <point x="410" y="657"/>
    </contour>
    <contour>
      <point x="50" y="520" type="curve" smooth="yes"/>
      <point x="50" y="840"/>
      <point x="280" y="1070"/>
      <point x="600" y="1070" type="curve" smooth="yes"/>
      <point x="920" y="1070"/>
      <point x="1150" y="840"/>
      <point x="1150" y="520" type="curve" smooth="yes"/>
      <point x="1150" y="200"/>
      <point x="920" y="-30"/>
      <point x="600" y="-30" type="curve" smooth="yes"/>
      <point x="280" y="-30"/>
      <point x="50" y="200"/>
    </contour>
  </outline>
</glyph>
<glyph name="uni0181" format="2">
  <advance width="1736"/>
  <unicode hex="0181"/>
  <outline>
    <contour>
      <point x="356" y="1040" type="curve"/>
      <point x="2" y="1040" type="line"/>
      <point x="1" y="1052"/>
      <point x="0" y="1064"/>
      <point x="0" y="1076" type="curve" smooth="yes"/>
      <point x="0" y="1326"/>
      <point x="184" y="1480"/>
      <point x="434" y="1480" type="curve" smooth="yes"/>
      <point x="446" y="1480"/>
      <point x="458" y="1480"/>
      <point x="470" y="1479" type="curve"/>
      <point x="470" y="1153" type="line"/>
      <point x="459" y="1158"/>
      <point x="447" y="1160"/>
      <point x="434" y="1160" type="curve" smooth="yes"/>
      <point x="384" y="1160"/>
      <point x="349" y="1126"/>
      <point x="349" y="1076" type="curve" smooth="yes"/>
      <point x="349" y="1063"/>
      <point x="350" y="1051"/>
    </contour>
    <contour>
      <point x="1115" y="1480" type="line"/>
      <point x="1439" y="1480"/>
      <point x="1609" y="1280"/>
      <point x="1609" y="1060" type="curve" smooth="yes"/>
      <point x="1609" y="840"/>
      <point x="1379" y="656"/>
      <point x="1115" y="656" type="curve"/>
      <point x="1115" y="976" type="line"/>
      <point x="1205" y="976"/>
      <point x="1229" y="1012"/>
      <point x="1229" y="1062" type="curve" smooth="yes"/>
      <point x="1229" y="1112"/>
      <point x="1205" y="1144"/>
      <point x="1115" y="1144" type="curve"/>
      <point x="814" y="1144" type="line"/>
      <point x="814" y="1480" type="line"/>
    </contour>
    <contour>
      <point x="814" y="336" type="line"/>
      <point x="1115" y="336" type="line"/>
      <point x="1235" y="336"/>
      <point x="1306" y="416"/>
      <point x="1306" y="496" type="curve" smooth="yes"/>
      <point x="1306" y="576"/>
      <point x="1235" y="656"/>
      <point x="1115" y="656" type="curve"/>
      <point x="814" y="656" type="line"/>
    </contour>
    <contour>
      <point x="434" y="0" type="line"/>
      <point x="434" y="1480" type="line"/>
      <point x="814" y="1480" type="line"/>
      <point x="814" y="976" type="line"/>
      <point x="1115" y="976" type="line"/>
      <point x="1481" y="976"/>
      <point x="1686" y="751"/>
      <point x="1686" y="496" type="curve" smooth="yes"/>
      <point x="1686" y="241"/>
      <point x="1481" y="0"/>
      <point x="1115" y="0" type="curve"/>
    </contour>
  </outline>
</glyph>
<glyph name="uni018A" format="2">
  <advance width="1850"/>
  <unicode hex="018A"/>
  <outline>
    <contour>
      <point x="356" y="1040" type="curve"/>
      <point x="2" y="1040" type="line"/>
      <point x="1" y="1052"/>
      <point x="0" y="1064"/>
      <point x="0" y="1076" type="curve" smooth="yes"/>
      <point x="0" y="1326"/>
      <point x="184" y="1480"/>
      <point x="434" y="1480" type="curve" smooth="yes"/>
      <point x="446" y="1480"/>
      <point x="458" y="1480"/>
      <point x="470" y="1479" type="curve"/>
      <point x="470" y="1153" type="line"/>
      <point x="459" y="1158"/>
      <point x="447" y="1160"/>
      <point x="434" y="1160" type="curve" smooth="yes"/>
      <point x="384" y="1160"/>
      <point x="349" y="1126"/>
      <point x="349" y="1076" type="curve" smooth="yes"/>
      <point x="349" y="1063"/>
      <point x="350" y="1051"/>
    </contour>
    <contour>
      <point x="814" y="1144" type="line"/>
      <point x="814" y="336" type="line"/>
      <point x="1034" y="336" type="line"/>
      <point x="1238" y="336"/>
      <point x="1420" y="467"/>
      <point x="1420" y="740" type="curve" smooth="yes"/>
      <point x="1420" y="1013"/>
      <point x="1228" y="1144"/>
      <point x="1034" y="1144" type="curve"/>
    </contour>
    <contour>
      <point x="1034" y="0" type="curve"/>
      <point x="662" y="0" type="line"/>
      <point x="434" y="0" type="line"/>
      <point x="434" y="1480" type="line"/>
      <point x="1034" y="1480" type="line"/>
      <point x="1490" y="1480"/>
      <point x="1800" y="1190"/>
      <point x="1800" y="740" type="curve" smooth="yes"/>
      <point x="1800" y="290"/>
      <point x="1490" y="0"/>
    </contour>
  </outline>
</glyph>
<glyph name="uni018D" format="2">
  <advance width="1200"/>
  <unicode hex="018D"/>
  <outline>
    <contour>
      <point x="1150" y="520" type="curve" smooth="yes"/>
      <point x="1150" y="200"/>
      <point x="920" y="70"/>
      <point x="600" y="70" type="curve" smooth="yes"/>
      <point x="600" y="290" type="line" smooth="yes"/>
      <point x="737" y="290"/>
      <point x="790" y="383"/>
      <point x="790" y="520" type="curve" smooth="yes"/>
      <point x="790" y="650"/>
      <point x="737" y="750"/>
      <point x="600" y="750" type="curve" smooth="yes"/>
      <point x="463" y="750"/>
      <point x="410" y="657"/>
      <point x="410" y="520" type="curve" smooth="yes"/>
      <point x="410" y="383"/>
      <point x="463" y="290"/>
      <point x="600" y="290" type="curve" smooth="yes"/>
      <point x="600" y="-30" type="line" smooth="yes"/>
      <point x="280" y="-30"/>
      <point x="50" y="200"/>
      <point x="50" y="520" type="curve" smooth="yes"/>
      <point x="50" y="840"/>
      <point x="280" y="1070"/>
      <point x="600" y="1070" type="curve" smooth="yes"/>
      <point x="920" y="1070"/>
      <point x="1150" y="840"/>
    </contour>
    <contour>
      <point x="600" y="-470" type="curve" smooth="yes"/>
      <point x="384" y="-470"/>
      <point x="240" y="-444"/>
      <point x="118" y="-393" type="curve"/>
      <point x="196" y="-79" type="line"/>
      <point x="323" y="-134"/>
      <point x="461" y="-150"/>
      <point x="600" y="-150" type="curve" smooth="yes"/>
      <point x="686" y="-150"/>
      <point x="722" y="-130"/>
      <point x="722" y="-90" type="curve" smooth="yes"/>
      <point x="722" y="-50"/>
      <point x="686" y="-30"/>
      <point x="600" y="-30" type="curve" smooth="yes"/>
      <point x="600" y="290" type="line" smooth="yes"/>
      <point x="936" y="290"/>
      <point x="1082" y="90"/>
      <point x="1082" y="-90" type="curve" smooth="yes"/>
      <point x="1082" y="-270"/>
      <point x="936" y="-470"/>
    </contour>
  </outline>
</glyph>
<glyph name="uni01A2" format="2">
  <advance width="2116"/>
  <unicode hex="01A2"/>
  <outline>
    <contour>
      <point x="1259" y="1368" type="curve" smooth="yes"/>
      <point x="1259" y="1052" type="line" smooth="yes"/>
      <point x="1565" y="1052"/>
      <point x="1744" y="1158"/>
      <point x="1824" y="1250" type="curve"/>
      <point x="1666" y="1510" type="line"/>
      <point x="1600" y="1458"/>
      <point x="1451" y="1368"/>
    </contour>
    <contour>
      <point x="1666" y="-440" type="line"/>
      <point x="2046" y="-440" type="line"/>
      <point x="2046" y="1510" type="line"/>
      <point x="1666" y="1510" type="line"/>
    </contour>
    <contour>
      <point x="1105" y="360" type="line"/>
      <point x="1485" y="360" type="line"/>
      <point x="1485" y="1120" type="line"/>
      <point x="1105" y="1120" type="line"/>
    </contour>
    <contour>
      <point x="1220" y="550" type="line"/>
      <point x="1169" y="402"/>
      <point x="991" y="306"/>
      <point x="810" y="306" type="curve" smooth="yes"/>
      <point x="560" y="306"/>
      <point x="430" y="490"/>
      <point x="430" y="740" type="curve" smooth="yes"/>
      <point x="430" y="990"/>
      <point x="560" y="1174"/>
      <point x="810" y="1174" type="curve" smooth="yes"/>
      <point x="991" y="1174"/>
      <point x="1169" y="1078"/>
      <point x="1220" y="930" type="curve"/>
      <point x="1485" y="1120" type="line"/>
      <point x="1365" y="1360"/>
      <point x="1125" y="1510"/>
      <point x="810" y="1510" type="curve" smooth="yes"/>
      <point x="350" y="1510"/>
      <point x="50" y="1190"/>
      <point x="50" y="740" type="curve" smooth="yes"/>
      <point x="50" y="290"/>
      <point x="350" y="-30"/>
      <point x="810" y="-30" type="curve" smooth="yes"/>
      <point x="1125" y="-30"/>
      <point x="1365" y="120"/>
      <point x="1485" y="360" type="curve"/>
    </contour>
  </outline>
</glyph>
<glyph name="uni01A7" format="2">
  <advance width="1327"/>
  <unicode hex="01A7"/>
  <anchor x="665" y="0" name="bottom_center"/>
  <anchor x="665" y="1380" name="top_center"/>
  <outline>
    <contour>
      <point x="665" y="1174" type="curve" smooth="yes"/>
      <point x="805" y="1174"/>
      <point x="869" y="1132"/>
      <point x="869" y="1052" type="curve" smooth="yes"/>
      <point x="869" y="992"/>
      <point x="771" y="973"/>
      <point x="665" y="945" type="curve" smooth="yes"/>
      <point x="298" y="847"/>
      <point x="50" y="725"/>
      <point x="50" y="445" type="curve" smooth="yes"/>
      <point x="50" y="165"/>
      <point x="255" y="-30"/>
      <point x="665" y="-30" type="curve" smooth="yes"/>
      <point x="970" y="-30"/>
      <point x="1234" y="91"/>
      <point x="1277" y="361" type="curve"/>
      <point x="904" y="461" type="line" smooth="yes"/>
      <point x="904" y="361"/>
      <point x="815" y="306"/>
      <point x="665" y="306" type="curve" smooth="yes"/>
      <point x="515" y="306"/>
      <point x="430" y="355"/>
      <point x="430" y="445" type="curve" smooth="yes"/>
      <point x="430" y="535"/>
      <point x="559" y="549"/>
      <point x="665" y="577" type="curve" smooth="yes"/>
      <point x="1013" y="670"/>
      <point x="1249" y="792"/>
      <point x="1249" y="1052" type="curve" smooth="yes"/>
      <point x="1249" y="1312"/>
      <point x="1035" y="1510"/>
      <point x="665" y="1510" type="curve" smooth="yes"/>
      <point x="360" y="1510"/>
      <point x="121" y="1394"/>
      <point x="78" y="1124" type="curve"/>
      <point x="451" y="1024" type="line" smooth="yes"/>
      <point x="451" y="1124"/>
      <point x="525" y="1174"/>
    </contour>
  </outline>
</glyph>
<glyph name="uni01A8" format="2">
  <advance width="1066"/>
  <unicode hex="01A8"/>
  <anchor x="537" y="1040" name="top_center"/>
  <anchor x="537" y="0" name="bottom_center"/>
  <anchor x="316" y="0" name="bottom_right"/>
  <outline>
    <contour>
      <point x="537" y="1070" type="curve" smooth="yes"/>
      <point x="257" y="1070"/>
      <point x="117" y="931"/>
      <point x="71" y="775" type="curve"/>
      <point x="418" y="685" type="line" smooth="yes"/>
      <point x="418" y="705"/>
      <point x="437" y="750"/>
      <point x="537" y="750" type="curve" smooth="yes"/>
      <point x="607" y="750"/>
      <point x="626" y="735"/>
      <point x="626" y="715" type="curve" smooth="yes"/>
      <point x="626" y="695"/>
      <point x="596" y="675"/>
      <point x="537" y="663" type="curve" smooth="yes"/>
      <point x="244" y="601"/>
      <point x="50" y="566"/>
      <point x="50" y="326" type="curve" smooth="yes"/>
      <point x="50" y="86"/>
      <point x="261" y="-30"/>
      <point x="537" y="-30" type="curve" smooth="yes"/>
      <point x="776" y="-30"/>
      <point x="968" y="85"/>
      <point x="1016" y="265" type="curve"/>
      <point x="664" y="356" type="line" smooth="yes"/>
      <point x="664" y="326"/>
      <point x="627" y="290"/>
      <point x="537" y="290" type="curve" smooth="yes"/>
      <point x="447" y="290"/>
      <point x="410" y="296"/>
      <point x="410" y="326" type="curve" smooth="yes"/>
      <point x="410" y="356"/>
      <point x="478" y="371"/>
      <point x="537" y="383" type="curve" smooth="yes"/>
      <point x="817" y="442"/>
      <point x="986" y="515"/>
      <point x="986" y="715" type="curve" smooth="yes"/>
      <point x="986" y="915"/>
      <point x="817" y="1070"/>
    </contour>
  </outline>
</glyph>
<glyph name="uni01B8" format="2">
  <advance width="1286"/>
  <unicode hex="01B8"/>
  <outline>
    <contour>
      <point x="575" y="634" type="line"/>
      <point x="758" y="912" type="line"/>
      <point x="253" y="1480" type="line"/>
      <point x="110" y="1176" type="line"/>
    </contour>
    <contour>
      <point x="50" y="453" type="curve" smooth="yes"/>
      <point x="50" y="120"/>
      <point x="284" y="-30"/>
      <point x="644" y="-30" type="curve" smooth="yes"/>
      <point x="929" y="-30"/>
      <point x="1193" y="91"/>
      <point x="1236" y="361" type="curve"/>
      <point x="863" y="461" type="line" smooth="yes"/>
      <point x="863" y="361"/>
      <point x="794" y="306"/>
      <point x="644" y="306" type="curve" smooth="yes"/>
      <point x="494" y="306"/>
      <point x="430" y="361"/>
      <point x="430" y="461" type="curve" smooth="yes"/>
      <point x="430" y="561"/>
      <point x="494" y="616"/>
      <point x="644" y="616" type="curve" smooth="yes"/>
      <point x="664" y="616"/>
      <point x="758" y="616"/>
      <point x="758" y="616" type="curve"/>
      <point x="758" y="912" type="line"/>
      <point x="758" y="912"/>
      <point x="664" y="936"/>
      <point x="644" y="936" type="curve" smooth="yes"/>
      <point x="305" y="936"/>
      <point x="50" y="720"/>
    </contour>
    <contour>
      <point x="1164" y="1480" type="line"/>
      <point x="110" y="1480" type="line"/>
      <point x="110" y="1176" type="line"/>
      <point x="523" y="1144" type="line"/>
      <point x="1164" y="1144" type="line"/>
    </contour>
  </outline>
</glyph>
<glyph name="uni023E" format="2">
  <advance width="1491"/>
  <unicode hex="023E"/>
  <outline>
    <contour>
      <point x="1299" y="1620" type="line"/>
      <point x="1491" y="1476" type="line"/>
      <point x="192" y="-140" type="line"/>
      <point x="0" y="4" type="line"/>
    </contour>
    <contour>
      <point x="935" y="0" type="line"/>
      <point x="555" y="0" type="line"/>
      <point x="555" y="1144" type="line"/>
      <point x="74" y="1144" type="line"/>
      <point x="74" y="1480" type="line"/>
      <point x="1416" y="1480" type="line"/>
      <point x="1416" y="1144" type="line"/>
      <point x="935" y="1144" type="line"/>
    </contour>
  </outline>
</glyph>
<glyph name="uni0245" format="2">
  <advance width="1530"/>
  <unicode hex="0245"/>
  <outline>
    <contour>
      <point x="773" y="1080" type="line"/>
      <point x="1103" y="0" type="line"/>
      <point x="1495" y="0" type="line"/>
      <point x="1003" y="1480" type="line"/>
      <point x="527" y="1480" type="line"/>
      <point x="35" y="0" type="line"/>
      <point x="427" y="0" type="line"/>
    </contour>
  </outline>
</glyph>
<glyph name="uni024A" format="2">
  <advance width="1691"/>
  <unicode hex="024A"/>
  <outline>
    <contour>
      <point x="1691" y="-143" type="curve"/>
      <point x="1691" y="-469" type="line"/>
      <point x="1679" y="-470"/>
      <point x="1667" y="-470"/>
      <point x="1655" y="-470" type="curve" smooth="yes"/>
      <point x="1405" y="-470"/>
      <point x="1190" y="-316"/>
      <point x="1190" y="-66" type="curve" smooth="yes"/>
      <point x="1570" y="-66" type="line" smooth="yes"/>
      <point x="1570" y="-116"/>
      <point x="1605" y="-150"/>
      <point x="1655" y="-150" type="curve" smooth="yes"/>
      <point x="1668" y="-150"/>
      <point x="1680" y="-148"/>
    </contour>
    <contour>
      <point x="1570" y="1480" type="line"/>
      <point x="1570" y="-66" type="line"/>
      <point x="1190" y="-66" type="line"/>
      <point x="1190" y="285" type="line"/>
      <point x="1230" y="420" type="line"/>
      <point x="1230" y="1092" type="line"/>
      <point x="1190" y="1173" type="line"/>
      <point x="1190" y="1480" type="line"/>
    </contour>
    <contour>
      <point x="430" y="740" type="curve" smooth="yes"/>
      <point x="430" y="490"/>
      <point x="560" y="306"/>
      <point x="810" y="306" type="curve" smooth="yes"/>
      <point x="1060" y="306"/>
      <point x="1190" y="490"/>
      <point x="1190" y="740" type="curve" smooth="yes"/>
      <point x="1190" y="990"/>
      <point x="1060" y="1174"/>
      <point x="810" y="1174" type="curve" smooth="yes"/>
      <point x="560" y="1174"/>
      <point x="430" y="990"/>
    </contour>
    <contour>
      <point x="50" y="740" type="curve" smooth="yes"/>
      <point x="50" y="1190"/>
      <point x="350" y="1510"/>
      <point x="810" y="1510" type="curve" smooth="yes"/>
      <point x="1270" y="1510"/>
      <point x="1530" y="1190"/>
      <point x="1530" y="740" type="curve" smooth="yes"/>
      <point x="1530" y="290"/>
      <point x="1270" y="-30"/>
      <point x="810" y="-30" type="curve" smooth="yes"/>
      <point x="350" y="-30"/>
      <point x="50" y="290"/>
    </contour>
  </outline>
</glyph>
<glyph name="uni024B" format="2">
  <advance width="1301"/>
  <unicode hex="024B"/>
  <outline>
    <contour>
      <point x="1301" y="-143" type="curve"/>
      <point x="1301" y="-469" type="line"/>
      <point x="1289" y="-470"/>
      <point x="1277" y="-470"/>
      <point x="1265" y="-470" type="curve" smooth="yes"/>
      <point x="1015" y="-470"/>
      <point x="820" y="-316"/>
      <point x="820" y="-66" type="curve" smooth="yes"/>
      <point x="1180" y="-66" type="line" smooth="yes"/>
      <point x="1180" y="-116"/>
      <point x="1215" y="-150"/>
      <point x="1265" y="-150" type="curve" smooth="yes"/>
      <point x="1278" y="-150"/>
      <point x="1290" y="-148"/>
    </contour>
    <contour>
      <point x="820" y="530" type="curve" smooth="yes"/>
      <point x="820" y="660"/>
      <point x="751" y="750"/>
      <point x="620" y="750" type="curve" smooth="yes"/>
      <point x="483" y="750"/>
      <point x="410" y="650"/>
      <point x="410" y="520" type="curve" smooth="yes"/>
      <point x="410" y="390"/>
      <point x="483" y="290"/>
      <point x="620" y="290" type="curve" smooth="yes"/>
      <point x="757" y="290"/>
      <point x="820" y="400"/>
    </contour>
    <contour>
      <point x="1180" y="872" type="curve"/>
      <point x="1180" y="-66" type="line"/>
      <point x="820" y="-66" type="line"/>
      <point x="820" y="120" type="line"/>
      <point x="810" y="81"/>
      <point x="705" y="-30"/>
      <point x="555" y="-30" type="curve" smooth="yes"/>
      <point x="235" y="-30"/>
      <point x="50" y="200"/>
      <point x="50" y="520" type="curve" smooth="yes"/>
      <point x="50" y="840"/>
      <point x="235" y="1070"/>
      <point x="555" y="1070" type="curve" smooth="yes"/>
      <point x="705" y="1070"/>
      <point x="832" y="960"/>
      <point x="832" y="920" type="curve"/>
      <point x="832" y="1040" type="line"/>
      <point x="1180" y="1040" type="line"/>
      <point x="1180" y="1040"/>
      <point x="1180" y="974"/>
    </contour>
  </outline>
</glyph>
<glyph name="uni026A" format="2">
  <advance width="738"/>
  <unicode hex="026A"/>
  <outline>
    <contour>
      <point x="70" y="1040" type="line"/>
      <point x="668" y="1040" type="line"/>
      <point x="668" y="720" type="line"/>
      <point x="549" y="720" type="line"/>
      <point x="549" y="320" type="line"/>
      <point x="668" y="320" type="line"/>
      <point x="668" y="0" type="line"/>
      <point x="70" y="0" type="line"/>
      <point x="70" y="320" type="line"/>
      <point x="189" y="320" type="line"/>
      <point x="189" y="720" type="line"/>
      <point x="70" y="720" type="line"/>
    </contour>
  </outline>
</glyph>
<glyph name="uni0274" format="2">
  <advance width="1195"/>
  <unicode hex="0274"/>
  <outline>
    <contour>
      <point x="430" y="1040" type="line"/>
      <point x="765" y="582" type="line"/>
      <point x="765" y="1040" type="line"/>
      <point x="1125" y="1040" type="line"/>
      <point x="1125" y="0" type="line"/>
      <point x="765" y="0" type="line"/>
      <point x="430" y="468" type="line"/>
      <point x="430" y="0" type="line"/>
      <point x="70" y="0" type="line"/>
      <point x="70" y="1040" type="line"/>
    </contour>
  </outline>
</glyph>
<glyph name="uni0276" format="2">
  <advance width="1739"/>
  <unicode hex="0276"/>
  <outline>
    <contour>
      <point x="1610" y="640" type="line"/>
      <point x="1610" y="400" type="line"/>
      <point x="1210" y="400" type="line"/>
      <point x="1210" y="320" type="line"/>
      <point x="1689" y="320" type="line"/>
      <point x="1689" y="0" type="line"/>
      <point x="850" y="0" type="line"/>
      <point x="850" y="1040" type="line"/>
      <point x="1689" y="1040" type="line"/>
      <point x="1689" y="720" type="line"/>
      <point x="1210" y="720" type="line"/>
      <point x="1210" y="640" type="line"/>
    </contour>
    <contour>
      <point x="50" y="520" type="curve" smooth="yes"/>
      <point x="50" y="840"/>
      <point x="310" y="1070"/>
      <point x="630" y="1070" type="curve" smooth="yes"/>
      <point x="950" y="1070"/>
      <point x="1210" y="840"/>
      <point x="1210" y="520" type="curve" smooth="yes"/>
      <point x="1210" y="200"/>
      <point x="950" y="-30"/>
      <point x="630" y="-30" type="curve" smooth="yes"/>
      <point x="310" y="-30"/>
      <point x="50" y="200"/>
    </contour>
    <contour>
      <point x="410" y="520" type="curve" smooth="yes"/>
      <point x="410" y="390"/>
      <point x="493" y="290"/>
      <point x="630" y="290" type="curve" smooth="yes"/>
      <point x="767" y="290"/>
      <point x="850" y="383"/>
      <point x="850" y="520" type="curve" smooth="yes"/>
      <point x="850" y="657"/>
      <point x="767" y="750"/>
      <point x="630" y="750" type="curve" smooth="yes"/>
      <point x="493" y="750"/>
      <point x="410" y="657"/>
    </contour>
  </outline>
</glyph>
<glyph name="uni0282" format="2">
  <advance width="1066"/>
  <unicode hex="0282"/>
  <outline>
    <contour>
      <point x="410" y="0" type="line" smooth="yes"/>
      <point x="410" y="-50"/>
      <point x="445" y="-84"/>
      <point x="495" y="-84" type="curve" smooth="yes"/>
      <point x="508" y="-84"/>
      <point x="520" y="-82"/>
      <point x="531" y="-77" type="curve"/>
      <point x="531" y="-403" type="line"/>
      <point x="519" y="-404"/>
      <point x="507" y="-404"/>
      <point x="495" y="-404" type="curve" smooth="yes"/>
      <point x="245" y="-404"/>
      <point x="50" y="-250"/>
      <point x="50" y="0" type="curve" smooth="yes"/>
      <point x="50" y="265" type="line"/>
      <point x="410" y="191" type="line"/>
    </contour>
    <contour>
      <point x="440" y="715" type="curve" smooth="yes"/>
      <point x="440" y="695"/>
      <point x="470" y="675"/>
      <point x="529" y="663" type="curve" smooth="yes"/>
      <point x="822" y="601"/>
      <point x="1016" y="566"/>
      <point x="1016" y="326" type="curve" smooth="yes"/>
      <point x="1016" y="86"/>
      <point x="805" y="-30"/>
      <point x="529" y="-30" type="curve" smooth="yes"/>
      <point x="290" y="-30"/>
      <point x="98" y="85"/>
      <point x="50" y="265" type="curve"/>
      <point x="402" y="356" type="line" smooth="yes"/>
      <point x="402" y="326"/>
      <point x="439" y="290"/>
      <point x="529" y="290" type="curve" smooth="yes"/>
      <point x="619" y="290"/>
      <point x="656" y="296"/>
      <point x="656" y="326" type="curve" smooth="yes"/>
      <point x="656" y="356"/>
      <point x="588" y="371"/>
      <point x="529" y="383" type="curve" smooth="yes"/>
      <point x="249" y="442"/>
      <point x="80" y="515"/>
      <point x="80" y="715" type="curve" smooth="yes"/>
      <point x="80" y="915"/>
      <point x="249" y="1070"/>
      <point x="529" y="1070" type="curve" smooth="yes"/>
      <point x="809" y="1070"/>
      <point x="949" y="931"/>
      <point x="995" y="775" type="curve"/>
      <point x="648" y="685" type="line" smooth="yes"/>
      <point x="648" y="705"/>
      <point x="629" y="750"/>
      <point x="529" y="750" type="curve" smooth="yes"/>
      <point x="459" y="750"/>
      <point x="440" y="735"/>
    </contour>
  </outline>
</glyph>
<glyph name="uni0286" format="2">
  <advance width="1228"/>
  <unicode hex="0286"/>
  <outline>
    <contour>
      <point x="1228" y="208" type="line"/>
      <point x="360" y="208" type="line"/>
      <point x="360" y="-32" type="line"/>
      <point x="1228" y="-32" type="line"/>
    </contour>
    <contour>
      <point x="810" y="-131" type="curve"/>
      <point x="810" y="1050" type="line"/>
      <point x="810" y="1150"/>
      <point x="858" y="1190"/>
      <point x="948" y="1190" type="curve" smooth="yes"/>
      <point x="1008" y="1190"/>
      <point x="1083" y="1167"/>
      <point x="1115" y="1135" type="curve"/>
      <point x="1206" y="1458" type="line"/>
      <point x="1150" y="1482"/>
      <point x="1065" y="1510"/>
      <point x="944" y="1510" type="curve" smooth="yes"/>
      <point x="584" y="1510"/>
      <point x="450" y="1320"/>
      <point x="450" y="1040" type="curve"/>
      <point x="450" y="-131" type="line" smooth="yes"/>
      <point x="450" y="-185"/>
      <point x="414" y="-230"/>
      <point x="360" y="-230" type="curve" smooth="yes"/>
      <point x="306" y="-230"/>
      <point x="270" y="-185"/>
      <point x="270" y="-131" type="curve" smooth="yes"/>
      <point x="270" y="-77"/>
      <point x="306" y="-32"/>
      <point x="360" y="-32" type="curve" smooth="yes"/>
      <point x="360" y="208" type="line" smooth="yes"/>
      <point x="165" y="208"/>
      <point x="0" y="82"/>
      <point x="0" y="-131" type="curve" smooth="yes"/>
      <point x="0" y="-344"/>
      <point x="165" y="-470"/>
      <point x="360" y="-470" type="curve" smooth="yes"/>
      <point x="635" y="-470"/>
      <point x="810" y="-364"/>
    </contour>
  </outline>
</glyph>
<glyph name="uni0289" format="2">
  <advance width="1472"/>
  <unicode hex="0289"/>
  <outline>
    <contour>
      <point x="0" y="680" type="line"/>
      <point x="1472" y="680" type="line"/>
      <point x="1472" y="360" type="line"/>
      <point x="0" y="360" type="line"/>
    </contour>
    <contour>
      <point x="570" y="1040" type="line"/>
      <point x="570" y="468" type="line" smooth="yes"/>
      <point x="570" y="358"/>
      <point x="606" y="290"/>
      <point x="736" y="290" type="curve" smooth="yes"/>
      <point x="866" y="290"/>
      <point x="902" y="358"/>
      <point x="902" y="468" type="curve" smooth="yes"/>
      <point x="902" y="1040" type="line"/>
      <point x="1262" y="1040" type="line"/>
      <point x="1262" y="168" type="line"/>
      <point x="1262" y="66"/>
      <point x="1286" y="0"/>
      <point x="1286" y="0" type="curve"/>
      <point x="937" y="0" type="line"/>
      <point x="937" y="0"/>
      <point x="913" y="60"/>
      <point x="913" y="120" type="curve"/>
      <point x="878" y="59"/>
      <point x="790" y="-30"/>
      <point x="640" y="-30" type="curve" smooth="yes"/>
      <point x="376" y="-30"/>
      <point x="210" y="148"/>
      <point x="210" y="468" type="curve"/>
      <point x="210" y="1040" type="line"/>
    </contour>
  </outline>
</glyph>
<glyph name="uni028F" format="2">
  <advance width="1182"/>
  <unicode hex="028F"/>
  <outline>
    <contour>
      <point x="781" y="480" type="line"/>
      <point x="781" y="0" type="line"/>
      <point x="401" y="0" type="line"/>
      <point x="401" y="480" type="line"/>
      <point x="35" y="1040" type="line"/>
      <point x="457" y="1040" type="line"/>
      <point x="591" y="822" type="line"/>
      <point x="715" y="1040" type="line"/>
      <point x="1147" y="1040" type="line"/>
    </contour>
  </outline>
</glyph>
<glyph name="uni0290" format="2">
  <advance width="1079"/>
  <unicode hex="0290"/>
  <outline>
    <contour>
      <point x="958" y="0" type="curve" smooth="yes"/>
      <point x="958" y="320" type="line"/>
      <point x="484" y="320" type="line"/>
      <point x="70" y="288" type="line"/>
      <point x="70" y="0" type="line"/>
      <point x="598" y="0" type="line" smooth="yes"/>
      <point x="598" y="-250"/>
      <point x="793" y="-404"/>
      <point x="1043" y="-404" type="curve" smooth="yes"/>
      <point x="1055" y="-404"/>
      <point x="1067" y="-404"/>
      <point x="1079" y="-403" type="curve"/>
      <point x="1079" y="-77" type="line"/>
      <point x="1068" y="-82"/>
      <point x="1056" y="-84"/>
      <point x="1043" y="-84" type="curve" smooth="yes"/>
      <point x="993" y="-84"/>
      <point x="958" y="-50"/>
    </contour>
    <contour>
      <point x="70" y="1040" type="line"/>
      <point x="70" y="720" type="line"/>
      <point x="548" y="720" type="line"/>
      <point x="962" y="752" type="line"/>
      <point x="962" y="1040" type="line"/>
    </contour>
    <contour>
      <point x="544" y="320" type="line"/>
      <point x="962" y="752" type="line"/>
      <point x="488" y="720" type="line"/>
      <point x="70" y="288" type="line"/>
    </contour>
  </outline>
</glyph>
<glyph name="uni0294" format="2">
  <advance width="1287"/>
  <unicode hex="0294"/>
  <outline>
    <contour>
      <point x="450" y="0" type="line"/>
      <point x="830" y="0" type="line"/>
      <point x="830" y="746" type="line"/>
      <point x="450" y="746" type="line"/>
    </contour>
    <contour>
      <point x="640" y="410" type="line" smooth="yes"/>
      <point x="977" y="410"/>
      <point x="1237" y="648"/>
      <point x="1237" y="960" type="curve" smooth="yes"/>
      <point x="1237" y="1272"/>
      <point x="1000" y="1510"/>
      <point x="640" y="1510" type="curve" smooth="yes"/>
      <point x="318" y="1510"/>
      <point x="95" y="1320"/>
      <point x="50" y="1056" type="curve"/>
      <point x="403" y="960" type="line" smooth="yes"/>
      <point x="403" y="1110"/>
      <point x="519" y="1174"/>
      <point x="640" y="1174" type="curve" smooth="yes"/>
      <point x="761" y="1174"/>
      <point x="877" y="1110"/>
      <point x="877" y="960" type="curve" smooth="yes"/>
      <point x="877" y="810"/>
      <point x="756" y="746"/>
      <point x="640" y="746" type="curve" smooth="yes"/>
    </contour>
  </outline>
</glyph>
<glyph name="uni0295" format="2">
  <advance width="1287"/>
  <unicode hex="0295"/>
  <outline>
    <contour>
      <point x="837" y="0" type="line"/>
      <point x="457" y="0" type="line"/>
      <point x="457" y="746" type="line"/>
      <point x="837" y="746" type="line"/>
    </contour>
    <contour>
      <point x="647" y="410" type="line" smooth="yes"/>
      <point x="310" y="410"/>
      <point x="50" y="648"/>
      <point x="50" y="960" type="curve" smooth="yes"/>
      <point x="50" y="1272"/>
      <point x="287" y="1510"/>
      <point x="647" y="1510" type="curve" smooth="yes"/>
      <point x="969" y="1510"/>
      <point x="1192" y="1320"/>
      <point x="1237" y="1056" type="curve"/>
      <point x="884" y="960" type="line" smooth="yes"/>
      <point x="884" y="1110"/>
      <point x="768" y="1174"/>
      <point x="647" y="1174" type="curve" smooth="yes"/>
      <point x="526" y="1174"/>
      <point x="410" y="1110"/>
      <point x="410" y="960" type="curve" smooth="yes"/>
      <point x="410" y="810"/>
      <point x="531" y="746"/>
      <point x="647" y="746" type="curve" smooth="yes"/>
    </contour>
  </outline>
</glyph>
<glyph name="uni02AE" format="2">
  <advance width="1518"/>
  <unicode hex="02AE"/>
  <outline>
    <contour>
      <point x="1100" y="-440" type="line"/>
      <point x="1100" y="120" type="line"/>
      <point x="1065" y="59"/>
      <point x="976" y="-30"/>
      <point x="826" y="-30" type="curve" smooth="yes"/>
      <point x="562" y="-30"/>
      <point x="396" y="148"/>
      <point x="396" y="468" type="curve"/>
      <point x="396" y="1040" type="line"/>
      <point x="396" y="1140"/>
      <point x="348" y="1180"/>
      <point x="258" y="1180" type="curve" smooth="yes"/>
      <point x="198" y="1180"/>
      <point x="123" y="1157"/>
      <point x="91" y="1125" type="curve"/>
      <point x="0" y="1448" type="line"/>
      <point x="56" y="1472"/>
      <point x="141" y="1500"/>
      <point x="262" y="1500" type="curve" smooth="yes"/>
      <point x="622" y="1500"/>
      <point x="756" y="1320"/>
      <point x="756" y="1040" type="curve"/>
      <point x="756" y="468" type="line" smooth="yes"/>
      <point x="756" y="358"/>
      <point x="792" y="290"/>
      <point x="922" y="290" type="curve" smooth="yes"/>
      <point x="1052" y="290"/>
      <point x="1088" y="358"/>
      <point x="1088" y="468" type="curve" smooth="yes"/>
      <point x="1088" y="1040" type="line"/>
      <point x="1448" y="1040" type="line"/>
      <point x="1448" y="-440" type="line"/>
    </contour>
  </outline>
</glyph>
<glyph name="uni02B2" format="2">
  <advance width="463"/>
  <unicode hex="02B2"/>
  <outline>
    <contour>
      <point x="121" y="1624" type="curve" smooth="yes"/>
      <point x="121" y="1707"/>
      <point x="188" y="1774"/>
      <point x="271" y="1774" type="curve" smooth="yes"/>
      <point x="354" y="1774"/>
      <point x="421" y="1707"/>
      <point x="421" y="1624" type="curve" smooth="yes"/>
      <point x="421" y="1541"/>
      <point x="354" y="1474"/>
      <point x="271" y="1474" type="curve" smooth="yes"/>
      <point x="188" y="1474"/>
      <point x="121" y="1541"/>
    </contour>
    <contour>
      <point x="63" y="785" type="curve"/>
      <point x="5" y="570" type="line"/>
      <point x="23" y="560"/>
      <point x="55" y="537"/>
      <point x="115" y="537" type="curve" smooth="yes"/>
      <point x="309" y="537"/>
      <point x="408" y="590"/>
      <point x="408" y="764" type="curve" smooth="yes"/>
      <point x="408" y="804" type="line"/>
      <point x="408" y="884" type="line"/>
      <point x="408" y="1413" type="line"/>
      <point x="138" y="1413" type="line"/>
      <point x="138" y="925" type="line"/>
      <point x="138" y="852" type="line"/>
      <point x="138" y="815" type="line" smooth="yes"/>
      <point x="138" y="788"/>
      <point x="128" y="777"/>
      <point x="98" y="777" type="curve" smooth="yes"/>
      <point x="87" y="777"/>
      <point x="71" y="780"/>
    </contour>
  </outline>
</glyph>
<glyph name="uni02D0" format="2">
  <advance width="572"/>
  <unicode hex="02D0"/>
  <outline>
    <contour>
      <point x="286" y="406" type="line"/>
      <point x="522" y="0" type="line"/>
      <point x="50" y="0" type="line"/>
    </contour>
    <contour>
      <point x="286" y="694" type="line"/>
      <point x="50" y="1100" type="line"/>
      <point x="522" y="1100" type="line"/>
    </contour>
  </outline>
</glyph>
<glyph name="uni02DE" format="2">
  <advance width="893"/>
  <unicode hex="02DE"/>
  <outline>
    <contour>
      <point x="483" y="684" type="curve"/>
      <point x="742" y="843" type="line"/>
      <point x="742" y="793"/>
      <point x="787" y="709"/>
      <point x="857" y="709" type="curve" smooth="yes"/>
      <point x="870" y="709"/>
      <point x="882" y="711"/>
      <point x="893" y="716" type="curve"/>
      <point x="893" y="390" type="line"/>
      <point x="881" y="389"/>
      <point x="869" y="389"/>
      <point x="857" y="389" type="curve" smooth="yes"/>
      <point x="665" y="389"/>
      <point x="545" y="529"/>
    </contour>
    <contour>
      <point x="35" y="654" type="line"/>
      <point x="742" y="843" type="line"/>
      <point x="720" y="668" type="line"/>
      <point x="783" y="604" type="line"/>
      <point x="100" y="421" type="line"/>
    </contour>
  </outline>
</glyph>
<glyph name="hookabovecomb" format="2">
  <advance width="0"/>
  <unicode hex="0309"/>
  <anchor x="642" y="1000" name="_circumflex_right"/>
  <anchor x="642" y="1040" name="_top_center"/>
  <outline>
    <contour>
      <point x="562" y="1334" type="line"/>
      <point x="722" y="1334" type="line"/>
      <point x="722" y="1156" type="line"/>
      <point x="562" y="1156" type="line"/>
    </contour>
    <contour>
      <point x="487" y="1368" type="curve"/>
      <point x="446" y="1523" type="line"/>
      <point x="446" y="1523"/>
      <point x="532" y="1558"/>
      <point x="613" y="1558" type="curve" smooth="yes"/>
      <point x="812" y="1558"/>
      <point x="874" y="1466"/>
      <point x="874" y="1376" type="curve" smooth="yes"/>
      <point x="874" y="1236"/>
      <point x="774" y="1193"/>
      <point x="642" y="1193" type="curve" smooth="yes"/>
      <point x="642" y="1334" type="line" smooth="yes"/>
      <point x="696" y="1334"/>
      <point x="714" y="1346"/>
      <point x="714" y="1366" type="curve" smooth="yes"/>
      <point x="714" y="1386"/>
      <point x="677" y="1398"/>
      <point x="625" y="1398" type="curve" smooth="yes"/>
      <point x="531" y="1398"/>
      <point x="487" y="1368"/>
    </contour>
  </outline>
</glyph>
<glyph name="uni031B" format="2">
  <advance width="0"/>
  <unicode hex="031B"/>
  <anchor x="0" y="1480" name="_top_right"/>
  <outline>
    <contour>
      <point x="159" y="1272" type="curve"/>
      <point x="156" y="1271"/>
      <point x="152" y="1270"/>
      <point x="149" y="1270" type="curve" smooth="yes"/>
      <point x="82" y="1270"/>
      <point x="29" y="1323"/>
      <point x="29" y="1390" type="curve" smooth="yes"/>
      <point x="29" y="1457"/>
      <point x="82" y="1510"/>
      <point x="149" y="1510" type="curve" smooth="yes"/>
      <point x="217" y="1510"/>
      <point x="288" y="1467"/>
      <point x="288" y="1307" type="curve" smooth="yes"/>
      <point x="288" y="1150"/>
      <point x="148" y="1059"/>
      <point x="0" y="1033" type="curve"/>
      <point x="0" y="1193" type="line"/>
      <point x="118" y="1214"/>
      <point x="159" y="1256"/>
    </contour>
  </outline>
</glyph>
<glyph name="uni0326" format="2">
  <advance width="0"/>
  <unicode hex="0326"/>
  <anchor x="642" y="0" name="_bottom_center"/>
  <outline>
    <contour>
      <point x="522" y="-232" type="curve" smooth="yes"/>
      <point x="522" y="-165"/>
      <point x="575" y="-112"/>
      <point x="642" y="-112" type="curve" smooth="yes"/>
      <point x="709" y="-112"/>
      <point x="762" y="-165"/>
      <point x="762" y="-232" type="curve" smooth="yes"/>
      <point x="762" y="-299"/>
      <point x="709" y="-352"/>
      <point x="642" y="-352" type="curve" smooth="yes"/>
      <point x="575" y="-352"/>
      <point x="522" y="-299"/>
    </contour>
    <contour>
      <point x="531" y="-429" type="line"/>
      <point x="608" y="-417"/>
      <point x="667" y="-368"/>
      <point x="667" y="-315" type="curve" smooth="yes"/>
      <point x="667" y="-289"/>
      <point x="643" y="-232"/>
      <point x="643" y="-232" type="curve"/>
      <point x="642" y="-112" type="line"/>
      <point x="710" y="-112"/>
      <point x="801" y="-155"/>
      <point x="801" y="-315" type="curve" smooth="yes"/>
      <point x="801" y="-442"/>
      <point x="662" y="-540"/>
      <point x="567" y="-557" type="curve"/>
    </contour>
  </outline>
</glyph>
<glyph name="uni0328" format="2">
  <advance width="0"/>
  <unicode hex="0328"/>
  <anchor x="642" y="0" name="_bottom_right"/>
  <outline>
    <contour>
      <point x="599" y="-225" type="curve"/>
      <point x="677" y="-368" type="line"/>
      <point x="620" y="-418"/>
      <point x="569" y="-432"/>
      <point x="505" y="-432" type="curve" smooth="yes"/>
      <point x="405" y="-432"/>
      <point x="292" y="-374"/>
      <point x="292" y="-224" type="curve" smooth="yes"/>
      <point x="292" y="-64"/>
      <point x="494" y="65"/>
      <point x="542" y="100" type="curve" smooth="yes"/>
      <point x="642" y="0" type="line" smooth="yes"/>
      <point x="534" y="-78"/>
      <point x="462" y="-137"/>
      <point x="462" y="-204" type="curve" smooth="yes"/>
      <point x="462" y="-230"/>
      <point x="483" y="-261"/>
      <point x="515" y="-261" type="curve" smooth="yes"/>
      <point x="559" y="-261"/>
      <point x="579" y="-256"/>
    </contour>
  </outline>
</glyph>
<glyph name="uni0337" format="2">
  <advance width="0"/>
  <unicode hex="0337"/>
  <outline>
    <contour>
      <point x="1016" y="1180" type="line"/>
      <point x="1208" y="1036" type="line"/>
      <point x="292" y="-140" type="line"/>
      <point x="100" y="4" type="line"/>
    </contour>
  </outline>
</glyph>
<glyph name="uni037F" format="2">
  <advance width="1365"/>
  <unicode hex="037F"/>
  <anchor x="663" y="0" name="bottom_center"/>
  <anchor x="1059" y="1380" name="top_center"/>
  <outline>
    <contour>
      <point x="471" y="569" type="line"/>
      <point x="471" y="569"/>
      <point x="464" y="543"/>
      <point x="464" y="485" type="curve" smooth="yes"/>
      <point x="464" y="385"/>
      <point x="548" y="306"/>
      <point x="663" y="306" type="curve" smooth="yes"/>
      <point x="778" y="306"/>
      <point x="869" y="385"/>
      <point x="869" y="485" type="curve" smooth="yes"/>
      <point x="869" y="1480" type="line"/>
      <point x="1249" y="1480" type="line"/>
      <point x="1249" y="485" type="line" smooth="yes"/>
      <point x="1249" y="165"/>
      <point x="999" y="-30"/>
      <point x="663" y="-30" type="curve" smooth="yes"/>
      <point x="327" y="-30"/>
      <point x="84" y="165"/>
      <point x="84" y="485" type="curve" smooth="yes"/>
    </contour>
  </outline>
</glyph>
<glyph name="Theta" format="2">
  <advance width="1620"/>
  <unicode hex="0398"/>
  <anchor x="844" y="0" name="bottom_center"/>
  <anchor x="844" y="1380" name="top_center"/>
  <outline>
    <contour>
      <point x="553" y="908" type="line"/>
      <point x="812" y="908" type="line"/>
      <point x="1071" y="908" type="line"/>
      <point x="1071" y="572" type="line"/>
      <point x="812" y="572" type="line"/>
      <point x="553" y="572" type="line"/>
    </contour>
    <component base="O"/>
  </outline>
</glyph>
<glyph name="beta" format="2">
  <advance width="1300"/>
  <unicode hex="03B2"/>
  <anchor x="250" y="-360" name="bottom_center"/>
  <anchor x="606" y="1380" name="top_center"/>
  <outline>
    <contour>
      <point x="682" y="-30" type="curve" smooth="yes"/>
      <point x="1041" y="-30"/>
      <point x="1250" y="176"/>
      <point x="1250" y="456" type="curve" smooth="yes"/>
      <point x="1250" y="736"/>
      <point x="978" y="932"/>
      <point x="618" y="932" type="curve" smooth="yes"/>
      <point x="618" y="612" type="line" smooth="yes"/>
      <point x="738" y="612"/>
      <point x="890" y="576"/>
      <point x="890" y="456" type="curve" smooth="yes"/>
      <point x="890" y="336"/>
      <point x="802" y="290"/>
      <point x="682" y="290" type="curve" smooth="yes"/>
      <point x="482" y="290"/>
      <point x="345" y="416"/>
      <point x="345" y="416" type="curve"/>
      <point x="242" y="152" type="line"/>
      <point x="242" y="152"/>
      <point x="453" y="-30"/>
    </contour>
    <contour>
      <point x="565" y="932" type="line"/>
      <point x="565" y="612" type="line"/>
      <point x="618" y="612" type="line"/>
      <point x="618" y="932" type="line"/>
    </contour>
    <contour>
      <point x="430" y="1056" type="curve" smooth="yes"/>
      <point x="430" y="1136"/>
      <point x="516" y="1190"/>
      <point x="606" y="1190" type="curve" smooth="yes"/>
      <point x="696" y="1190"/>
      <point x="782" y="1141"/>
      <point x="782" y="1056" type="curve" smooth="yes"/>
      <point x="782" y="981"/>
      <point x="748" y="932"/>
      <point x="618" y="932" type="curve" smooth="yes"/>
      <point x="618" y="692" type="line" smooth="yes"/>
      <point x="924" y="692"/>
      <point x="1142" y="801"/>
      <point x="1142" y="1056" type="curve" smooth="yes"/>
      <point x="1142" y="1311"/>
      <point x="912" y="1510"/>
      <point x="606" y="1510" type="curve" smooth="yes"/>
      <point x="300" y="1510"/>
      <point x="70" y="1311"/>
      <point x="70" y="1056" type="curve" smooth="yes"/>
      <point x="70" y="801"/>
      <point x="70" y="-440"/>
      <point x="70" y="-440" type="curve"/>
      <point x="430" y="-440" type="line"/>
      <point x="430" y="-440"/>
      <point x="430" y="976"/>
    </contour>
  </outline>
</glyph>
<glyph name="eta" format="2">
  <advance width="1192"/>
  <unicode hex="03B7"/>
  <anchor x="596" y="1040" name="top_center"/>
  <anchor x="250" y="-90" name="bottom_ypogegrammeni"/>
  <anchor x="942" y="-360" name="bottom_center"/>
  <anchor x="596" y="1040" name="top_center_1F"/>
  <outline>
    <contour>
      <point x="762" y="-440" type="line"/>
      <point x="762" y="572" type="line" smooth="yes"/>
      <point x="762" y="682"/>
      <point x="726" y="750"/>
      <point x="596" y="750" type="curve" smooth="yes"/>
      <point x="466" y="750"/>
      <point x="430" y="682"/>
      <point x="430" y="572" type="curve" smooth="yes"/>
      <point x="430" y="0" type="line"/>
      <point x="70" y="0" type="line"/>
      <point x="70" y="1040" type="line"/>
      <point x="418" y="1040" type="line"/>
      <point x="418" y="920" type="line"/>
      <point x="453" y="981"/>
      <point x="542" y="1070"/>
      <point x="692" y="1070" type="curve" smooth="yes"/>
      <point x="956" y="1070"/>
      <point x="1122" y="892"/>
      <point x="1122" y="572" type="curve"/>
      <point x="1122" y="-440" type="line"/>
    </contour>
  </outline>
</glyph>
<glyph name="upsilon" format="2">
  <advance width="1172"/>
  <unicode hex="03C5"/>
  <anchor x="536" y="1040" name="top_center"/>
  <anchor x="596" y="0" name="bottom_center"/>
  <anchor x="536" y="1040" name="top_center_1F"/>
  <outline>
    <contour>
      <point x="430" y="1040" type="line"/>
      <point x="430" y="467" type="line" smooth="yes"/>
      <point x="430" y="357"/>
      <point x="466" y="289"/>
      <point x="596" y="289" type="curve" smooth="yes"/>
      <point x="726" y="289"/>
      <point x="762" y="357"/>
      <point x="762" y="467" type="curve" smooth="yes"/>
      <point x="762" y="697"/>
      <point x="724" y="842"/>
      <point x="605" y="945" type="curve"/>
      <point x="905" y="1109" type="line"/>
      <point x="1030" y="980"/>
      <point x="1122" y="817"/>
      <point x="1122" y="467" type="curve" smooth="yes"/>
      <point x="1122" y="147"/>
      <point x="916" y="-31"/>
      <point x="596" y="-31" type="curve" smooth="yes"/>
      <point x="276" y="-31"/>
      <point x="70" y="147"/>
      <point x="70" y="467" type="curve"/>
      <point x="70" y="1040" type="line"/>
    </contour>
  </outline>
</glyph>
<glyph name="uni03D0" format="2">
  <advance width="1341"/>
  <unicode hex="03D0"/>
  <outline>
    <contour>
      <point x="322" y="900" type="line"/>
      <point x="322" y="580" type="line"/>
      <point x="659" y="580" type="line"/>
      <point x="659" y="900" type="line"/>
    </contour>
    <contour>
      <point x="50" y="740" type="curve" smooth="yes"/>
      <point x="50" y="240"/>
      <point x="311" y="-30"/>
      <point x="648" y="-30" type="curve"/>
      <point x="1046" y="-27"/>
      <point x="1291" y="131"/>
      <point x="1291" y="466" type="curve" smooth="yes"/>
      <point x="1291" y="751"/>
      <point x="920" y="900"/>
      <point x="659" y="900" type="curve" smooth="yes"/>
      <point x="659" y="580" type="line" smooth="yes"/>
      <point x="829" y="580"/>
      <point x="931" y="526"/>
      <point x="931" y="466" type="curve" smooth="yes"/>
      <point x="931" y="336"/>
      <point x="818" y="290"/>
      <point x="648" y="290" type="curve"/>
      <point x="478" y="290"/>
      <point x="410" y="470"/>
      <point x="410" y="740" type="curve" smooth="yes"/>
      <point x="410" y="1010"/>
      <point x="478" y="1190"/>
      <point x="648" y="1190" type="curve" smooth="yes"/>
      <point x="738" y="1190"/>
      <point x="823" y="1151"/>
      <point x="823" y="1061" type="curve" smooth="yes"/>
      <point x="823" y="1011"/>
      <point x="809" y="900"/>
      <point x="659" y="900" type="curve" smooth="yes"/>
      <point x="659" y="697" type="line" smooth="yes"/>
      <point x="965" y="697"/>
      <point x="1183" y="866"/>
      <point x="1183" y="1061" type="curve" smooth="yes"/>
      <point x="1183" y="1356"/>
      <point x="953" y="1510"/>
      <point x="648" y="1510" type="curve" smooth="yes"/>
      <point x="311" y="1510"/>
      <point x="50" y="1240"/>
    </contour>
  </outline>
</glyph>
<glyph name="theta1" format="2">
  <advance width="1406"/>
  <unicode hex="03D1"/>
  <outline>
    <contour>
      <point x="50" y="740" type="line" smooth="yes"/>
      <point x="50" y="240"/>
      <point x="351" y="-30"/>
      <point x="698" y="-30" type="curve"/>
      <point x="1035" y="-30"/>
      <point x="1356" y="240"/>
      <point x="1356" y="740" type="curve" smooth="yes"/>
      <point x="1356" y="1240"/>
      <point x="1095" y="1510"/>
      <point x="758" y="1510" type="curve" smooth="yes"/>
      <point x="453" y="1510"/>
      <point x="273" y="1356"/>
      <point x="273" y="1061" type="curve" smooth="yes"/>
      <point x="273" y="866"/>
      <point x="491" y="580"/>
      <point x="797" y="580" type="curve" smooth="yes"/>
      <point x="797" y="900" type="line" smooth="yes"/>
      <point x="647" y="900"/>
      <point x="633" y="1011"/>
      <point x="633" y="1061" type="curve" smooth="yes"/>
      <point x="633" y="1151"/>
      <point x="668" y="1190"/>
      <point x="758" y="1190" type="curve" smooth="yes"/>
      <point x="928" y="1190"/>
      <point x="996" y="1010"/>
      <point x="996" y="740" type="curve" smooth="yes"/>
      <point x="996" y="470"/>
      <point x="868" y="290"/>
      <point x="698" y="290" type="curve"/>
      <point x="528" y="290"/>
      <point x="410" y="470"/>
      <point x="410" y="740" type="curve" smooth="yes"/>
    </contour>
    <contour>
      <point x="1244" y="900" type="line"/>
      <point x="797" y="900" type="line"/>
      <point x="797" y="580" type="line"/>
      <point x="1244" y="580" type="line"/>
    </contour>
  </outline>
</glyph>
<glyph name="Upsilon1" format="2">
  <advance width="1588"/>
  <unicode hex="03D2"/>
  <anchor x="71" y="1480" name="top_left"/>
  <anchor x="786" y="0" name="bottom_center"/>
  <anchor x="786" y="1400" name="top_center"/>
  <outline>
    <contour>
      <point x="976" y="709" type="line"/>
      <point x="976" y="0" type="line"/>
      <point x="596" y="0" type="line"/>
      <point x="596" y="695" type="line"/>
      <point x="35" y="1480" type="line"/>
      <point x="463" y="1480" type="line"/>
      <point x="786" y="988" type="line"/>
      <point x="1003" y="1317" type="line" smooth="yes"/>
      <point x="1083" y="1434"/>
      <point x="1165" y="1510"/>
      <point x="1291" y="1510" type="curve" smooth="yes"/>
      <point x="1379" y="1510"/>
      <point x="1472" y="1484"/>
      <point x="1557" y="1435" type="curve" smooth="yes"/>
      <point x="1567" y="1429"/>
      <point x="1578" y="1423"/>
      <point x="1588" y="1416" type="curve"/>
      <point x="1425" y="1133" type="line"/>
      <point x="1418" y="1143"/>
      <point x="1408" y="1152"/>
      <point x="1397" y="1158" type="curve" smooth="yes"/>
      <point x="1382" y="1167"/>
      <point x="1367" y="1170"/>
      <point x="1352" y="1170" type="curve" smooth="yes"/>
      <point x="1324" y="1170"/>
      <point x="1300" y="1152"/>
      <point x="1282" y="1127" type="curve" smooth="yes"/>
    </contour>
  </outline>
</glyph>
<glyph name="omega1" format="2">
  <advance width="1714"/>
  <unicode hex="03D6"/>
  <outline>
    <contour>
      <point x="1664" y="720" type="line"/>
      <point x="50" y="720" type="line"/>
      <point x="50" y="1040" type="line"/>
      <point x="1664" y="1040" type="line"/>
    </contour>
    <contour>
      <point x="172" y="851" type="curve"/>
      <point x="568" y="851" type="line"/>
      <point x="490" y="753"/>
      <point x="464" y="626"/>
      <point x="464" y="468" type="curve" smooth="yes"/>
      <point x="464" y="358"/>
      <point x="486" y="290"/>
      <point x="586" y="290" type="curve" smooth="yes"/>
      <point x="686" y="290"/>
      <point x="692" y="410"/>
      <point x="692" y="520" type="curve"/>
      <point x="960" y="520" type="line"/>
      <point x="960" y="200"/>
      <point x="854" y="-30"/>
      <point x="530" y="-30" type="curve" smooth="yes"/>
      <point x="266" y="-30"/>
      <point x="104" y="148"/>
      <point x="104" y="468" type="curve" smooth="yes"/>
      <point x="104" y="653"/>
      <point x="129" y="766"/>
    </contour>
    <contour>
      <point x="1542" y="851" type="line"/>
      <point x="1585" y="766"/>
      <point x="1610" y="653"/>
      <point x="1610" y="468" type="curve" smooth="yes"/>
      <point x="1610" y="148"/>
      <point x="1446" y="-30"/>
      <point x="1182" y="-30" type="curve" smooth="yes"/>
      <point x="858" y="-30"/>
      <point x="751" y="200"/>
      <point x="751" y="520" type="curve"/>
      <point x="1020" y="520" type="line"/>
      <point x="1020" y="410"/>
      <point x="1026" y="290"/>
      <point x="1126" y="290" type="curve" smooth="yes"/>
      <point x="1226" y="290"/>
      <point x="1250" y="358"/>
      <point x="1250" y="468" type="curve" smooth="yes"/>
      <point x="1250" y="626"/>
      <point x="1224" y="753"/>
      <point x="1146" y="851" type="curve"/>
    </contour>
  </outline>
</glyph>
<glyph name="uni03D9" format="2">
  <advance width="1200"/>
  <unicode hex="03D9"/>
  <outline>
    <contour>
      <point x="420" y="0" type="line"/>
      <point x="780" y="0" type="line"/>
      <point x="780" y="-300" type="line"/>
      <point x="420" y="-300" type="line"/>
    </contour>
    <contour>
      <point x="410" y="520" type="curve" smooth="yes"/>
      <point x="410" y="390"/>
      <point x="463" y="290"/>
      <point x="600" y="290" type="curve" smooth="yes"/>
      <point x="737" y="290"/>
      <point x="790" y="383"/>
      <point x="790" y="520" type="curve" smooth="yes"/>
      <point x="790" y="657"/>
      <point x="737" y="750"/>
      <point x="600" y="750" type="curve" smooth="yes"/>
      <point x="463" y="750"/>
      <point x="410" y="657"/>
    </contour>
    <contour>
      <point x="50" y="520" type="curve" smooth="yes"/>
      <point x="50" y="840"/>
      <point x="280" y="1070"/>
      <point x="600" y="1070" type="curve" smooth="yes"/>
      <point x="920" y="1070"/>
      <point x="1150" y="840"/>
      <point x="1150" y="520" type="curve" smooth="yes"/>
      <point x="1150" y="200"/>
      <point x="920" y="-30"/>
      <point x="600" y="-30" type="curve" smooth="yes"/>
      <point x="280" y="-30"/>
      <point x="50" y="200"/>
    </contour>
  </outline>
</glyph>
<glyph name="uni03DE" format="2">
  <advance width="1653"/>
  <unicode hex="03DE"/>
  <outline>
    <contour>
      <point x="1220" y="490" type="curve" smooth="yes"/>
      <point x="1220" y="350"/>
      <point x="1270" y="290"/>
      <point x="1360" y="290" type="curve" smooth="yes"/>
      <point x="1420" y="290"/>
      <point x="1495" y="313"/>
      <point x="1527" y="345" type="curve"/>
      <point x="1618" y="22" type="line"/>
      <point x="1562" y="-2"/>
      <point x="1477" y="-30"/>
      <point x="1356" y="-30" type="curve" smooth="yes"/>
      <point x="1023" y="-30"/>
      <point x="910" y="180"/>
      <point x="910" y="490" type="curve" smooth="yes"/>
      <point x="910" y="740"/>
      <point x="1070" y="1040"/>
      <point x="1070" y="1040" type="curve"/>
      <point x="1430" y="1040" type="line"/>
      <point x="1430" y="1040"/>
      <point x="1220" y="790"/>
    </contour>
    <contour>
      <point x="433" y="990" type="curve" smooth="yes"/>
      <point x="433" y="1130"/>
      <point x="383" y="1190"/>
      <point x="293" y="1190" type="curve" smooth="yes"/>
      <point x="233" y="1190"/>
      <point x="158" y="1167"/>
      <point x="126" y="1135" type="curve"/>
      <point x="35" y="1458" type="line"/>
      <point x="91" y="1482"/>
      <point x="176" y="1510"/>
      <point x="297" y="1510" type="curve" smooth="yes"/>
      <point x="630" y="1510"/>
      <point x="743" y="1300"/>
      <point x="743" y="990" type="curve" smooth="yes"/>
      <point x="743" y="740"/>
      <point x="583" y="440"/>
      <point x="583" y="440" type="curve"/>
      <point x="223" y="440" type="line"/>
      <point x="223" y="440"/>
      <point x="433" y="690"/>
    </contour>
    <contour>
      <point x="1320" y="1344" type="line"/>
      <point x="1430" y="1040" type="line"/>
      <point x="333" y="136" type="line"/>
      <point x="223" y="440" type="line"/>
    </contour>
  </outline>
</glyph>
<glyph name="uni03EA" format="2">
  <advance width="1210"/>
  <unicode hex="03EA"/>
  <outline>
    <contour>
      <point x="968" y="1510" type="curve" smooth="yes"/>
      <point x="796" y="1510"/>
      <point x="692" y="1461"/>
      <point x="614" y="1379" type="curve" smooth="yes"/>
      <point x="605" y="1369" type="line"/>
      <point x="596" y="1379" type="line" smooth="yes"/>
      <point x="518" y="1461"/>
      <point x="414" y="1510"/>
      <point x="242" y="1510" type="curve" smooth="yes"/>
      <point x="121" y="1510"/>
      <point x="91" y="1489"/>
      <point x="35" y="1465" type="curve"/>
      <point x="131" y="1135" type="line"/>
      <point x="163" y="1167"/>
      <point x="182" y="1180"/>
      <point x="242" y="1180" type="curve" smooth="yes"/>
      <point x="302" y="1180"/>
      <point x="347" y="1126"/>
      <point x="381" y="1074" type="curve" smooth="yes"/>
      <point x="406" y="1036" type="line"/>
      <point x="41" y="304" type="line"/>
      <point x="41" y="0" type="line"/>
      <point x="1169" y="0" type="line"/>
      <point x="1169" y="304" type="line"/>
      <point x="804" y="1036" type="line"/>
      <point x="829" y="1074" type="line" smooth="yes"/>
      <point x="863" y="1126"/>
      <point x="908" y="1180"/>
      <point x="968" y="1180" type="curve" smooth="yes"/>
      <point x="1028" y="1180"/>
      <point x="1047" y="1167"/>
      <point x="1079" y="1135" type="curve"/>
      <point x="1175" y="1465" type="line"/>
      <point x="1119" y="1489"/>
      <point x="1089" y="1510"/>
    </contour>
    <contour>
      <point x="605" y="658" type="line"/>
      <point x="756" y="336" type="line"/>
      <point x="454" y="336" type="line"/>
    </contour>
  </outline>
</glyph>
<glyph name="uni03F2" format="2">
  <advance width="1139"/>
  <unicode hex="03F2"/>
  <outline>
    <contour>
      <point x="410" y="520" type="curve" smooth="yes"/>
      <point x="410" y="383"/>
      <point x="465" y="290"/>
      <point x="602" y="290" type="curve" smooth="yes"/>
      <point x="706" y="290"/>
      <point x="761" y="344"/>
      <point x="782" y="430" type="curve"/>
      <point x="1089" y="252" type="line"/>
      <point x="1001" y="79"/>
      <point x="823" y="-30"/>
      <point x="602" y="-30" type="curve" smooth="yes"/>
      <point x="282" y="-30"/>
      <point x="50" y="200"/>
      <point x="50" y="520" type="curve" smooth="yes"/>
      <point x="50" y="840"/>
      <point x="280" y="1070"/>
      <point x="600" y="1070" type="curve" smooth="yes"/>
      <point x="821" y="1070"/>
      <point x="999" y="961"/>
      <point x="1087" y="788" type="curve"/>
      <point x="780" y="610" type="line"/>
      <point x="759" y="696"/>
      <point x="704" y="750"/>
      <point x="600" y="750" type="curve" smooth="yes"/>
      <point x="463" y="750"/>
      <point x="410" y="657"/>
    </contour>
  </outline>
</glyph>
<glyph name="uni03F4" format="2">
  <advance width="1620"/>
  <unicode hex="03F4"/>
  <outline>
    <contour>
      <point x="313" y="908" type="line"/>
      <point x="812" y="908" type="line"/>
      <point x="1301" y="908" type="line"/>
      <point x="1301" y="572" type="line"/>
      <point x="812" y="572" type="line"/>
      <point x="313" y="572" type="line"/>
    </contour>
    <component base="O"/>
  </outline>
</glyph>
<glyph name="uni03FC" format="2">
  <advance width="1360"/>
  <unicode hex="03FC"/>
  <outline>
    <contour>
      <point x="850" y="-341" type="line"/>
      <point x="0" y="-341" type="line"/>
      <point x="0" y="-295"/>
      <point x="0" y="-147"/>
      <point x="0" y="-101" type="curve"/>
      <point x="850" y="-101" type="line"/>
    </contour>
    <contour>
      <point x="210" y="520" type="line" smooth="yes"/>
      <point x="210" y="840"/>
      <point x="440" y="1070"/>
      <point x="760" y="1070" type="curve" smooth="yes"/>
      <point x="1080" y="1070"/>
      <point x="1310" y="840"/>
      <point x="1310" y="520" type="curve" smooth="yes"/>
      <point x="1310" y="200"/>
      <point x="1080" y="-30"/>
      <point x="760" y="-30" type="curve" smooth="yes"/>
      <point x="692" y="-30"/>
      <point x="602" y="14"/>
      <point x="570" y="60" type="curve"/>
      <point x="570" y="-440" type="line"/>
      <point x="210" y="-440" type="line"/>
    </contour>
    <contour>
      <point x="570" y="520" type="curve" smooth="yes"/>
      <point x="570" y="390"/>
      <point x="623" y="290"/>
      <point x="760" y="290" type="curve" smooth="yes"/>
      <point x="897" y="290"/>
      <point x="950" y="383"/>
      <point x="950" y="520" type="curve" smooth="yes"/>
      <point x="950" y="657"/>
      <point x="897" y="750"/>
      <point x="760" y="750" type="curve" smooth="yes"/>
      <point x="623" y="750"/>
      <point x="570" y="657"/>
    </contour>
  </outline>
</glyph>
<glyph name="uni0416" format="2">
  <advance width="2220"/>
  <unicode hex="0416"/>
  <anchor x="1112" y="0" name="bottom_cedilla"/>
  <anchor x="1110" y="1380" name="top_center"/>
  <outline>
    <contour>
      <point x="996" y="908" type="line"/>
      <point x="692" y="908" type="line"/>
      <point x="692" y="572" type="line"/>
      <point x="996" y="572" type="line"/>
    </contour>
    <contour>
      <point x="873" y="623" type="line"/>
      <point x="946" y="740" type="line"/>
      <point x="830" y="907" type="line"/>
      <point x="463" y="1480" type="line"/>
      <point x="35" y="1480" type="line"/>
      <point x="522" y="740" type="line"/>
      <point x="35" y="0" type="line"/>
      <point x="463" y="0" type="line"/>
    </contour>
    <contour>
      <point x="1224" y="908" type="line"/>
      <point x="1224" y="572" type="line"/>
      <point x="1528" y="572" type="line"/>
      <point x="1528" y="908" type="line"/>
    </contour>
    <contour>
      <point x="1300" y="490" type="line"/>
      <point x="1300" y="1480" type="line"/>
      <point x="920" y="1480" type="line"/>
      <point x="920" y="0" type="line"/>
      <point x="1300" y="0" type="line"/>
    </contour>
    <contour>
      <point x="1347" y="623" type="line"/>
      <point x="1757" y="0" type="line"/>
      <point x="2185" y="0" type="line"/>
      <point x="1698" y="740" type="line"/>
      <point x="2185" y="1480" type="line"/>
      <point x="1757" y="1480" type="line"/>
      <point x="1390" y="907" type="line"/>
      <point x="1274" y="740" type="line"/>
    </contour>
  </outline>
</glyph>
<glyph name="uni042E" format="2">
  <advance width="2210"/>
  <unicode hex="042E"/>
  <anchor x="1099" y="1380" name="top_center"/>
  <anchor x="1099" y="0" name="bottom_center"/>
  <outline>
    <contour>
      <point x="450" y="908" type="line"/>
      <point x="450" y="572" type="line"/>
      <point x="771" y="572" type="line"/>
      <point x="771" y="908" type="line"/>
    </contour>
    <contour>
      <point x="450" y="490" type="line"/>
      <point x="450" y="1480" type="line"/>
      <point x="70" y="1480" type="line"/>
      <point x="70" y="0" type="line"/>
      <point x="450" y="0" type="line"/>
    </contour>
    <contour>
      <point x="1020" y="740" type="curve" smooth="yes"/>
      <point x="1020" y="990"/>
      <point x="1150" y="1174"/>
      <point x="1400" y="1174" type="curve" smooth="yes"/>
      <point x="1650" y="1174"/>
      <point x="1780" y="990"/>
      <point x="1780" y="740" type="curve" smooth="yes"/>
      <point x="1780" y="490"/>
      <point x="1650" y="306"/>
      <point x="1400" y="306" type="curve" smooth="yes"/>
      <point x="1150" y="306"/>
      <point x="1020" y="490"/>
    </contour>
    <contour>
      <point x="640" y="740" type="curve" smooth="yes"/>
      <point x="640" y="290"/>
      <point x="940" y="-30"/>
      <point x="1400" y="-30" type="curve" smooth="yes"/>
      <point x="1860" y="-30"/>
      <point x="2160" y="290"/>
      <point x="2160" y="740" type="curve" smooth="yes"/>
      <point x="2160" y="1190"/>
      <point x="1860" y="1510"/>
      <point x="1400" y="1510" type="curve" smooth="yes"/>
      <point x="940" y="1510"/>
      <point x="640" y="1190"/>
    </contour>
  </outline>
</glyph>
<glyph name="uni0434" format="2">
  <advance width="1268"/>
  <unicode hex="0434"/>
  <anchor x="687" y="0" name="bottom_center"/>
  <anchor x="687" y="1040" name="top_center"/>
  <outline>
    <contour>
      <point x="783" y="320" type="line"/>
      <point x="1233" y="320" type="line"/>
      <point x="1233" y="-300" type="line"/>
      <point x="873" y="-300" type="line"/>
      <point x="873" y="0" type="line"/>
      <point x="783" y="0" type="line"/>
    </contour>
    <contour>
      <point x="5" y="-300" type="line"/>
      <point x="5" y="320" type="line"/>
      <point x="365" y="320" type="line"/>
      <point x="365" y="-300" type="line"/>
    </contour>
    <contour>
      <point x="246" y="320" type="line"/>
      <point x="763" y="320" type="line"/>
      <point x="763" y="0" type="line"/>
      <point x="246" y="0" type="line"/>
    </contour>
    <contour>
      <point x="1103" y="1040" type="line"/>
      <point x="1103" y="0" type="line"/>
      <point x="743" y="0" type="line"/>
      <point x="743" y="720" type="line"/>
      <point x="611" y="720" type="line"/>
      <point x="583" y="450" type="line" smooth="yes"/>
      <point x="555" y="158"/>
      <point x="404" y="0"/>
      <point x="35" y="0" type="curve" smooth="yes"/>
      <point x="35" y="320" type="line"/>
      <point x="147" y="320"/>
      <point x="219" y="356"/>
      <point x="230" y="450" type="curve" smooth="yes"/>
      <point x="301" y="1040" type="line"/>
    </contour>
  </outline>
</glyph>
<glyph name="uni043B" format="2">
  <advance width="1143"/>
  <unicode hex="043B"/>
  <anchor x="672" y="0" name="bottom_center"/>
  <anchor x="672" y="1040" name="top_center"/>
  <outline>
    <contour>
      <point x="1073" y="1040" type="line"/>
      <point x="1073" y="0" type="line"/>
      <point x="713" y="0" type="line"/>
      <point x="713" y="720" type="line"/>
      <point x="581" y="720" type="line"/>
      <point x="553" y="420" type="line" smooth="yes"/>
      <point x="525" y="128"/>
      <point x="374" y="-30"/>
      <point x="5" y="-30" type="curve" smooth="yes"/>
      <point x="5" y="290" type="line"/>
      <point x="117" y="290"/>
      <point x="189" y="326"/>
      <point x="200" y="420" type="curve" smooth="yes"/>
      <point x="271" y="1040" type="line"/>
    </contour>
  </outline>
</glyph>
<glyph name="uni0464" format="2">
  <advance width="2125"/>
  <unicode hex="0464"/>
  <outline>
    <contour>
      <point x="903" y="908" type="line"/>
      <point x="903" y="572" type="line"/>
      <point x="1402" y="572" type="line"/>
      <point x="1655" y="572" type="line"/>
      <point x="1655" y="908" type="line"/>
      <point x="1402" y="908" type="line"/>
    </contour>
    <contour>
      <point x="1400" y="1174" type="curve" smooth="yes"/>
      <point x="1581" y="1174"/>
      <point x="1699" y="1078"/>
      <point x="1750" y="930" type="curve"/>
      <point x="2075" y="1120" type="line"/>
      <point x="1955" y="1360"/>
      <point x="1715" y="1510"/>
      <point x="1400" y="1510" type="curve" smooth="yes"/>
      <point x="940" y="1510"/>
      <point x="640" y="1190"/>
      <point x="640" y="740" type="curve" smooth="yes"/>
      <point x="640" y="290"/>
      <point x="940" y="-30"/>
      <point x="1400" y="-30" type="curve" smooth="yes"/>
      <point x="1715" y="-30"/>
      <point x="1955" y="120"/>
      <point x="2075" y="360" type="curve"/>
      <point x="1750" y="550" type="line"/>
      <point x="1699" y="402"/>
      <point x="1581" y="306"/>
      <point x="1400" y="306" type="curve" smooth="yes"/>
      <point x="1150" y="306"/>
      <point x="1020" y="490"/>
      <point x="1020" y="740" type="curve" smooth="yes"/>
      <point x="1020" y="990"/>
      <point x="1150" y="1174"/>
    </contour>
    <contour>
      <point x="450" y="908" type="line"/>
      <point x="450" y="572" type="line"/>
      <point x="771" y="572" type="line"/>
      <point x="771" y="908" type="line"/>
    </contour>
    <contour>
      <point x="450" y="490" type="line"/>
      <point x="450" y="1480" type="line"/>
      <point x="70" y="1480" type="line"/>
      <point x="70" y="0" type="line"/>
      <point x="450" y="0" type="line"/>
    </contour>
  </outline>
</glyph>
<glyph name="uni046C" format="2">
  <advance width="2366"/>
  <unicode hex="046C"/>
  <outline>
    <contour>
      <point x="450" y="908" type="line"/>
      <point x="1469" y="908" type="line"/>
      <point x="1469" y="572" type="line"/>
      <point x="450" y="572" type="line"/>
    </contour>
    <contour>
      <point x="450" y="490" type="line"/>
      <point x="450" y="0" type="line"/>
      <point x="70" y="0" type="line"/>
      <point x="70" y="1480" type="line"/>
      <point x="450" y="1480" type="line"/>
    </contour>
    <contour>
      <point x="2296" y="232" type="curve"/>
      <point x="2296" y="52"/>
      <point x="2296" y="0"/>
      <point x="2296" y="0" type="curve"/>
      <point x="1916" y="0" type="line"/>
      <point x="1916" y="0"/>
      <point x="1916" y="50"/>
      <point x="1916" y="232" type="curve"/>
      <point x="1916" y="452"/>
      <point x="1724" y="572"/>
      <point x="1468" y="572" type="curve" smooth="yes"/>
      <point x="1212" y="572"/>
      <point x="1020" y="452"/>
      <point x="1020" y="232" type="curve"/>
      <point x="1020" y="52"/>
      <point x="1020" y="0"/>
      <point x="1020" y="0" type="curve"/>
      <point x="640" y="0" type="line"/>
      <point x="640" y="0"/>
      <point x="640" y="50"/>
      <point x="640" y="232" type="curve"/>
      <point x="640" y="592"/>
      <point x="973" y="908"/>
      <point x="1469" y="908" type="curve" smooth="yes"/>
      <point x="1965" y="908"/>
      <point x="2296" y="592"/>
    </contour>
    <contour>
      <point x="1073" y="1144" type="line"/>
      <point x="1145" y="1480" type="line"/>
      <point x="1791" y="1480" type="line"/>
      <point x="1883" y="1144" type="line"/>
    </contour>
    <contour>
      <point x="1278" y="0" type="line"/>
      <point x="1278" y="740" type="line"/>
      <point x="1658" y="740" type="line"/>
      <point x="1658" y="0" type="line"/>
    </contour>
    <contour>
      <point x="1585" y="628" type="line"/>
      <point x="1351" y="666" type="line"/>
      <point x="717" y="1480" type="line"/>
      <point x="1145" y="1480" type="line"/>
      <point x="1468" y="1008" type="line"/>
      <point x="1791" y="1480" type="line"/>
      <point x="2219" y="1480" type="line"/>
    </contour>
  </outline>
</glyph>
<glyph name="uni046D" format="2">
  <advance width="1916"/>
  <unicode hex="046D"/>
  <outline>
    <contour>
      <point x="70" y="1040" type="line"/>
      <point x="430" y="1040" type="line"/>
      <point x="430" y="0" type="line"/>
      <point x="70" y="0" type="line"/>
    </contour>
    <contour>
      <point x="430" y="680" type="line"/>
      <point x="1176" y="680" type="line"/>
      <point x="1176" y="360" type="line"/>
      <point x="430" y="360" type="line"/>
    </contour>
    <contour>
      <point x="1846" y="148" type="curve"/>
      <point x="1846" y="21"/>
      <point x="1846" y="0"/>
      <point x="1846" y="0" type="curve"/>
      <point x="1486" y="0" type="line"/>
      <point x="1486" y="0"/>
      <point x="1486" y="19"/>
      <point x="1486" y="148" type="curve"/>
      <point x="1486" y="249"/>
      <point x="1450" y="360"/>
      <point x="1228" y="360" type="curve" smooth="yes"/>
      <point x="1006" y="360"/>
      <point x="970" y="239"/>
      <point x="970" y="148" type="curve"/>
      <point x="970" y="21"/>
      <point x="970" y="0"/>
      <point x="970" y="0" type="curve"/>
      <point x="610" y="0" type="line"/>
      <point x="610" y="0"/>
      <point x="610" y="19"/>
      <point x="610" y="148" type="curve"/>
      <point x="610" y="397"/>
      <point x="861" y="680"/>
      <point x="1228" y="680" type="curve" smooth="yes"/>
      <point x="1595" y="680"/>
      <point x="1846" y="397"/>
    </contour>
    <contour>
      <point x="935" y="780" type="line"/>
      <point x="1017" y="1040" type="line"/>
      <point x="1439" y="1040" type="line"/>
      <point x="1547" y="780" type="line"/>
    </contour>
    <contour>
      <point x="1048" y="0" type="line"/>
      <point x="1048" y="523" type="line"/>
      <point x="1408" y="523" type="line"/>
      <point x="1408" y="0" type="line"/>
    </contour>
    <contour>
      <point x="1375" y="435" type="line"/>
      <point x="1327" y="443"/>
      <point x="1123" y="451"/>
      <point x="1063" y="461" type="curve"/>
      <point x="635" y="1040" type="line"/>
      <point x="1017" y="1040" type="line"/>
      <point x="1228" y="680" type="line"/>
      <point x="1439" y="1040" type="line"/>
      <point x="1821" y="1040" type="line"/>
    </contour>
  </outline>
</glyph>
<glyph name="uni046E" format="2">
  <advance width="1353"/>
  <unicode hex="046E"/>
  <outline>
    <contour>
      <point x="697" y="1428" type="line"/>
      <point x="420" y="1886" type="line"/>
      <point x="133" y="1886" type="line"/>
      <point x="427" y="1426" type="line"/>
    </contour>
    <contour>
      <point x="1088" y="1916" type="curve" smooth="yes"/>
      <point x="971" y="1916"/>
      <point x="857" y="1857"/>
      <point x="769" y="1701" type="curve"/>
      <point x="610" y="1436" type="line"/>
      <point x="854" y="1426" type="line"/>
      <point x="966" y="1608" type="line"/>
      <point x="996" y="1662"/>
      <point x="1043" y="1690"/>
      <point x="1094" y="1690" type="curve" smooth="yes"/>
      <point x="1160" y="1690"/>
      <point x="1210" y="1652"/>
      <point x="1210" y="1652" type="curve"/>
      <point x="1291" y="1840" type="line"/>
      <point x="1291" y="1840"/>
      <point x="1205" y="1916"/>
    </contour>
    <contour>
      <point x="649" y="-30" type="curve" smooth="yes"/>
      <point x="1029" y="-30"/>
      <point x="1303" y="120"/>
      <point x="1303" y="453" type="curve" smooth="yes"/>
      <point x="1303" y="695"/>
      <point x="1083" y="781"/>
      <point x="1083" y="781" type="curve"/>
      <point x="1083" y="781"/>
      <point x="1249" y="829"/>
      <point x="1249" y="1058" type="curve" smooth="yes"/>
      <point x="1249" y="1341"/>
      <point x="999" y="1510"/>
      <point x="649" y="1510" type="curve" smooth="yes"/>
      <point x="337" y="1510"/>
      <point x="95" y="1377"/>
      <point x="50" y="1150" type="curve"/>
      <point x="421" y="1050" type="line" smooth="yes"/>
      <point x="421" y="1130"/>
      <point x="514" y="1174"/>
      <point x="649" y="1174" type="curve" smooth="yes"/>
      <point x="784" y="1174"/>
      <point x="869" y="1130"/>
      <point x="869" y="1050" type="curve" smooth="yes"/>
      <point x="869" y="970"/>
      <point x="794" y="936"/>
      <point x="649" y="936" type="curve" smooth="yes"/>
      <point x="535" y="936" type="line"/>
      <point x="535" y="616" type="line"/>
      <point x="649" y="616" type="line" smooth="yes"/>
      <point x="829" y="616"/>
      <point x="923" y="561"/>
      <point x="923" y="461" type="curve" smooth="yes"/>
      <point x="923" y="361"/>
      <point x="809" y="306"/>
      <point x="649" y="306" type="curve" smooth="yes"/>
      <point x="213" y="306"/>
      <point x="71" y="98"/>
      <point x="71" y="-82" type="curve" smooth="yes"/>
      <point x="71" y="-262"/>
      <point x="207" y="-470"/>
      <point x="573" y="-470" type="curve" smooth="yes"/>
      <point x="813" y="-470"/>
      <point x="835" y="-378"/>
      <point x="955" y="-378" type="curve" smooth="yes"/>
      <point x="1055" y="-378"/>
      <point x="1115" y="-396"/>
      <point x="1216" y="-470" type="curve"/>
      <point x="1303" y="-149" type="line"/>
      <point x="1201" y="-94"/>
      <point x="1075" y="-42"/>
      <point x="955" y="-42" type="curve" smooth="yes"/>
      <point x="765" y="-42"/>
      <point x="740" y="-134"/>
      <point x="573" y="-134" type="curve" smooth="yes"/>
      <point x="487" y="-134"/>
      <point x="451" y="-122"/>
      <point x="451" y="-82" type="curve" smooth="yes"/>
      <point x="451" y="-42"/>
      <point x="563" y="-30"/>
    </contour>
  </outline>
</glyph>
<glyph name="uni047B" format="2">
  <advance width="1380"/>
  <unicode hex="047B"/>
  <outline>
    <contour>
      <point x="460" y="138" type="curve" smooth="yes"/>
      <point x="460" y="271"/>
      <point x="567" y="378"/>
      <point x="700" y="378" type="curve" smooth="yes"/>
      <point x="833" y="378"/>
      <point x="940" y="271"/>
      <point x="940" y="138" type="curve" smooth="yes"/>
      <point x="940" y="5"/>
      <point x="833" y="-102"/>
      <point x="700" y="-102" type="curve" smooth="yes"/>
      <point x="567" y="-102"/>
      <point x="460" y="5"/>
    </contour>
    <contour>
      <point x="450" y="910" type="curve" smooth="yes"/>
      <point x="450" y="1043"/>
      <point x="557" y="1150"/>
      <point x="690" y="1150" type="curve" smooth="yes"/>
      <point x="823" y="1150"/>
      <point x="930" y="1043"/>
      <point x="930" y="910" type="curve" smooth="yes"/>
      <point x="930" y="777"/>
      <point x="823" y="670"/>
      <point x="690" y="670" type="curve" smooth="yes"/>
      <point x="557" y="670"/>
      <point x="450" y="777"/>
    </contour>
    <contour>
      <point x="780" y="750" type="curve" smooth="yes"/>
      <point x="780" y="1070" type="line" smooth="yes"/>
      <point x="1100" y="1070"/>
      <point x="1330" y="840"/>
      <point x="1330" y="520" type="curve" smooth="yes"/>
      <point x="1330" y="200"/>
      <point x="1100" y="-30"/>
      <point x="780" y="-30" type="curve" smooth="yes"/>
      <point x="780" y="290" type="line" smooth="yes"/>
      <point x="917" y="290"/>
      <point x="970" y="390"/>
      <point x="970" y="520" type="curve" smooth="yes"/>
      <point x="970" y="657"/>
      <point x="917" y="750"/>
    </contour>
    <contour>
      <point x="600" y="750" type="line" smooth="yes"/>
      <point x="463" y="750"/>
      <point x="410" y="657"/>
      <point x="410" y="520" type="curve" smooth="yes"/>
      <point x="410" y="390"/>
      <point x="463" y="290"/>
      <point x="600" y="290" type="curve" smooth="yes"/>
      <point x="600" y="-30" type="line" smooth="yes"/>
      <point x="280" y="-30"/>
      <point x="50" y="200"/>
      <point x="50" y="520" type="curve" smooth="yes"/>
      <point x="50" y="840"/>
      <point x="280" y="1070"/>
      <point x="600" y="1070" type="curve" smooth="yes"/>
    </contour>
  </outline>
</glyph>
<glyph name="uni047D" format="2">
  <advance width="1808"/>
  <unicode hex="047D"/>
  <outline>
    <contour>
      <point x="1391" y="1114" type="line" smooth="yes"/>
      <point x="1103" y="1114"/>
      <point x="1108" y="1234"/>
      <point x="904" y="1234" type="curve" smooth="yes"/>
      <point x="783" y="1234"/>
      <point x="727" y="1170"/>
      <point x="717" y="1109" type="curve"/>
      <point x="508" y="1165" type="line"/>
      <point x="525" y="1282"/>
      <point x="658" y="1414"/>
      <point x="904" y="1414" type="curve" smooth="yes"/>
      <point x="1192" y="1414"/>
      <point x="1187" y="1294"/>
      <point x="1391" y="1294" type="curve" smooth="yes"/>
    </contour>
    <contour>
      <point x="793" y="857" type="line"/>
      <point x="870" y="869"/>
      <point x="929" y="918"/>
      <point x="929" y="971" type="curve" smooth="yes"/>
      <point x="929" y="997"/>
      <point x="905" y="1054"/>
      <point x="905" y="1054" type="curve"/>
      <point x="904" y="1174" type="line"/>
      <point x="972" y="1174"/>
      <point x="1063" y="1131"/>
      <point x="1063" y="971" type="curve" smooth="yes"/>
      <point x="1063" y="844"/>
      <point x="924" y="746"/>
      <point x="829" y="729" type="curve"/>
    </contour>
    <contour>
      <point x="784" y="1054" type="curve" smooth="yes"/>
      <point x="784" y="1121"/>
      <point x="837" y="1174"/>
      <point x="904" y="1174" type="curve" smooth="yes"/>
      <point x="971" y="1174"/>
      <point x="1024" y="1121"/>
      <point x="1024" y="1054" type="curve" smooth="yes"/>
      <point x="1024" y="987"/>
      <point x="971" y="934"/>
      <point x="904" y="934" type="curve" smooth="yes"/>
      <point x="837" y="934"/>
      <point x="784" y="987"/>
    </contour>
    <contour>
      <point x="583" y="1070" type="line"/>
      <point x="307" y="1070"/>
      <point x="70" y="957"/>
      <point x="70" y="597" type="curve" smooth="yes"/>
      <point x="70" y="468" type="line" smooth="yes"/>
      <point x="70" y="108"/>
      <point x="301" y="-30"/>
      <point x="577" y="-30" type="curve" smooth="yes"/>
      <point x="702" y="-30"/>
      <point x="818" y="-1"/>
      <point x="907" y="63" type="curve"/>
      <point x="998" y="-1"/>
      <point x="1116" y="-30"/>
      <point x="1241" y="-30" type="curve" smooth="yes"/>
      <point x="1517" y="-30"/>
      <point x="1738" y="108"/>
      <point x="1738" y="468" type="curve" smooth="yes"/>
      <point x="1738" y="572" type="line" smooth="yes"/>
      <point x="1738" y="932"/>
      <point x="1507" y="1070"/>
      <point x="1231" y="1070" type="curve"/>
      <point x="1231" y="750" type="line"/>
      <point x="1321" y="750"/>
      <point x="1378" y="692"/>
      <point x="1378" y="572" type="curve" smooth="yes"/>
      <point x="1378" y="468" type="line" smooth="yes"/>
      <point x="1378" y="348"/>
      <point x="1321" y="290"/>
      <point x="1231" y="290" type="curve" smooth="yes"/>
      <point x="1141" y="290"/>
      <point x="1084" y="348"/>
      <point x="1084" y="468" type="curve" smooth="yes"/>
      <point x="1084" y="540" type="line"/>
      <point x="724" y="540" type="line"/>
      <point x="724" y="468" type="line" smooth="yes"/>
      <point x="724" y="348"/>
      <point x="667" y="290"/>
      <point x="577" y="290" type="curve" smooth="yes"/>
      <point x="487" y="290"/>
      <point x="430" y="348"/>
      <point x="430" y="468" type="curve" smooth="yes"/>
      <point x="430" y="597" type="line" smooth="yes"/>
      <point x="430" y="717"/>
      <point x="493" y="750"/>
      <point x="583" y="750" type="curve"/>
    </contour>
  </outline>
</glyph>
<glyph name="uni0485" format="2">
  <advance width="0"/>
  <unicode hex="0485"/>
  <anchor x="642" y="1040" name="_top_center"/>
  <outline>
    <contour>
      <point x="762" y="1427" type="curve" smooth="yes"/>
      <point x="762" y="1494"/>
      <point x="709" y="1547"/>
      <point x="642" y="1547" type="curve" smooth="yes"/>
      <point x="575" y="1547"/>
      <point x="522" y="1494"/>
      <point x="522" y="1427" type="curve" smooth="yes"/>
      <point x="522" y="1360"/>
      <point x="575" y="1307"/>
      <point x="642" y="1307" type="curve" smooth="yes"/>
      <point x="709" y="1307"/>
      <point x="762" y="1360"/>
    </contour>
    <contour>
      <point x="753" y="1230" type="line"/>
      <point x="676" y="1242"/>
      <point x="617" y="1291"/>
      <point x="617" y="1344" type="curve" smooth="yes"/>
      <point x="617" y="1370"/>
      <point x="641" y="1427"/>
      <point x="641" y="1427" type="curve"/>
      <point x="642" y="1547" type="line"/>
      <point x="574" y="1547"/>
      <point x="483" y="1504"/>
      <point x="483" y="1344" type="curve" smooth="yes"/>
      <point x="483" y="1217"/>
      <point x="622" y="1119"/>
      <point x="717" y="1102" type="curve"/>
    </contour>
  </outline>
</glyph>
<glyph name="uni0486" format="2">
  <advance width="0"/>
  <unicode hex="0486"/>
  <anchor x="642" y="1040" name="_top_center"/>
  <outline>
    <contour>
      <point x="522" y="1427" type="curve" smooth="yes"/>
      <point x="522" y="1494"/>
      <point x="575" y="1547"/>
      <point x="642" y="1547" type="curve" smooth="yes"/>
      <point x="709" y="1547"/>
      <point x="762" y="1494"/>
      <point x="762" y="1427" type="curve" smooth="yes"/>
      <point x="762" y="1360"/>
      <point x="709" y="1307"/>
      <point x="642" y="1307" type="curve" smooth="yes"/>
      <point x="575" y="1307"/>
      <point x="522" y="1360"/>
    </contour>
    <contour>
      <point x="531" y="1230" type="line"/>
      <point x="608" y="1242"/>
      <point x="667" y="1291"/>
      <point x="667" y="1344" type="curve" smooth="yes"/>
      <point x="667" y="1370"/>
      <point x="643" y="1427"/>
      <point x="643" y="1427" type="curve"/>
      <point x="642" y="1547" type="line"/>
      <point x="710" y="1547"/>
      <point x="801" y="1504"/>
      <point x="801" y="1344" type="curve" smooth="yes"/>
      <point x="801" y="1217"/>
      <point x="662" y="1119"/>
      <point x="567" y="1102" type="curve"/>
    </contour>
  </outline>
</glyph>
<glyph name="uni0487" format="2">
  <advance width="0"/>
  <unicode hex="0487"/>
  <outline>
    <contour>
      <point x="1039" y="1180" type="line" smooth="yes"/>
      <point x="751" y="1180"/>
      <point x="756" y="1300"/>
      <point x="552" y="1300" type="curve" smooth="yes"/>
      <point x="431" y="1300"/>
      <point x="375" y="1236"/>
      <point x="365" y="1175" type="curve"/>
      <point x="156" y="1231" type="line"/>
      <point x="173" y="1348"/>
      <point x="306" y="1480"/>
      <point x="552" y="1480" type="curve" smooth="yes"/>
      <point x="840" y="1480"/>
      <point x="835" y="1360"/>
      <point x="1039" y="1360" type="curve" smooth="yes"/>
    </contour>
  </outline>
</glyph>
<glyph name="uni048B" format="2">
  <advance width="1309"/>
  <unicode hex="048B"/>
  <outline>
    <contour>
      <point x="813" y="320" type="line"/>
      <point x="813" y="0" type="line"/>
      <point x="858" y="0" type="line"/>
      <point x="777" y="-300" type="line"/>
      <point x="1141" y="-300" type="line"/>
      <point x="1309" y="320" type="line"/>
    </contour>
    <contour>
      <point x="597" y="1194" type="curve" smooth="yes"/>
      <point x="387" y="1194"/>
      <point x="261" y="1340"/>
      <point x="261" y="1480" type="curve"/>
      <point x="519" y="1480" type="line"/>
      <point x="519" y="1450"/>
      <point x="547" y="1404"/>
      <point x="597" y="1404" type="curve" smooth="yes"/>
      <point x="647" y="1404"/>
      <point x="673" y="1450"/>
      <point x="673" y="1480" type="curve"/>
      <point x="933" y="1480" type="line"/>
      <point x="933" y="1340"/>
      <point x="807" y="1194"/>
    </contour>
    <contour>
      <point x="765" y="1040" type="line"/>
      <point x="430" y="582" type="line"/>
      <point x="430" y="1040" type="line"/>
      <point x="70" y="1040" type="line"/>
      <point x="70" y="0" type="line"/>
      <point x="430" y="0" type="line"/>
      <point x="765" y="468" type="line"/>
      <point x="765" y="0" type="line"/>
      <point x="1125" y="0" type="line"/>
      <point x="1125" y="1040" type="line"/>
    </contour>
  </outline>
</glyph>
<glyph name="uni0491" format="2">
  <advance width="979"/>
  <unicode hex="0491"/>
  <outline>
    <contour>
      <point x="529" y="1320" type="line"/>
      <point x="909" y="1320" type="line"/>
      <point x="909" y="1040" type="line"/>
      <point x="529" y="780" type="line"/>
    </contour>
    <contour>
      <point x="70" y="0" type="line"/>
      <point x="70" y="1040" type="line"/>
      <point x="909" y="1040" type="line"/>
      <point x="909" y="720" type="line"/>
      <point x="430" y="720" type="line"/>
      <point x="430" y="0" type="line"/>
    </contour>
  </outline>
</glyph>
<glyph name="uni0498" format="2">
  <advance width="1406"/>
  <unicode hex="0498"/>
  <outline>
    <contour>
      <point x="593" y="-141" type="line"/>
      <point x="601" y="-148"/>
      <point x="625" y="-150"/>
      <point x="635" y="-150" type="curve" smooth="yes"/>
      <point x="673" y="-150"/>
      <point x="702" y="-132"/>
      <point x="702" y="-96" type="curve" smooth="yes"/>
      <point x="702" y="0" type="line"/>
      <point x="970" y="0" type="line"/>
      <point x="970" y="-114" type="line" smooth="yes"/>
      <point x="970" y="-290"/>
      <point x="838" y="-390"/>
      <point x="641" y="-390" type="curve" smooth="yes"/>
      <point x="589" y="-390"/>
      <point x="551" y="-372"/>
      <point x="536" y="-362" type="curve"/>
    </contour>
    <contour>
      <point x="702" y="936" type="line" smooth="yes"/>
      <point x="847" y="936"/>
      <point x="922" y="970"/>
      <point x="922" y="1050" type="curve" smooth="yes"/>
      <point x="922" y="1130"/>
      <point x="837" y="1174"/>
      <point x="702" y="1174" type="curve" smooth="yes"/>
      <point x="567" y="1174"/>
      <point x="474" y="1130"/>
      <point x="474" y="1050" type="curve" smooth="yes"/>
      <point x="103" y="1150" type="line"/>
      <point x="148" y="1377"/>
      <point x="390" y="1510"/>
      <point x="702" y="1510" type="curve" smooth="yes"/>
      <point x="1052" y="1510"/>
      <point x="1302" y="1341"/>
      <point x="1302" y="1058" type="curve" smooth="yes"/>
      <point x="1302" y="829"/>
      <point x="1136" y="781"/>
      <point x="1136" y="781" type="curve"/>
      <point x="1136" y="781"/>
      <point x="1356" y="695"/>
      <point x="1356" y="453" type="curve" smooth="yes"/>
      <point x="1356" y="120"/>
      <point x="1082" y="-30"/>
      <point x="702" y="-30" type="curve" smooth="yes"/>
      <point x="387" y="-30"/>
      <point x="93" y="91"/>
      <point x="50" y="361" type="curve"/>
      <point x="423" y="461" type="line" smooth="yes"/>
      <point x="423" y="361"/>
      <point x="542" y="306"/>
      <point x="702" y="306" type="curve" smooth="yes"/>
      <point x="862" y="306"/>
      <point x="976" y="361"/>
      <point x="976" y="461" type="curve" smooth="yes"/>
      <point x="976" y="561"/>
      <point x="882" y="616"/>
      <point x="702" y="616" type="curve" smooth="yes"/>
      <point x="588" y="616" type="line"/>
      <point x="588" y="936" type="line"/>
    </contour>
  </outline>
</glyph>
<glyph name="uni04A2" format="2">
  <advance width="1637"/>
  <unicode hex="04A2"/>
  <outline>
    <contour>
      <point x="1132" y="336" type="line"/>
      <point x="1602" y="336" type="line"/>
      <point x="1602" y="-300" type="line"/>
      <point x="1222" y="-300" type="line"/>
      <point x="1222" y="0" type="line"/>
      <point x="1132" y="0" type="line"/>
    </contour>
    <contour>
      <point x="70" y="1480" type="line"/>
      <point x="450" y="1480" type="line"/>
      <point x="450" y="908" type="line"/>
      <point x="1032" y="908" type="line"/>
      <point x="1032" y="1480" type="line"/>
      <point x="1412" y="1480" type="line"/>
      <point x="1412" y="0" type="line"/>
      <point x="1032" y="0" type="line"/>
      <point x="1032" y="572" type="line"/>
      <point x="450" y="572" type="line"/>
      <point x="450" y="0" type="line"/>
      <point x="70" y="0" type="line"/>
    </contour>
  </outline>
</glyph>
<glyph name="uni04A7" format="2">
  <advance width="1905"/>
  <unicode hex="04A7"/>
  <outline>
    <contour>
      <point x="1305" y="320" type="curve" smooth="yes"/>
      <point x="1203" y="320"/>
      <point x="1149" y="268"/>
      <point x="1126" y="186" type="curve"/>
      <point x="901" y="476" type="line"/>
      <point x="999" y="579"/>
      <point x="1140" y="640"/>
      <point x="1305" y="640" type="curve" smooth="yes"/>
      <point x="1625" y="640"/>
      <point x="1855" y="410"/>
      <point x="1855" y="90" type="curve" smooth="yes"/>
      <point x="1855" y="-230"/>
      <point x="1625" y="-460"/>
      <point x="1305" y="-460" type="curve" smooth="yes"/>
      <point x="1305" y="-140" type="line" smooth="yes"/>
      <point x="1442" y="-140"/>
      <point x="1495" y="-47"/>
      <point x="1495" y="90" type="curve" smooth="yes"/>
      <point x="1495" y="227"/>
      <point x="1442" y="320"/>
    </contour>
    <contour>
      <point x="70" y="1040" type="line"/>
      <point x="286" y="1040" type="line"/>
      <point x="910" y="1040" type="line"/>
      <point x="1126" y="1040" type="line"/>
      <point x="1126" y="0" type="line"/>
      <point x="766" y="0" type="line"/>
      <point x="766" y="720" type="line"/>
      <point x="430" y="720" type="line"/>
      <point x="430" y="0" type="line"/>
      <point x="70" y="0" type="line"/>
    </contour>
  </outline>
</glyph>
<glyph name="uni04B0" format="2">
  <advance width="1572"/>
  <unicode hex="04B0"/>
  <outline>
    <contour>
      <point x="1206" y="336" type="line"/>
      <point x="366" y="336" type="line"/>
      <point x="366" y="382"/>
      <point x="366" y="530"/>
      <point x="366" y="576" type="curve"/>
      <point x="1206" y="576" type="line"/>
    </contour>
    <component base="Y"/>
  </outline>
</glyph>
<glyph name="uni04B8" format="2">
  <advance width="1344"/>
  <unicode hex="04B8"/>
  <outline>
    <contour>
      <point x="572" y="1260" type="line"/>
      <point x="762" y="1260" type="line"/>
      <point x="762" y="220" type="line"/>
      <point x="572" y="220" type="line"/>
    </contour>
    <contour>
      <point x="667" y="570" type="curve" smooth="yes"/>
      <point x="308" y="570"/>
      <point x="70" y="731"/>
      <point x="70" y="1151" type="curve"/>
      <point x="70" y="1480" type="line"/>
      <point x="450" y="1480" type="line"/>
      <point x="450" y="1151" type="line" smooth="yes"/>
      <point x="450" y="993"/>
      <point x="509" y="906"/>
      <point x="667" y="906" type="curve" smooth="yes"/>
      <point x="925" y="906"/>
      <point x="980" y="1054"/>
      <point x="980" y="1054" type="curve"/>
      <point x="1170" y="795" type="line"/>
      <point x="1170" y="795"/>
      <point x="1086" y="570"/>
    </contour>
    <contour>
      <point x="894" y="0" type="line"/>
      <point x="894" y="1480" type="line"/>
      <point x="1274" y="1480" type="line"/>
      <point x="1274" y="0" type="line"/>
    </contour>
  </outline>
</glyph>
<glyph name="uni04BA" format="2">
  <advance width="1344"/>
  <unicode hex="04BA"/>
  <outline>
    <contour>
      <point x="677" y="910" type="curve" smooth="yes"/>
      <point x="1036" y="910"/>
      <point x="1274" y="749"/>
      <point x="1274" y="329" type="curve"/>
      <point x="1274" y="0" type="line"/>
      <point x="894" y="0" type="line"/>
      <point x="894" y="329" type="line" smooth="yes"/>
      <point x="894" y="487"/>
      <point x="835" y="574"/>
      <point x="677" y="574" type="curve" smooth="yes"/>
      <point x="419" y="574"/>
      <point x="364" y="426"/>
      <point x="364" y="426" type="curve"/>
      <point x="174" y="685" type="line"/>
      <point x="174" y="685"/>
      <point x="258" y="910"/>
    </contour>
    <contour>
      <point x="450" y="1480" type="line"/>
      <point x="450" y="0" type="line"/>
      <point x="70" y="0" type="line"/>
      <point x="70" y="1480" type="line"/>
    </contour>
  </outline>
</glyph>
<glyph name="uni04CF" format="2">
  <advance width="530"/>
  <unicode hex="04CF"/>
  <outline>
    <contour>
      <point x="70" y="0" type="line"/>
      <point x="70" y="1480" type="line"/>
      <point x="460" y="1480" type="line"/>
      <point x="460" y="0" type="line"/>
    </contour>
  </outline>
</glyph>
<glyph name="uni04F6" format="2">
  <advance width="1219"/>
  <unicode hex="04F6"/>
  <outline>
    <contour>
      <point x="190" y="320" type="line"/>
      <point x="640" y="320" type="line"/>
      <point x="640" y="-300" type="line"/>
      <point x="280" y="-300" type="line"/>
      <point x="280" y="0" type="line"/>
      <point x="190" y="0" type="line"/>
    </contour>
    <contour>
      <point x="450" y="798" type="line"/>
      <point x="450" y="390" type="line"/>
      <point x="450" y="0" type="line"/>
      <point x="70" y="0" type="line"/>
      <point x="70" y="1480" type="line"/>
      <point x="1184" y="1480" type="line"/>
      <point x="1184" y="1144" type="line"/>
      <point x="450" y="1144" type="line"/>
    </contour>
  </outline>
</glyph>
<glyph name="uni04FD" format="2">
  <advance width="1212"/>
  <unicode hex="04FD"/>
  <outline>
    <contour>
      <point x="696" y="-77" type="curve"/>
      <point x="696" y="-393" type="line"/>
      <point x="708" y="-394"/>
      <point x="720" y="-394"/>
      <point x="732" y="-394" type="curve" smooth="yes"/>
      <point x="982" y="-394"/>
      <point x="1177" y="-250"/>
      <point x="1177" y="0" type="curve" smooth="yes"/>
      <point x="817" y="0" type="line" smooth="yes"/>
      <point x="817" y="-50"/>
      <point x="782" y="-84"/>
      <point x="732" y="-84" type="curve" smooth="yes"/>
      <point x="719" y="-84"/>
      <point x="707" y="-82"/>
    </contour>
    <contour>
      <point x="349" y="520" type="line"/>
      <point x="35" y="1040" type="line"/>
      <point x="452" y="1040" type="line"/>
      <point x="606" y="743" type="line"/>
      <point x="757" y="1040" type="line"/>
      <point x="1177" y="1040" type="line"/>
      <point x="863" y="520" type="line"/>
      <point x="1177" y="0" type="line"/>
      <point x="757" y="0" type="line"/>
      <point x="604" y="300" type="line"/>
      <point x="455" y="0" type="line"/>
      <point x="35" y="0" type="line"/>
    </contour>
  </outline>
</glyph>
<glyph name="uni0501" format="2">
  <advance width="1031"/>
  <unicode hex="0501"/>
  <outline>
    <contour>
      <point x="601" y="320" type="line"/>
      <point x="488" y="320" type="line" smooth="yes"/>
      <point x="443" y="320"/>
      <point x="410" y="333"/>
      <point x="410" y="378" type="curve" smooth="yes"/>
      <point x="410" y="423"/>
      <point x="443" y="436"/>
      <point x="488" y="436" type="curve" smooth="yes"/>
      <point x="601" y="436" type="line"/>
    </contour>
    <contour>
      <point x="961" y="1040" type="line"/>
      <point x="601" y="1040" type="line"/>
      <point x="601" y="756" type="line"/>
      <point x="488" y="756" type="line" smooth="yes"/>
      <point x="208" y="756"/>
      <point x="50" y="618"/>
      <point x="50" y="378" type="curve" smooth="yes"/>
      <point x="50" y="138"/>
      <point x="208" y="0"/>
      <point x="488" y="0" type="curve" smooth="yes"/>
      <point x="961" y="0" type="line"/>
    </contour>
  </outline>
</glyph>
<glyph name="uni0503" format="2">
  <advance width="1541"/>
  <unicode hex="0503"/>
  <outline>
    <contour>
      <point x="1471" y="729" type="line"/>
      <point x="1471" y="348" type="line"/>
      <point x="1471" y="80"/>
      <point x="1299" y="-26"/>
      <point x="1036" y="-26" type="curve" smooth="yes"/>
      <point x="773" y="-26"/>
      <point x="601" y="80"/>
      <point x="601" y="348" type="curve"/>
      <point x="961" y="348" type="line"/>
      <point x="961" y="312"/>
      <point x="980" y="294"/>
      <point x="1036" y="294" type="curve" smooth="yes"/>
      <point x="1092" y="294"/>
      <point x="1111" y="312"/>
      <point x="1111" y="348" type="curve" smooth="yes"/>
      <point x="1111" y="729" type="line"/>
    </contour>
    <contour>
      <point x="488" y="406" type="line" smooth="yes"/>
      <point x="443" y="406"/>
      <point x="410" y="393"/>
      <point x="410" y="348" type="curve" smooth="yes"/>
      <point x="410" y="303"/>
      <point x="443" y="290"/>
      <point x="488" y="290" type="curve"/>
      <point x="524" y="290" type="line" smooth="yes"/>
      <point x="569" y="290"/>
      <point x="601" y="303"/>
      <point x="601" y="348" type="curve"/>
      <point x="601" y="406" type="line"/>
    </contour>
    <contour>
      <point x="601" y="1040" type="line"/>
      <point x="961" y="1040" type="line"/>
      <point x="961" y="348" type="line" smooth="yes"/>
      <point x="961" y="108"/>
      <point x="803" y="-30"/>
      <point x="523" y="-30" type="curve" smooth="yes"/>
      <point x="488" y="-30" type="line"/>
      <point x="208" y="-30"/>
      <point x="50" y="108"/>
      <point x="50" y="348" type="curve" smooth="yes"/>
      <point x="50" y="588"/>
      <point x="208" y="726"/>
      <point x="488" y="726" type="curve" smooth="yes"/>
      <point x="601" y="726" type="line"/>
    </contour>
  </outline>
</glyph>
<glyph name="uni0505" format="2">
  <advance width="1617"/>
  <unicode hex="0505"/>
  <outline>
    <contour>
      <point x="397" y="674" type="line"/>
      <point x="397" y="414" type="line"/>
      <point x="477" y="414" type="line"/>
      <point x="477" y="674" type="line"/>
    </contour>
    <contour>
      <point x="677" y="314" type="curve"/>
      <point x="677" y="76"/>
      <point x="849" y="-30"/>
      <point x="1112" y="-30" type="curve" smooth="yes"/>
      <point x="1375" y="-30"/>
      <point x="1547" y="76"/>
      <point x="1547" y="344" type="curve"/>
      <point x="1547" y="699" type="line"/>
      <point x="1187" y="699" type="line"/>
      <point x="1187" y="344" type="line" smooth="yes"/>
      <point x="1187" y="308"/>
      <point x="1168" y="290"/>
      <point x="1112" y="290" type="curve" smooth="yes"/>
      <point x="1056" y="290"/>
      <point x="1037" y="308"/>
      <point x="1037" y="344" type="curve"/>
      <point x="1037" y="522"/>
      <point x="885" y="674"/>
      <point x="477" y="674" type="curve" smooth="yes"/>
      <point x="477" y="414" type="line" smooth="yes"/>
      <point x="647" y="414"/>
      <point x="677" y="354"/>
    </contour>
    <contour>
      <point x="50" y="788" type="curve"/>
      <point x="409" y="691" type="line" smooth="yes"/>
      <point x="409" y="723"/>
      <point x="427" y="750"/>
      <point x="477" y="750" type="curve" smooth="yes"/>
      <point x="527" y="750"/>
      <point x="545" y="736"/>
      <point x="545" y="712" type="curve" smooth="yes"/>
      <point x="545" y="688"/>
      <point x="527" y="674"/>
      <point x="477" y="674" type="curve"/>
      <point x="477" y="542" type="line"/>
      <point x="735" y="542"/>
      <point x="905" y="616"/>
      <point x="905" y="774" type="curve" smooth="yes"/>
      <point x="905" y="932"/>
      <point x="735" y="1070"/>
      <point x="477" y="1070" type="curve" smooth="yes"/>
      <point x="219" y="1070"/>
      <point x="75" y="937"/>
    </contour>
  </outline>
</glyph>
<glyph name="uni0509" format="2">
  <advance width="1653"/>
  <unicode hex="0509"/>
  <outline>
    <contour>
      <point x="1073" y="344" type="curve"/>
      <point x="1073" y="1040" type="line"/>
      <point x="271" y="1040" type="line"/>
      <point x="200" y="420" type="line" smooth="yes"/>
      <point x="189" y="326"/>
      <point x="117" y="290"/>
      <point x="5" y="290" type="curve"/>
      <point x="5" y="-30" type="line" smooth="yes"/>
      <point x="374" y="-30"/>
      <point x="525" y="128"/>
      <point x="553" y="420" type="curve" smooth="yes"/>
      <point x="581" y="720" type="line"/>
      <point x="713" y="720" type="line"/>
      <point x="713" y="344" type="line"/>
      <point x="713" y="76"/>
      <point x="885" y="-30"/>
      <point x="1148" y="-30" type="curve" smooth="yes"/>
      <point x="1411" y="-30"/>
      <point x="1583" y="76"/>
      <point x="1583" y="344" type="curve"/>
      <point x="1583" y="699" type="line"/>
      <point x="1223" y="699" type="line"/>
      <point x="1223" y="344" type="line" smooth="yes"/>
      <point x="1223" y="308"/>
      <point x="1204" y="290"/>
      <point x="1148" y="290" type="curve" smooth="yes"/>
      <point x="1092" y="290"/>
      <point x="1073" y="308"/>
    </contour>
  </outline>
</glyph>
<glyph name="uni0513" format="2">
  <advance width="1143"/>
  <unicode hex="0513"/>
  <outline>
    <contour>
      <point x="271" y="1040" type="line"/>
      <point x="200" y="420" type="line" smooth="yes"/>
      <point x="189" y="326"/>
      <point x="117" y="290"/>
      <point x="5" y="290" type="curve"/>
      <point x="5" y="-30" type="line" smooth="yes"/>
      <point x="374" y="-30"/>
      <point x="525" y="128"/>
      <point x="553" y="420" type="curve" smooth="yes"/>
      <point x="581" y="720" type="line"/>
      <point x="713" y="720" type="line"/>
      <point x="713" y="0" type="line" smooth="yes"/>
      <point x="713" y="-50"/>
      <point x="678" y="-84"/>
      <point x="628" y="-84" type="curve" smooth="yes"/>
      <point x="615" y="-84"/>
      <point x="603" y="-82"/>
      <point x="592" y="-77" type="curve"/>
      <point x="592" y="-403" type="line"/>
      <point x="604" y="-404"/>
      <point x="616" y="-404"/>
      <point x="628" y="-404" type="curve" smooth="yes"/>
      <point x="878" y="-404"/>
      <point x="1073" y="-250"/>
      <point x="1073" y="0" type="curve" smooth="yes"/>
      <point x="1073" y="1040" type="line"/>
    </contour>
  </outline>
</glyph>
<glyph name="uni0514" format="2">
  <advance width="2455"/>
  <unicode hex="0514"/>
  <outline>
    <contour>
      <point x="1446" y="1144" type="line"/>
      <point x="724" y="1144" type="line"/>
      <point x="653" y="520" type="line" smooth="yes"/>
      <point x="618" y="121"/>
      <point x="373" y="-30"/>
      <point x="5" y="-30" type="curve" smooth="yes"/>
      <point x="5" y="306" type="line"/>
      <point x="107" y="306"/>
      <point x="258" y="371"/>
      <point x="273" y="520" type="curve" smooth="yes"/>
      <point x="368" y="1480" type="line"/>
      <point x="622" y="1480" type="line"/>
      <point x="1092" y="1480" type="line"/>
      <point x="1346" y="1480" type="line"/>
    </contour>
    <contour>
      <point x="1667" y="487" type="line"/>
      <point x="1346" y="0" type="line"/>
      <point x="918" y="0" type="line"/>
      <point x="1445" y="740" type="line"/>
      <point x="1056" y="1287" type="line"/>
      <point x="1346" y="1480" type="line"/>
      <point x="1669" y="988" type="line"/>
      <point x="1992" y="1480" type="line"/>
      <point x="2420" y="1480" type="line"/>
      <point x="1893" y="740" type="line"/>
      <point x="2420" y="0" type="line"/>
      <point x="1992" y="0" type="line"/>
    </contour>
  </outline>
</glyph>
<glyph name="uni051E" format="2">
  <advance width="1463"/>
  <unicode hex="051E"/>
  <outline>
    <contour>
      <point x="581" y="1310" type="line"/>
      <point x="751" y="1480" type="line"/>
      <point x="1226" y="1005" type="line"/>
      <point x="1056" y="835" type="line"/>
    </contour>
    <contour>
      <point x="453" y="801" type="line"/>
      <point x="792" y="925" type="line"/>
      <point x="1458" y="0" type="line"/>
      <point x="1018" y="0" type="line"/>
    </contour>
    <contour>
      <point x="450" y="450" type="line"/>
      <point x="450" y="0" type="line"/>
      <point x="70" y="0" type="line"/>
      <point x="70" y="1480" type="line"/>
      <point x="450" y="1480" type="line"/>
      <point x="450" y="940" type="line"/>
      <point x="978" y="1480" type="line"/>
      <point x="1050" y="1480"/>
      <point x="1386" y="1480"/>
      <point x="1458" y="1480" type="curve"/>
    </contour>
  </outline>
</glyph>
<glyph name="uni0520" format="2">
  <advance width="2418"/>
  <unicode hex="0520"/>
  <outline>
    <contour>
      <point x="1608" y="714" type="curve" smooth="yes"/>
      <point x="1478" y="714"/>
      <point x="1346" y="662"/>
      <point x="1346" y="552" type="curve"/>
      <point x="1334" y="900" type="line"/>
      <point x="1369" y="961"/>
      <point x="1458" y="1050"/>
      <point x="1608" y="1050" type="curve" smooth="yes"/>
      <point x="2068" y="1050"/>
      <point x="2368" y="730"/>
      <point x="2368" y="280" type="curve" smooth="yes"/>
      <point x="2368" y="-170"/>
      <point x="2068" y="-460"/>
      <point x="1608" y="-460" type="curve"/>
      <point x="1608" y="-154" type="line"/>
      <point x="1858" y="-154"/>
      <point x="1988" y="30"/>
      <point x="1988" y="280" type="curve" smooth="yes"/>
      <point x="1988" y="530"/>
      <point x="1858" y="714"/>
    </contour>
    <contour>
      <point x="5" y="306" type="line"/>
      <point x="107" y="306"/>
      <point x="258" y="371"/>
      <point x="273" y="520" type="curve" smooth="yes"/>
      <point x="368" y="1480" type="line"/>
      <point x="1346" y="1480" type="line"/>
      <point x="1346" y="0" type="line"/>
      <point x="966" y="0" type="line"/>
      <point x="966" y="1144" type="line"/>
      <point x="724" y="1144" type="line"/>
      <point x="653" y="520" type="line" smooth="yes"/>
      <point x="618" y="121"/>
      <point x="373" y="-30"/>
      <point x="5" y="-30" type="curve" smooth="yes"/>
    </contour>
  </outline>
</glyph>
<glyph name="uni0523" format="2">
  <advance width="1904"/>
  <unicode hex="0523"/>
  <outline>
    <contour>
      <point x="1304" y="320" type="curve" smooth="yes"/>
      <point x="1202" y="320"/>
      <point x="1148" y="268"/>
      <point x="1125" y="186" type="curve"/>
      <point x="900" y="476" type="line"/>
      <point x="998" y="579"/>
      <point x="1139" y="640"/>
      <point x="1304" y="640" type="curve" smooth="yes"/>
      <point x="1624" y="640"/>
      <point x="1854" y="410"/>
      <point x="1854" y="90" type="curve" smooth="yes"/>
      <point x="1854" y="-230"/>
      <point x="1624" y="-460"/>
      <point x="1304" y="-460" type="curve" smooth="yes"/>
      <point x="1304" y="-140" type="line" smooth="yes"/>
      <point x="1441" y="-140"/>
      <point x="1494" y="-47"/>
      <point x="1494" y="90" type="curve" smooth="yes"/>
      <point x="1494" y="227"/>
      <point x="1441" y="320"/>
    </contour>
    <contour>
      <point x="70" y="1040" type="line"/>
      <point x="430" y="1040" type="line"/>
      <point x="430" y="680" type="line"/>
      <point x="765" y="680" type="line"/>
      <point x="765" y="1040" type="line"/>
      <point x="1125" y="1040" type="line"/>
      <point x="1125" y="0" type="line"/>
      <point x="765" y="0" type="line"/>
      <point x="765" y="360" type="line"/>
      <point x="430" y="360" type="line"/>
      <point x="430" y="0" type="line"/>
      <point x="70" y="0" type="line"/>
    </contour>
  </outline>
</glyph>
<glyph name="uni052D" format="2">
  <advance width="1270"/>
  <unicode hex="052D"/>
  <outline>
    <contour>
      <point x="38" y="-300" type="line"/>
      <point x="38" y="320" type="line"/>
      <point x="398" y="320" type="line"/>
      <point x="398" y="-300" type="line"/>
    </contour>
    <contour>
      <point x="278" y="320" type="line"/>
      <point x="1055" y="320" type="line"/>
      <point x="1055" y="0" type="line"/>
      <point x="278" y="0" type="line"/>
    </contour>
    <contour>
      <point x="875" y="-300" type="line"/>
      <point x="875" y="320" type="line"/>
      <point x="1235" y="320" type="line"/>
      <point x="1235" y="-300" type="line"/>
    </contour>
    <contour>
      <point x="1105" y="1040" type="line"/>
      <point x="1105" y="0" type="line"/>
      <point x="745" y="0" type="line"/>
      <point x="745" y="720" type="line"/>
      <point x="713" y="720" type="line"/>
      <point x="685" y="450" type="line" smooth="yes"/>
      <point x="657" y="158"/>
      <point x="557" y="1"/>
      <point x="188" y="1" type="curve" smooth="yes"/>
      <point x="187" y="320" type="line"/>
      <point x="299" y="320"/>
      <point x="321" y="356"/>
      <point x="332" y="450" type="curve" smooth="yes"/>
      <point x="403" y="1040" type="line"/>
    </contour>
    <contour>
      <point x="582" y="377" type="curve" smooth="yes"/>
      <point x="302" y="377"/>
      <point x="35" y="516"/>
      <point x="35" y="850" type="curve"/>
      <point x="35" y="1040" type="line"/>
      <point x="335" y="1040" type="line"/>
      <point x="335" y="853" type="line" smooth="yes"/>
      <point x="335" y="699"/>
      <point x="460" y="637"/>
      <point x="594" y="637" type="curve" smooth="yes"/>
      <point x="774" y="637"/>
      <point x="821" y="752"/>
      <point x="821" y="752" type="curve"/>
      <point x="1054" y="525" type="line"/>
      <point x="1054" y="525"/>
      <point x="862" y="377"/>
    </contour>
  </outline>
</glyph>
<glyph name="uni1D58" format="2">
  <advance width="873"/>
  <unicode hex="1D58"/>
  <outline>
    <contour>
      <point x="340" y="1413" type="line"/>
      <point x="340" y="1128" type="line" smooth="yes"/>
      <point x="340" y="1069"/>
      <point x="360" y="1032"/>
      <point x="436" y="1032" type="curve" smooth="yes"/>
      <point x="512" y="1032"/>
      <point x="533" y="1069"/>
      <point x="533" y="1128" type="curve" smooth="yes"/>
      <point x="533" y="1413" type="line"/>
      <point x="803" y="1413" type="line"/>
      <point x="803" y="910" type="line"/>
      <point x="803" y="851"/>
      <point x="817" y="810"/>
      <point x="817" y="810" type="curve"/>
      <point x="560" y="810" type="line"/>
      <point x="560" y="810"/>
      <point x="542" y="843"/>
      <point x="542" y="905" type="curve"/>
      <point x="519" y="859"/>
      <point x="459" y="792"/>
      <point x="358" y="792" type="curve" smooth="yes"/>
      <point x="181" y="792"/>
      <point x="70" y="900"/>
      <point x="70" y="1093" type="curve" smooth="yes"/>
      <point x="70" y="1413" type="line"/>
    </contour>
  </outline>
</glyph>
<glyph name="uni1FEF" format="2">
  <advance width="652"/>
  <unicode hex="1FEF"/>
  <anchor x="439" y="1040" name="_top_center_1F"/>
  <anchor x="717" y="1224" name="_top_left_O2"/>
  <anchor x="716" y="1480" name="_top_left"/>
  <outline>
    <contour>
      <point x="261" y="1224" type="line"/>
      <point x="35" y="1480" type="line"/>
      <point x="439" y="1480" type="line"/>
      <point x="617" y="1224" type="line"/>
    </contour>
  </outline>
</glyph>
<glyph name="figuredash" format="2">
  <advance width="1278"/>
  <unicode hex="2012"/>
  <outline>
    <contour>
      <point x="70" y="500" type="line"/>
      <point x="70" y="820" type="line"/>
      <point x="1208" y="820" type="line"/>
      <point x="1208" y="500" type="line"/>
    </contour>
  </outline>
</glyph>
<glyph name="emdash" format="2">
  <advance width="2048"/>
  <unicode hex="2014"/>
  <outline>
    <contour>
      <point x="70" y="500" type="line"/>
      <point x="70" y="820" type="line"/>
      <point x="1978" y="820" type="line"/>
      <point x="1978" y="500" type="line"/>
    </contour>
  </outline>
</glyph>
<glyph name="perthousand" format="2">
  <advance width="3132"/>
  <unicode hex="2030"/>
  <outline>
    <contour>
      <point x="1602" y="1302" type="line"/>
      <point x="850" y="0" type="line"/>
      <point x="542" y="178" type="line"/>
      <point x="1294" y="1480" type="line"/>
    </contour>
    <contour>
      <point x="2563" y="364" type="curve" smooth="yes"/>
      <point x="2563" y="314"/>
      <point x="2598" y="280"/>
      <point x="2648" y="280" type="curve" smooth="yes"/>
      <point x="2698" y="280"/>
      <point x="2732" y="314"/>
      <point x="2732" y="364" type="curve" smooth="yes"/>
      <point x="2732" y="414"/>
      <point x="2698" y="448"/>
      <point x="2648" y="448" type="curve" smooth="yes"/>
      <point x="2598" y="448"/>
      <point x="2563" y="414"/>
    </contour>
    <contour>
      <point x="2214" y="364" type="curve" smooth="yes"/>
      <point x="2214" y="589"/>
      <point x="2423" y="768"/>
      <point x="2648" y="768" type="curve" smooth="yes"/>
      <point x="2873" y="768"/>
      <point x="3082" y="589"/>
      <point x="3082" y="364" type="curve" smooth="yes"/>
      <point x="3082" y="139"/>
      <point x="2873" y="-40"/>
      <point x="2648" y="-40" type="curve" smooth="yes"/>
      <point x="2423" y="-40"/>
      <point x="2214" y="139"/>
    </contour>
    <contour>
      <point x="399" y="1116" type="curve" smooth="yes"/>
      <point x="399" y="1066"/>
      <point x="434" y="1032"/>
      <point x="484" y="1032" type="curve" smooth="yes"/>
      <point x="534" y="1032"/>
      <point x="568" y="1066"/>
      <point x="568" y="1116" type="curve" smooth="yes"/>
      <point x="568" y="1166"/>
      <point x="534" y="1200"/>
      <point x="484" y="1200" type="curve" smooth="yes"/>
      <point x="434" y="1200"/>
      <point x="399" y="1166"/>
    </contour>
    <contour>
      <point x="50" y="1116" type="curve" smooth="yes"/>
      <point x="50" y="1341"/>
      <point x="259" y="1520"/>
      <point x="484" y="1520" type="curve" smooth="yes"/>
      <point x="709" y="1520"/>
      <point x="918" y="1341"/>
      <point x="918" y="1116" type="curve" smooth="yes"/>
      <point x="918" y="891"/>
      <point x="709" y="712"/>
      <point x="484" y="712" type="curve" smooth="yes"/>
      <point x="259" y="712"/>
      <point x="50" y="891"/>
    </contour>
    <contour>
      <point x="1575" y="364" type="curve" smooth="yes"/>
      <point x="1575" y="314"/>
      <point x="1610" y="280"/>
      <point x="1660" y="280" type="curve" smooth="yes"/>
      <point x="1710" y="280"/>
      <point x="1744" y="314"/>
      <point x="1744" y="364" type="curve" smooth="yes"/>
      <point x="1744" y="414"/>
      <point x="1710" y="448"/>
      <point x="1660" y="448" type="curve" smooth="yes"/>
      <point x="1610" y="448"/>
      <point x="1575" y="414"/>
    </contour>
    <contour>
      <point x="1226" y="364" type="curve" smooth="yes"/>
      <point x="1226" y="589"/>
      <point x="1435" y="768"/>
      <point x="1660" y="768" type="curve" smooth="yes"/>
      <point x="1885" y="768"/>
      <point x="2094" y="589"/>
      <point x="2094" y="364" type="curve" smooth="yes"/>
      <point x="2094" y="139"/>
      <point x="1885" y="-40"/>
      <point x="1660" y="-40" type="curve" smooth="yes"/>
      <point x="1435" y="-40"/>
      <point x="1226" y="139"/>
    </contour>
  </outline>
</glyph>
<glyph name="uni204C" format="2">
  <advance width="640"/>
  <unicode hex="204C"/>
  <note>Half of a bullet (U+2022) then a rectangle with the same height than the bullet.</note>
  <outline>
    <contour>
      <point x="410" y="1010" type="line"/>
      <point x="590" y="1010" type="line"/>
      <point x="590" y="470" type="line"/>
      <point x="410" y="470" type="line"/>
    </contour>
    <contour>
      <point x="320" y="470" type="line" smooth="yes"/>
      <point x="172" y="470"/>
      <point x="50" y="592"/>
      <point x="50" y="740" type="curve" smooth="yes"/>
      <point x="50" y="888"/>
      <point x="172" y="1010"/>
      <point x="320" y="1010" type="curve" smooth="yes"/>
    </contour>
  </outline>
</glyph>
<glyph name="uni2070" format="2">
  <advance width="956"/>
  <unicode hex="2070"/>
  <outline>
    <contour>
      <point x="352" y="1239" type="curve" smooth="yes"/>
      <point x="352" y="1083"/>
      <point x="406" y="1032"/>
      <point x="478" y="1032" type="curve" smooth="yes"/>
      <point x="550" y="1032"/>
      <point x="604" y="1083"/>
      <point x="604" y="1239" type="curve" smooth="yes"/>
      <point x="604" y="1395"/>
      <point x="550" y="1446"/>
      <point x="478" y="1446" type="curve" smooth="yes"/>
      <point x="406" y="1446"/>
      <point x="352" y="1395"/>
    </contour>
    <contour>
      <point x="82" y="1238" type="curve" smooth="yes"/>
      <point x="82" y="1528"/>
      <point x="240" y="1686"/>
      <point x="478" y="1686" type="curve" smooth="yes"/>
      <point x="716" y="1686"/>
      <point x="874" y="1528"/>
      <point x="874" y="1238" type="curve" smooth="yes"/>
      <point x="874" y="948"/>
      <point x="716" y="792"/>
      <point x="478" y="792" type="curve" smooth="yes"/>
      <point x="240" y="792"/>
      <point x="82" y="948"/>
    </contour>
  </outline>
</glyph>
<glyph name="uni2075" format="2">
  <advance width="956"/>
  <unicode hex="2075"/>
  <outline>
    <contour>
      <point x="310" y="1668" type="line"/>
      <point x="439" y="1668" type="line"/>
      <point x="805" y="1668" type="line"/>
      <point x="805" y="1428" type="line"/>
      <point x="399" y="1428" type="line"/>
      <point x="389" y="1356" type="line"/>
      <point x="414" y="1378"/>
      <point x="433" y="1386"/>
      <point x="493" y="1386" type="curve" smooth="yes"/>
      <point x="718" y="1386"/>
      <point x="861" y="1289"/>
      <point x="861" y="1089" type="curve" smooth="yes"/>
      <point x="861" y="889"/>
      <point x="702" y="792"/>
      <point x="477" y="792" type="curve" smooth="yes"/>
      <point x="241" y="792"/>
      <point x="120" y="895"/>
      <point x="95" y="1047" type="curve"/>
      <point x="364" y="1120" type="line" smooth="yes"/>
      <point x="364" y="1066"/>
      <point x="389" y="1032"/>
      <point x="477" y="1032" type="curve" smooth="yes"/>
      <point x="547" y="1032"/>
      <point x="590" y="1058"/>
      <point x="590" y="1104" type="curve" smooth="yes"/>
      <point x="590" y="1150"/>
      <point x="547" y="1176"/>
      <point x="477" y="1176" type="curve" smooth="yes"/>
      <point x="407" y="1176"/>
      <point x="403" y="1168"/>
      <point x="367" y="1141" type="curve"/>
      <point x="123" y="1206" type="line"/>
      <point x="181" y="1668" type="line"/>
    </contour>
  </outline>
</glyph>
<glyph name="uni2079" format="2">
  <advance width="956"/>
  <unicode hex="2079"/>
  <outline>
    <contour>
      <point x="599" y="1144" type="curve"/>
      <point x="567" y="1103"/>
      <point x="542" y="1086"/>
      <point x="445" y="1086" type="curve" smooth="yes"/>
      <point x="220" y="1086"/>
      <point x="90" y="1192"/>
      <point x="90" y="1386" type="curve" smooth="yes"/>
      <point x="90" y="1580"/>
      <point x="238" y="1686"/>
      <point x="468" y="1686" type="curve" smooth="yes"/>
      <point x="610" y="1686"/>
      <point x="719" y="1646"/>
      <point x="782" y="1548" type="curve" smooth="yes"/>
      <point x="835" y="1465"/>
      <point x="866" y="1369"/>
      <point x="866" y="1266" type="curve" smooth="yes"/>
      <point x="866" y="984"/>
      <point x="742" y="792"/>
      <point x="382" y="792" type="curve" smooth="yes"/>
      <point x="221" y="792"/>
      <point x="125" y="872"/>
      <point x="125" y="872" type="curve"/>
      <point x="242" y="1078" type="line"/>
      <point x="242" y="1078"/>
      <point x="320" y="1032"/>
      <point x="432" y="1032" type="curve" smooth="yes"/>
      <point x="544" y="1032"/>
      <point x="586" y="1083"/>
    </contour>
    <contour>
      <point x="574" y="1371" type="curve" smooth="yes"/>
      <point x="574" y="1421"/>
      <point x="528" y="1446"/>
      <point x="468" y="1446" type="curve" smooth="yes"/>
      <point x="408" y="1446"/>
      <point x="361" y="1421"/>
      <point x="361" y="1371" type="curve" smooth="yes"/>
      <point x="361" y="1321"/>
      <point x="408" y="1296"/>
      <point x="468" y="1296" type="curve" smooth="yes"/>
      <point x="528" y="1296"/>
      <point x="574" y="1321"/>
    </contour>
  </outline>
</glyph>
<glyph name="uni2093" format="2">
  <advance width="780"/>
  <unicode hex="2093"/>
  <outline>
    <contour>
      <point x="197" y="114" type="line"/>
      <point x="35" y="415" type="line"/>
      <point x="327" y="415" type="line"/>
      <point x="390" y="269" type="line"/>
      <point x="453" y="415" type="line"/>
      <point x="745" y="415" type="line"/>
      <point x="583" y="114" type="line"/>
      <point x="745" y="-188" type="line"/>
      <point x="453" y="-188" type="line"/>
      <point x="389" y="-40" type="line"/>
      <point x="329" y="-188" type="line"/>
      <point x="35" y="-188" type="line"/>
    </contour>
  </outline>
</glyph>
<glyph name="uni209C" format="2">
  <advance width="716"/>
  <unicode hex="209C"/>
  <outline>
    <contour>
      <point x="77" y="435" type="line" smooth="yes"/>
      <point x="147" y="435"/>
      <point x="195" y="480"/>
      <point x="195" y="550" type="curve" smooth="yes"/>
      <point x="195" y="604" type="line"/>
      <point x="450" y="604" type="line"/>
      <point x="450" y="442" type="line"/>
      <point x="627" y="442" type="line"/>
      <point x="627" y="195" type="line"/>
      <point x="450" y="195" type="line"/>
      <point x="451" y="95" type="line"/>
      <point x="451" y="67"/>
      <point x="479" y="34"/>
      <point x="531" y="34" type="curve" smooth="yes"/>
      <point x="566" y="34"/>
      <point x="609" y="47"/>
      <point x="628" y="66" type="curve"/>
      <point x="681" y="-167" type="line"/>
      <point x="649" y="-185"/>
      <point x="599" y="-206"/>
      <point x="529" y="-206" type="curve" smooth="yes"/>
      <point x="300" y="-206"/>
      <point x="181" y="-94"/>
      <point x="181" y="101" type="curve"/>
      <point x="181" y="195" type="line"/>
      <point x="35" y="195" type="line"/>
      <point x="35" y="435" type="line"/>
    </contour>
  </outline>
</glyph>
<glyph name="uni20BC" format="2">
  <advance width="1782"/>
  <unicode hex="20BC"/>
  <outline>
    <contour>
      <point x="711" y="1040" type="line"/>
      <point x="1071" y="1040" type="line"/>
      <point x="1071" y="160" type="line"/>
      <point x="711" y="160" type="line"/>
    </contour>
    <contour>
      <point x="1372" y="0" type="line" smooth="yes"/>
      <point x="1372" y="270"/>
      <point x="1291" y="570"/>
      <point x="891" y="570" type="curve" smooth="yes"/>
      <point x="491" y="570"/>
      <point x="410" y="270"/>
      <point x="410" y="0" type="curve" smooth="yes"/>
      <point x="50" y="0" type="line" smooth="yes"/>
      <point x="50" y="439"/>
      <point x="231" y="890"/>
      <point x="891" y="890" type="curve" smooth="yes"/>
      <point x="1551" y="890"/>
      <point x="1732" y="439"/>
      <point x="1732" y="0" type="curve" smooth="yes"/>
    </contour>
  </outline>
</glyph>
<glyph name="uni2119" format="2">
  <advance width="1291"/>
  <unicode hex="2119"/>
  <note>From Noto Sans (https://notofonts.github.io/)</note>
  <outline>
    <contour>
      <point x="140" y="0" type="line"/>
      <point x="140" y="1480" type="line"/>
      <point x="677" y="1480" type="line" smooth="yes"/>
      <point x="854" y="1480"/>
      <point x="984" y="1442"/>
      <point x="1067" y="1367" type="curve" smooth="yes"/>
      <point x="1150" y="1292"/>
      <point x="1191" y="1191"/>
      <point x="1191" y="1065" type="curve" smooth="yes"/>
      <point x="1191" y="979"/>
      <point x="1169" y="904"/>
      <point x="1123" y="838" type="curve" smooth="yes"/>
      <point x="1077" y="772"/>
      <point x="1017" y="721"/>
      <point x="943" y="684" type="curve" smooth="yes"/>
      <point x="869" y="647"/>
      <point x="790" y="628"/>
      <point x="704" y="628" type="curve" smooth="yes"/>
      <point x="499" y="628" type="line"/>
      <point x="499" y="0" type="line"/>
    </contour>
    <contour>
      <point x="250" y="110" type="line"/>
      <point x="389" y="110" type="line"/>
      <point x="389" y="1370" type="line"/>
      <point x="250" y="1370" type="line"/>
    </contour>
    <contour>
      <point x="499" y="738" type="line"/>
      <point x="787" y="738" type="line"/>
      <point x="787" y="1370" type="line"/>
      <point x="499" y="1370" type="line"/>
    </contour>
    <contour>
      <point x="899" y="773" type="line"/>
      <point x="949" y="796"/>
      <point x="990" y="831"/>
      <point x="1022" y="875" type="curve" smooth="yes"/>
      <point x="1054" y="919"/>
      <point x="1071" y="982"/>
      <point x="1071" y="1065" type="curve" smooth="yes"/>
      <point x="1071" y="1213"/>
      <point x="1014" y="1306"/>
      <point x="899" y="1345" type="curve"/>
    </contour>
  </outline>
</glyph>
<glyph name="prescription" format="2">
  <advance width="1855"/>
  <unicode hex="211E"/>
  <note>P + x</note>
  <outline>
    <contour>
      <point x="1040" y="370" type="line"/>
      <point x="786" y="740" type="line"/>
      <point x="1143" y="740" type="line"/>
      <point x="1297" y="518" type="line"/>
      <point x="1448" y="740" type="line"/>
      <point x="1805" y="740" type="line"/>
      <point x="1554" y="370" type="line"/>
      <point x="1805" y="0" type="line"/>
      <point x="1448" y="0" type="line"/>
      <point x="1295" y="225" type="line"/>
      <point x="1146" y="0" type="line"/>
      <point x="786" y="0" type="line"/>
    </contour>
    <contour>
      <point x="450" y="1144" type="line"/>
      <point x="450" y="824" type="line"/>
      <point x="637" y="824" type="line"/>
      <point x="757" y="824"/>
      <point x="828" y="874"/>
      <point x="828" y="984" type="curve" smooth="yes"/>
      <point x="828" y="1094"/>
      <point x="757" y="1144"/>
      <point x="637" y="1144" type="curve"/>
    </contour>
    <contour>
      <point x="70" y="0" type="line"/>
      <point x="70" y="1480" type="line"/>
      <point x="637" y="1480" type="line"/>
      <point x="1023" y="1480"/>
      <point x="1208" y="1239"/>
      <point x="1208" y="984" type="curve" smooth="yes"/>
      <point x="1208" y="729"/>
      <point x="1023" y="488"/>
      <point x="637" y="488" type="curve"/>
      <point x="450" y="488" type="line"/>
      <point x="450" y="0" type="line"/>
    </contour>
  </outline>
</glyph>
<glyph name="uni2121" format="2">
  <advance width="2550"/>
  <unicode hex="2121"/>
  <note>The first letter is small caps but with the same weight than the subscripts.</note>
  <outline>
    <contour>
      <point x="2074" y="858" type="line"/>
      <point x="2074" y="240" type="line"/>
      <point x="2480" y="240" type="line"/>
      <point x="2480" y="0" type="line"/>
      <point x="1804" y="0" type="line"/>
      <point x="1804" y="858" type="line"/>
    </contour>
    <contour>
      <point x="1598" y="549" type="line"/>
      <point x="1598" y="309" type="line"/>
      <point x="1258" y="309" type="line"/>
      <point x="1258" y="240" type="line"/>
      <point x="1664" y="240" type="line"/>
      <point x="1664" y="0" type="line"/>
      <point x="988" y="0" type="line"/>
      <point x="988" y="858" type="line"/>
      <point x="1664" y="858" type="line"/>
      <point x="1664" y="618" type="line"/>
      <point x="1258" y="618" type="line"/>
      <point x="1258" y="549" type="line"/>
    </contour>
    <contour>
      <point x="609" y="0" type="line"/>
      <point x="339" y="0" type="line"/>
      <point x="339" y="801" type="line"/>
      <point x="70" y="801" type="line"/>
      <point x="70" y="1040" type="line"/>
      <point x="878" y="1040" type="line"/>
      <point x="878" y="801" type="line"/>
      <point x="609" y="801" type="line"/>
    </contour>
  </outline>
</glyph>
<glyph name="uni2125" format="2">
  <advance width="1286"/>
  <unicode hex="2125"/>
  <outline>
    <contour>
      <point x="218" y="1160" type="line"/>
      <point x="218" y="1480" type="line"/>
      <point x="1126" y="1480" type="line"/>
      <point x="1126" y="1192" type="line"/>
      <point x="981" y="1160" type="line"/>
    </contour>
    <contour>
      <point x="218" y="648" type="line"/>
      <point x="218" y="952" type="line"/>
      <point x="383" y="984" type="line"/>
      <point x="1126" y="984" type="line"/>
      <point x="1126" y="680" type="line"/>
      <point x="991" y="648" type="line"/>
    </contour>
    <contour>
      <point x="743" y="884" type="line"/>
      <point x="218" y="952" type="line"/>
      <point x="501" y="1160" type="line"/>
      <point x="1126" y="1192" type="line"/>
    </contour>
    <contour>
      <point x="403" y="472" type="line"/>
      <point x="632" y="473" type="line"/>
      <point x="632" y="153" type="line"/>
      <point x="218" y="153" type="line"/>
      <point x="218" y="440" type="line"/>
    </contour>
    <contour>
      <point x="743" y="372" type="line"/>
      <point x="218" y="440" type="line"/>
      <point x="501" y="648" type="line"/>
      <point x="1126" y="680" type="line"/>
    </contour>
    <contour>
      <point x="1236" y="13" type="curve" smooth="yes"/>
      <point x="1236" y="-287"/>
      <point x="1002" y="-470"/>
      <point x="642" y="-470" type="curve" smooth="yes"/>
      <point x="357" y="-470"/>
      <point x="93" y="-349"/>
      <point x="50" y="-79" type="curve"/>
      <point x="413" y="21" type="line" smooth="yes"/>
      <point x="413" y="-79"/>
      <point x="492" y="-150"/>
      <point x="642" y="-150" type="curve" smooth="yes"/>
      <point x="792" y="-150"/>
      <point x="876" y="-87"/>
      <point x="876" y="13" type="curve" smooth="yes"/>
      <point x="876" y="113"/>
      <point x="782" y="153"/>
      <point x="632" y="153" type="curve" smooth="yes"/>
      <point x="632" y="473" type="line" smooth="yes"/>
      <point x="992" y="473"/>
      <point x="1236" y="313"/>
    </contour>
  </outline>
</glyph>
<glyph name="uni2137" format="2">
  <advance width="938"/>
  <unicode hex="2137"/>
  <note>From DejaVu Sans (https://github.com/dejavu-fonts/dejavu-fonts)</note>
  <outline>
    <contour>
      <point x="380" y="1439" type="curve" smooth="yes"/>
      <point x="713" y="1439" type="line" smooth="yes"/>
      <point x="784" y="1439"/>
      <point x="830" y="1420"/>
      <point x="850" y="1384" type="curve" smooth="yes"/>
      <point x="863" y="1361"/>
      <point x="868" y="1343"/>
      <point x="868" y="1329" type="curve" smooth="yes"/>
      <point x="868" y="1315"/>
      <point x="867" y="1301"/>
      <point x="863" y="1288" type="curve" smooth="yes"/>
      <point x="859" y="1275"/>
      <point x="849" y="1261"/>
      <point x="833" y="1245" type="curve" smooth="yes"/>
      <point x="817" y="1229"/>
      <point x="796" y="1219"/>
      <point x="772" y="1212" type="curve"/>
      <point x="773" y="1195"/>
      <point x="774" y="1165"/>
      <point x="775" y="1122" type="curve" smooth="yes"/>
      <point x="776" y="1079"/>
      <point x="787" y="936"/>
      <point x="807" y="694" type="curve" smooth="yes"/>
      <point x="827" y="452"/>
      <point x="837" y="288"/>
      <point x="837" y="202" type="curve" smooth="yes"/>
      <point x="837" y="116"/>
      <point x="834" y="61"/>
      <point x="827" y="39" type="curve" smooth="yes"/>
      <point x="811" y="-16"/>
      <point x="788" y="-43"/>
      <point x="758" y="-43" type="curve" smooth="yes"/>
      <point x="743" y="-43"/>
      <point x="734" y="-38"/>
      <point x="728" y="-28" type="curve" smooth="yes"/>
      <point x="722" y="-18"/>
      <point x="717" y="-3"/>
      <point x="713" y="17" type="curve" smooth="yes"/>
      <point x="699" y="114" type="line"/>
      <point x="633" y="47"/>
      <point x="597" y="12"/>
      <point x="591" y="7" type="curve" smooth="yes"/>
      <point x="585" y="2"/>
      <point x="567" y="0"/>
      <point x="538" y="0" type="curve" smooth="yes"/>
      <point x="139" y="0" type="line" smooth="yes"/>
      <point x="93" y="0"/>
      <point x="70" y="13"/>
      <point x="70" y="39" type="curve" smooth="yes"/>
      <point x="70" y="50"/>
      <point x="81" y="66"/>
      <point x="103" y="88" type="curve" smooth="yes"/>
      <point x="235" y="222" type="line" smooth="yes"/>
      <point x="246" y="233"/>
      <point x="255" y="238"/>
      <point x="262" y="240" type="curve" smooth="yes"/>
      <point x="269" y="242"/>
      <point x="283" y="243"/>
      <point x="307" y="243" type="curve" smooth="yes"/>
      <point x="693" y="243" type="line"/>
      <point x="693" y="1208" type="line"/>
      <point x="370" y="1208" type="line" smooth="yes"/>
      <point x="298" y="1208"/>
      <point x="250" y="1227"/>
      <point x="227" y="1264" type="curve" smooth="yes"/>
      <point x="204" y="1301"/>
      <point x="191" y="1362"/>
      <point x="191" y="1445" type="curve" smooth="yes"/>
      <point x="191" y="1489"/>
      <point x="194" y="1515"/>
      <point x="201" y="1523" type="curve" smooth="yes"/>
      <point x="208" y="1531"/>
      <point x="219" y="1535"/>
      <point x="234" y="1535" type="curve" smooth="yes"/>
      <point x="249" y="1535"/>
      <point x="260" y="1525"/>
      <point x="268" y="1505" type="curve" smooth="yes"/>
      <point x="283" y="1466"/>
      <point x="306" y="1445"/>
      <point x="336" y="1441" type="curve" smooth="yes"/>
      <point x="347" y="1440"/>
      <point x="361" y="1439"/>
    </contour>
  </outline>
</glyph>
<glyph name="uni213D" format="2">
  <advance width="1198"/>
  <unicode hex="213D"/>
  <note>From Noto Sans (https://notofonts.github.io/)</note>
  <outline>
    <contour>
      <point x="497" y="-273" type="line"/>
      <point x="497" y="-234"/>
      <point x="502" y="-186"/>
      <point x="511" y="-128" type="curve" smooth="yes"/>
      <point x="520" y="-70"/>
      <point x="532" y="-9"/>
      <point x="548" y="55" type="curve" smooth="yes"/>
      <point x="564" y="119"/>
      <point x="582" y="180"/>
      <point x="603" y="237" type="curve"/>
      <point x="70" y="1335" type="line"/>
      <point x="450" y="1335" type="line"/>
      <point x="711" y="788" type="line" smooth="yes"/>
      <point x="721" y="769"/>
      <point x="731" y="747"/>
      <point x="742" y="721" type="curve" smooth="yes"/>
      <point x="753" y="695"/>
      <point x="761" y="675"/>
      <point x="765" y="660" type="curve"/>
      <point x="768" y="672"/>
      <point x="773" y="693"/>
      <point x="783" y="722" type="curve" smooth="yes"/>
      <point x="793" y="751"/>
      <point x="800" y="772"/>
      <point x="806" y="786" type="curve" smooth="yes"/>
      <point x="1009" y="1335" type="line"/>
      <point x="1128" y="1335" type="line"/>
      <point x="713" y="251" type="line" smooth="yes"/>
      <point x="692" y="196"/>
      <point x="674" y="137"/>
      <point x="659" y="73" type="curve" smooth="yes"/>
      <point x="644" y="9"/>
      <point x="632" y="-53"/>
      <point x="624" y="-113" type="curve" smooth="yes"/>
      <point x="616" y="-173"/>
      <point x="611" y="-226"/>
      <point x="611" y="-273" type="curve"/>
    </contour>
    <contour>
      <point x="643" y="349" type="curve"/>
      <point x="651" y="349" type="line"/>
      <point x="654" y="366"/>
      <point x="662" y="391"/>
      <point x="674" y="427" type="curve" smooth="yes"/>
      <point x="686" y="463"/>
      <point x="699" y="502"/>
      <point x="713" y="543" type="curve"/>
      <point x="379" y="1234" type="line"/>
      <point x="238" y="1234" type="line"/>
      <point x="502" y="684" type="line" smooth="yes"/>
      <point x="519" y="649"/>
      <point x="536" y="611"/>
      <point x="555" y="567" type="curve" smooth="yes"/>
      <point x="574" y="523"/>
      <point x="592" y="483"/>
      <point x="609" y="444" type="curve" smooth="yes"/>
      <point x="626" y="405"/>
      <point x="637" y="374"/>
    </contour>
  </outline>
</glyph>
<glyph name="uni2143" format="2">
  <advance width="1254"/>
  <unicode hex="2143"/>
  <outline>
    <contour>
      <point x="804" y="1480" type="line"/>
      <point x="804" y="336" type="line"/>
      <point x="70" y="336" type="line"/>
      <point x="70" y="0" type="line"/>
      <point x="1184" y="0" type="line"/>
      <point x="1184" y="1480" type="line"/>
    </contour>
  </outline>
</glyph>
<glyph name="uni2146" format="2">
  <advance width="1553"/>
  <unicode hex="2146"/>
  <note>From Noto Sans (https://notofonts.github.io/)</note>
  <outline>
    <contour>
      <point x="401" y="-38" type="curve" smooth="yes"/>
      <point x="313" y="-38"/>
      <point x="240" y="-7"/>
      <point x="184" y="57" type="curve" smooth="yes"/>
      <point x="128" y="121"/>
      <point x="100" y="215"/>
      <point x="100" y="341" type="curve" smooth="yes"/>
      <point x="100" y="432"/>
      <point x="113" y="522"/>
      <point x="136" y="613" type="curve" smooth="yes"/>
      <point x="159" y="704"/>
      <point x="193" y="787"/>
      <point x="239" y="862" type="curve" smooth="yes"/>
      <point x="285" y="937"/>
      <point x="342" y="997"/>
      <point x="410" y="1042" type="curve" smooth="yes"/>
      <point x="478" y="1087"/>
      <point x="558" y="1110"/>
      <point x="646" y="1110" type="curve" smooth="yes"/>
      <point x="718" y="1110"/>
      <point x="777" y="1091"/>
      <point x="824" y="1053" type="curve" smooth="yes"/>
      <point x="871" y="1015"/>
      <point x="902" y="968"/>
      <point x="917" y="913" type="curve"/>
      <point x="1054" y="1555" type="line"/>
      <point x="1413" y="1555" type="line"/>
      <point x="1077" y="-20" type="line"/>
      <point x="718" y="-20" type="line"/>
      <point x="764" y="190" type="line"/>
      <point x="710" y="118"/>
      <point x="655" y="62"/>
      <point x="598" y="22" type="curve" smooth="yes"/>
      <point x="541" y="-18"/>
      <point x="476" y="-38"/>
    </contour>
    <contour>
      <point x="849" y="82" type="line"/>
      <point x="988" y="82" type="line"/>
      <point x="1278" y="1446" type="line"/>
      <point x="1141" y="1446" type="line"/>
    </contour>
    <contour>
      <point x="407" y="69" type="line"/>
      <point x="472" y="69"/>
      <point x="533" y="91"/>
      <point x="589" y="134" type="curve" smooth="yes"/>
      <point x="645" y="177"/>
      <point x="694" y="231"/>
      <point x="735" y="299" type="curve" smooth="yes"/>
      <point x="776" y="367"/>
      <point x="808" y="439"/>
      <point x="831" y="516" type="curve" smooth="yes"/>
      <point x="854" y="593"/>
      <point x="865" y="666"/>
      <point x="865" y="735" type="curve" smooth="yes"/>
      <point x="865" y="779"/>
      <point x="859" y="821"/>
      <point x="846" y="862" type="curve" smooth="yes"/>
      <point x="833" y="903"/>
      <point x="809" y="937"/>
      <point x="776" y="963" type="curve" smooth="yes"/>
      <point x="743" y="989"/>
      <point x="695" y="1002"/>
      <point x="633" y="1002" type="curve" smooth="yes"/>
      <point x="627" y="1002"/>
      <point x="622" y="1002"/>
      <point x="616" y="1001" type="curve" smooth="yes"/>
      <point x="610" y="1000"/>
      <point x="603" y="999"/>
      <point x="596" y="998" type="curve"/>
    </contour>
    <contour>
      <point x="302" y="92" type="curve"/>
      <point x="486" y="967" type="line"/>
      <point x="439" y="938"/>
      <point x="394" y="893"/>
      <point x="352" y="834" type="curve" smooth="yes"/>
      <point x="310" y="775"/>
      <point x="276" y="704"/>
      <point x="250" y="620" type="curve" smooth="yes"/>
      <point x="224" y="536"/>
      <point x="210" y="442"/>
      <point x="210" y="337" type="curve" smooth="yes"/>
      <point x="210" y="273"/>
      <point x="218" y="221"/>
      <point x="235" y="180" type="curve" smooth="yes"/>
      <point x="252" y="139"/>
      <point x="274" y="110"/>
    </contour>
  </outline>
</glyph>
<glyph name="uni2150" format="2">
  <advance width="2228"/>
  <unicode hex="2150"/>
  <outline>
    <contour>
      <point x="1378" y="619" type="line"/>
      <point x="1378" y="858" type="line"/>
      <point x="2118" y="858" type="line"/>
      <point x="2118" y="639" type="line"/>
      <point x="2118" y="639"/>
      <point x="1831" y="456"/>
      <point x="1780" y="0" type="curve"/>
      <point x="1729" y="0"/>
      <point x="1560" y="0"/>
      <point x="1509" y="0" type="curve"/>
      <point x="1566" y="455"/>
      <point x="1797" y="619"/>
      <point x="1797" y="619" type="curve"/>
    </contour>
    <contour>
      <point x="383" y="1078" type="line"/>
      <point x="163" y="1078" type="line"/>
      <point x="163" y="1318" type="line"/>
      <point x="219" y="1318" type="line" smooth="yes"/>
      <point x="321" y="1318"/>
      <point x="400" y="1388"/>
      <point x="400" y="1464" type="curve" smooth="yes"/>
      <point x="400" y="1480" type="line"/>
      <point x="653" y="1480" type="line"/>
      <point x="653" y="1225" type="line"/>
      <point x="653" y="622" type="line"/>
      <point x="383" y="622" type="line"/>
    </contour>
    <contour>
      <point x="868" y="67" type="line"/>
      <point x="652" y="191" type="line"/>
      <point x="1360" y="1413" type="line"/>
      <point x="1576" y="1289" type="line"/>
    </contour>
  </outline>
</glyph>
<glyph name="twothirds" format="2">
  <advance width="2228"/>
  <unicode hex="2154"/>
  <outline>
    <contour>
      <point x="1768" y="542" type="line" smooth="yes"/>
      <point x="1838" y="542"/>
      <point x="1865" y="561"/>
      <point x="1865" y="589" type="curve" smooth="yes"/>
      <point x="1865" y="617"/>
      <point x="1838" y="636"/>
      <point x="1768" y="636" type="curve" smooth="yes"/>
      <point x="1698" y="636"/>
      <point x="1671" y="607"/>
      <point x="1671" y="569" type="curve" smooth="yes"/>
      <point x="1405" y="642" type="line"/>
      <point x="1422" y="794"/>
      <point x="1555" y="876"/>
      <point x="1768" y="876" type="curve" smooth="yes"/>
      <point x="1995" y="876"/>
      <point x="2133" y="783"/>
      <point x="2133" y="610" type="curve" smooth="yes"/>
      <point x="2133" y="490"/>
      <point x="2054" y="453"/>
      <point x="2054" y="453" type="curve"/>
      <point x="2054" y="453"/>
      <point x="2171" y="412"/>
      <point x="2171" y="265" type="curve" smooth="yes"/>
      <point x="2171" y="75"/>
      <point x="2016" y="-18"/>
      <point x="1768" y="-18" type="curve" smooth="yes"/>
      <point x="1532" y="-18"/>
      <point x="1393" y="85"/>
      <point x="1368" y="237" type="curve"/>
      <point x="1637" y="310" type="line" smooth="yes"/>
      <point x="1637" y="256"/>
      <point x="1680" y="222"/>
      <point x="1768" y="222" type="curve" smooth="yes"/>
      <point x="1856" y="222"/>
      <point x="1901" y="246"/>
      <point x="1901" y="290" type="curve" smooth="yes"/>
      <point x="1901" y="334"/>
      <point x="1856" y="358"/>
      <point x="1768" y="358" type="curve" smooth="yes"/>
      <point x="1698" y="358" type="line"/>
      <point x="1698" y="542" type="line"/>
    </contour>
    <contour>
      <point x="84" y="622" type="line"/>
      <point x="84" y="749"/>
      <point x="97" y="931"/>
      <point x="460" y="1100" type="curve" smooth="yes"/>
      <point x="514" y="1125"/>
      <point x="568" y="1145"/>
      <point x="568" y="1188" type="curve" smooth="yes"/>
      <point x="568" y="1237"/>
      <point x="515" y="1258"/>
      <point x="460" y="1258" type="curve" smooth="yes"/>
      <point x="393" y="1258"/>
      <point x="364" y="1219"/>
      <point x="364" y="1172" type="curve" smooth="yes"/>
      <point x="364" y="1131"/>
      <point x="373" y="1112"/>
      <point x="373" y="1112" type="curve"/>
      <point x="94" y="1172" type="line"/>
      <point x="94" y="1373"/>
      <point x="251" y="1498"/>
      <point x="460" y="1498" type="curve" smooth="yes"/>
      <point x="669" y="1498"/>
      <point x="836" y="1391"/>
      <point x="836" y="1213" type="curve" smooth="yes"/>
      <point x="836" y="1035"/>
      <point x="739" y="988"/>
      <point x="578" y="913" type="curve" smooth="yes"/>
      <point x="533" y="892"/>
      <point x="501" y="877"/>
      <point x="488" y="862" type="curve"/>
      <point x="836" y="862" type="line"/>
      <point x="836" y="622" type="line"/>
      <point x="321" y="622" type="line"/>
      <point x="152" y="622" type="line"/>
    </contour>
    <contour>
      <point x="868" y="67" type="line"/>
      <point x="652" y="191" type="line"/>
      <point x="1360" y="1413" type="line"/>
      <point x="1576" y="1289" type="line"/>
    </contour>
  </outline>
</glyph>
<glyph name="uni2156" format="2">
  <advance width="2228"/>
  <unicode hex="2156"/>
  <outline>
    <contour>
      <point x="1414" y="396" type="line"/>
      <point x="1472" y="858" type="line"/>
      <point x="1601" y="858" type="line"/>
      <point x="1730" y="858" type="line"/>
      <point x="2096" y="858" type="line"/>
      <point x="2096" y="618" type="line"/>
      <point x="1690" y="618" type="line"/>
      <point x="1680" y="546" type="line"/>
      <point x="1705" y="568"/>
      <point x="1724" y="576"/>
      <point x="1784" y="576" type="curve" smooth="yes"/>
      <point x="2009" y="576"/>
      <point x="2152" y="479"/>
      <point x="2152" y="279" type="curve" smooth="yes"/>
      <point x="2152" y="79"/>
      <point x="1993" y="-18"/>
      <point x="1768" y="-18" type="curve" smooth="yes"/>
      <point x="1532" y="-18"/>
      <point x="1411" y="85"/>
      <point x="1386" y="237" type="curve"/>
      <point x="1655" y="310" type="line" smooth="yes"/>
      <point x="1655" y="256"/>
      <point x="1680" y="222"/>
      <point x="1768" y="222" type="curve" smooth="yes"/>
      <point x="1838" y="222"/>
      <point x="1881" y="248"/>
      <point x="1881" y="294" type="curve" smooth="yes"/>
      <point x="1881" y="340"/>
      <point x="1838" y="366"/>
      <point x="1768" y="366" type="curve" smooth="yes"/>
      <point x="1698" y="366"/>
      <point x="1694" y="358"/>
      <point x="1658" y="331" type="curve"/>
    </contour>
    <contour>
      <point x="84" y="622" type="line"/>
      <point x="84" y="749"/>
      <point x="97" y="931"/>
      <point x="460" y="1100" type="curve" smooth="yes"/>
      <point x="514" y="1125"/>
      <point x="568" y="1145"/>
      <point x="568" y="1188" type="curve" smooth="yes"/>
      <point x="568" y="1237"/>
      <point x="515" y="1258"/>
      <point x="460" y="1258" type="curve" smooth="yes"/>
      <point x="393" y="1258"/>
      <point x="364" y="1219"/>
      <point x="364" y="1172" type="curve" smooth="yes"/>
      <point x="364" y="1131"/>
      <point x="373" y="1112"/>
      <point x="373" y="1112" type="curve"/>
      <point x="94" y="1172" type="line"/>
      <point x="94" y="1373"/>
      <point x="251" y="1498"/>
      <point x="460" y="1498" type="curve" smooth="yes"/>
      <point x="669" y="1498"/>
      <point x="836" y="1391"/>
      <point x="836" y="1213" type="curve" smooth="yes"/>
      <point x="836" y="1035"/>
      <point x="739" y="988"/>
      <point x="578" y="913" type="curve" smooth="yes"/>
      <point x="533" y="892"/>
      <point x="501" y="877"/>
      <point x="488" y="862" type="curve"/>
      <point x="836" y="862" type="line"/>
      <point x="836" y="622" type="line"/>
      <point x="321" y="622" type="line"/>
      <point x="152" y="622" type="line"/>
    </contour>
    <contour>
      <point x="868" y="67" type="line"/>
      <point x="652" y="191" type="line"/>
      <point x="1360" y="1413" type="line"/>
      <point x="1576" y="1289" type="line"/>
    </contour>
  </outline>
</glyph>
<glyph name="uni2157" format="2">
  <advance width="2228"/>
  <unicode hex="2157"/>
  <outline>
    <contour>
      <point x="1414" y="396" type="line"/>
      <point x="1472" y="858" type="line"/>
      <point x="1601" y="858" type="line"/>
      <point x="1730" y="858" type="line"/>
      <point x="2096" y="858" type="line"/>
      <point x="2096" y="618" type="line"/>
      <point x="1690" y="618" type="line"/>
      <point x="1680" y="546" type="line"/>
      <point x="1705" y="568"/>
      <point x="1724" y="576"/>
      <point x="1784" y="576" type="curve" smooth="yes"/>
      <point x="2009" y="576"/>
      <point x="2152" y="479"/>
      <point x="2152" y="279" type="curve" smooth="yes"/>
      <point x="2152" y="79"/>
      <point x="1993" y="-18"/>
      <point x="1768" y="-18" type="curve" smooth="yes"/>
      <point x="1532" y="-18"/>
      <point x="1411" y="85"/>
      <point x="1386" y="237" type="curve"/>
      <point x="1655" y="310" type="line" smooth="yes"/>
      <point x="1655" y="256"/>
      <point x="1680" y="222"/>
      <point x="1768" y="222" type="curve" smooth="yes"/>
      <point x="1838" y="222"/>
      <point x="1881" y="248"/>
      <point x="1881" y="294" type="curve" smooth="yes"/>
      <point x="1881" y="340"/>
      <point x="1838" y="366"/>
      <point x="1768" y="366" type="curve" smooth="yes"/>
      <point x="1698" y="366"/>
      <point x="1694" y="358"/>
      <point x="1658" y="331" type="curve"/>
    </contour>
    <contour>
      <point x="460" y="1164" type="line" smooth="yes"/>
      <point x="530" y="1164"/>
      <point x="557" y="1183"/>
      <point x="557" y="1211" type="curve" smooth="yes"/>
      <point x="557" y="1239"/>
      <point x="530" y="1258"/>
      <point x="460" y="1258" type="curve" smooth="yes"/>
      <point x="390" y="1258"/>
      <point x="363" y="1229"/>
      <point x="363" y="1191" type="curve" smooth="yes"/>
      <point x="97" y="1264" type="line"/>
      <point x="114" y="1416"/>
      <point x="247" y="1498"/>
      <point x="460" y="1498" type="curve" smooth="yes"/>
      <point x="687" y="1498"/>
      <point x="825" y="1405"/>
      <point x="825" y="1232" type="curve" smooth="yes"/>
      <point x="825" y="1112"/>
      <point x="746" y="1075"/>
      <point x="746" y="1075" type="curve"/>
      <point x="746" y="1075"/>
      <point x="863" y="1034"/>
      <point x="863" y="887" type="curve" smooth="yes"/>
      <point x="863" y="697"/>
      <point x="708" y="604"/>
      <point x="460" y="604" type="curve" smooth="yes"/>
      <point x="224" y="604"/>
      <point x="85" y="707"/>
      <point x="60" y="859" type="curve"/>
      <point x="329" y="932" type="line" smooth="yes"/>
      <point x="329" y="878"/>
      <point x="372" y="844"/>
      <point x="460" y="844" type="curve" smooth="yes"/>
      <point x="548" y="844"/>
      <point x="593" y="868"/>
      <point x="593" y="912" type="curve" smooth="yes"/>
      <point x="593" y="956"/>
      <point x="548" y="980"/>
      <point x="460" y="980" type="curve" smooth="yes"/>
      <point x="390" y="980" type="line"/>
      <point x="390" y="1164" type="line"/>
    </contour>
    <contour>
      <point x="868" y="67" type="line"/>
      <point x="652" y="191" type="line"/>
      <point x="1360" y="1413" type="line"/>
      <point x="1576" y="1289" type="line"/>
    </contour>
  </outline>
</glyph>
<glyph name="uni215A" format="2">
  <advance width="2228"/>
  <unicode hex="215A"/>
  <outline>
    <contour>
      <point x="1637" y="524" type="curve"/>
      <point x="1669" y="565"/>
      <point x="1694" y="582"/>
      <point x="1791" y="582" type="curve" smooth="yes"/>
      <point x="2016" y="582"/>
      <point x="2146" y="476"/>
      <point x="2146" y="282" type="curve" smooth="yes"/>
      <point x="2146" y="88"/>
      <point x="1998" y="-18"/>
      <point x="1768" y="-18" type="curve" smooth="yes"/>
      <point x="1626" y="-18"/>
      <point x="1517" y="22"/>
      <point x="1454" y="120" type="curve" smooth="yes"/>
      <point x="1401" y="203"/>
      <point x="1370" y="299"/>
      <point x="1370" y="402" type="curve" smooth="yes"/>
      <point x="1370" y="684"/>
      <point x="1494" y="876"/>
      <point x="1854" y="876" type="curve" smooth="yes"/>
      <point x="2015" y="876"/>
      <point x="2111" y="796"/>
      <point x="2111" y="796" type="curve"/>
      <point x="1994" y="590" type="line"/>
      <point x="1994" y="590"/>
      <point x="1916" y="636"/>
      <point x="1804" y="636" type="curve" smooth="yes"/>
      <point x="1692" y="636"/>
      <point x="1650" y="585"/>
    </contour>
    <contour>
      <point x="1662" y="297" type="curve" smooth="yes"/>
      <point x="1662" y="247"/>
      <point x="1708" y="222"/>
      <point x="1768" y="222" type="curve" smooth="yes"/>
      <point x="1828" y="222"/>
      <point x="1875" y="247"/>
      <point x="1875" y="297" type="curve" smooth="yes"/>
      <point x="1875" y="347"/>
      <point x="1828" y="372"/>
      <point x="1768" y="372" type="curve" smooth="yes"/>
      <point x="1708" y="372"/>
      <point x="1662" y="347"/>
    </contour>
    <contour>
      <point x="106" y="1018" type="line"/>
      <point x="164" y="1480" type="line"/>
      <point x="293" y="1480" type="line"/>
      <point x="422" y="1480" type="line"/>
      <point x="788" y="1480" type="line"/>
      <point x="788" y="1240" type="line"/>
      <point x="382" y="1240" type="line"/>
      <point x="372" y="1168" type="line"/>
      <point x="397" y="1190"/>
      <point x="416" y="1198"/>
      <point x="476" y="1198" type="curve" smooth="yes"/>
      <point x="701" y="1198"/>
      <point x="844" y="1101"/>
      <point x="844" y="901" type="curve" smooth="yes"/>
      <point x="844" y="701"/>
      <point x="685" y="604"/>
      <point x="460" y="604" type="curve" smooth="yes"/>
      <point x="224" y="604"/>
      <point x="103" y="707"/>
      <point x="78" y="859" type="curve"/>
      <point x="347" y="932" type="line" smooth="yes"/>
      <point x="347" y="878"/>
      <point x="372" y="844"/>
      <point x="460" y="844" type="curve" smooth="yes"/>
      <point x="530" y="844"/>
      <point x="573" y="870"/>
      <point x="573" y="916" type="curve" smooth="yes"/>
      <point x="573" y="962"/>
      <point x="530" y="988"/>
      <point x="460" y="988" type="curve" smooth="yes"/>
      <point x="390" y="988"/>
      <point x="386" y="980"/>
      <point x="350" y="953" type="curve"/>
    </contour>
    <contour>
      <point x="868" y="67" type="line"/>
      <point x="652" y="191" type="line"/>
      <point x="1360" y="1413" type="line"/>
      <point x="1576" y="1289" type="line"/>
    </contour>
  </outline>
</glyph>
<glyph name="uni218B" format="2">
  <advance width="1278"/>
  <unicode hex="218B"/>
  <outline>
    <contour>
      <point x="640" y="544" type="line" smooth="yes"/>
      <point x="555" y="544"/>
      <point x="480" y="510"/>
      <point x="480" y="430" type="curve" smooth="yes"/>
      <point x="480" y="350"/>
      <point x="515" y="306"/>
      <point x="640" y="306" type="curve" smooth="yes"/>
      <point x="765" y="306"/>
      <point x="818" y="350"/>
      <point x="818" y="430" type="curve" smooth="yes"/>
      <point x="1189" y="330" type="line"/>
      <point x="1144" y="103"/>
      <point x="942" y="-30"/>
      <point x="640" y="-30" type="curve" smooth="yes"/>
      <point x="320" y="-30"/>
      <point x="100" y="139"/>
      <point x="100" y="422" type="curve" smooth="yes"/>
      <point x="100" y="641"/>
      <point x="246" y="699"/>
      <point x="246" y="699" type="curve"/>
      <point x="246" y="699"/>
      <point x="46" y="795"/>
      <point x="46" y="1027" type="curve" smooth="yes"/>
      <point x="46" y="1360"/>
      <point x="280" y="1510"/>
      <point x="640" y="1510" type="curve" smooth="yes"/>
      <point x="925" y="1510"/>
      <point x="1189" y="1389"/>
      <point x="1232" y="1119" type="curve"/>
      <point x="859" y="1019" type="line" smooth="yes"/>
      <point x="859" y="1119"/>
      <point x="790" y="1174"/>
      <point x="640" y="1174" type="curve" smooth="yes"/>
      <point x="490" y="1174"/>
      <point x="426" y="1119"/>
      <point x="426" y="1019" type="curve" smooth="yes"/>
      <point x="426" y="919"/>
      <point x="490" y="864"/>
      <point x="640" y="864" type="curve" smooth="yes"/>
      <point x="754" y="864" type="line"/>
      <point x="754" y="544" type="line"/>
    </contour>
  </outline>
</glyph>
<glyph name="uni2197" format="2">
  <advance width="1620"/>
  <unicode hex="2197"/>
  <outline>
    <contour>
      <point x="1343" y="1294" type="line"/>
      <point x="721" y="1294" type="line"/>
      <point x="721" y="969" type="line"/>
      <point x="1094" y="983" type="line"/>
      <point x="1080" y="610" type="line"/>
      <point x="1405" y="610" type="line"/>
      <point x="1405" y="1232" type="line"/>
    </contour>
    <contour>
      <point x="1156" y="1272" type="line"/>
      <point x="215" y="330" type="line"/>
      <point x="441" y="104" type="line"/>
      <point x="1383" y="1045" type="line"/>
    </contour>
  </outline>
</glyph>
<glyph name="uni21AA" format="2">
  <advance width="1620"/>
  <unicode hex="21AA"/>
  <outline>
    <contour>
      <point x="454" y="988" type="line" smooth="yes"/>
      <point x="404" y="988"/>
      <point x="370" y="954"/>
      <point x="370" y="904" type="curve" smooth="yes"/>
      <point x="370" y="854"/>
      <point x="404" y="820"/>
      <point x="454" y="820" type="curve" smooth="yes"/>
      <point x="454" y="500" type="line" smooth="yes"/>
      <point x="224" y="500"/>
      <point x="50" y="674"/>
      <point x="50" y="904" type="curve" smooth="yes"/>
      <point x="50" y="1134"/>
      <point x="224" y="1308"/>
      <point x="454" y="1308" type="curve" smooth="yes"/>
    </contour>
    <contour>
      <point x="1550" y="616" type="line"/>
      <point x="1110" y="176" type="line"/>
      <point x="880" y="406" type="line"/>
      <point x="1154" y="660" type="line"/>
      <point x="880" y="914" type="line"/>
      <point x="1110" y="1144" type="line"/>
      <point x="1550" y="704" type="line"/>
    </contour>
    <contour>
      <point x="1402" y="500" type="line"/>
      <point x="454" y="500" type="line"/>
      <point x="454" y="820" type="line"/>
      <point x="1402" y="820" type="line"/>
    </contour>
  </outline>
</glyph>
<glyph name="uni21AC" format="2">
  <advance width="1620"/>
  <unicode hex="21AC"/>
  <outline>
    <contour>
      <point x="434" y="949" type="curve" smooth="yes"/>
      <point x="394" y="949"/>
      <point x="370" y="924"/>
      <point x="370" y="884" type="curve" smooth="yes"/>
      <point x="370" y="844"/>
      <point x="394" y="820"/>
      <point x="434" y="820" type="curve" smooth="yes"/>
      <point x="434" y="500" type="line" smooth="yes"/>
      <point x="204" y="500"/>
      <point x="50" y="654"/>
      <point x="50" y="884" type="curve" smooth="yes"/>
      <point x="50" y="1114"/>
      <point x="204" y="1269"/>
      <point x="434" y="1269" type="curve" smooth="yes"/>
      <point x="664" y="1269"/>
      <point x="818" y="1114"/>
      <point x="818" y="884" type="curve" smooth="yes"/>
      <point x="818" y="294" type="line"/>
      <point x="498" y="294" type="line"/>
      <point x="498" y="884" type="line" smooth="yes"/>
      <point x="498" y="924"/>
      <point x="474" y="949"/>
    </contour>
    <contour>
      <point x="1550" y="616" type="line"/>
      <point x="1110" y="176" type="line"/>
      <point x="880" y="406" type="line"/>
      <point x="1154" y="660" type="line"/>
      <point x="880" y="914" type="line"/>
      <point x="1110" y="1144" type="line"/>
      <point x="1550" y="704" type="line"/>
    </contour>
    <contour>
      <point x="1402" y="500" type="line"/>
      <point x="434" y="500" type="line"/>
      <point x="434" y="820" type="line"/>
      <point x="1402" y="820" type="line"/>
    </contour>
  </outline>
</glyph>
<glyph name="uni21AD" format="2">
  <advance width="1620"/>
  <unicode hex="21AD"/>
  <outline>
    <contour>
      <point x="1550" y="616" type="line"/>
      <point x="1550" y="704" type="line"/>
      <point x="1190" y="1184" type="line"/>
      <point x="960" y="1014" type="line"/>
      <point x="1234" y="660" type="line"/>
      <point x="960" y="306" type="line"/>
      <point x="1190" y="136" type="line"/>
    </contour>
    <contour>
      <point x="1372" y="500" type="line"/>
      <point x="1372" y="820" type="line"/>
      <point x="1294" y="820" type="line"/>
      <point x="1194" y="820"/>
      <point x="1154" y="740"/>
      <point x="1074" y="740" type="curve" smooth="yes"/>
      <point x="994" y="740"/>
      <point x="1010" y="910"/>
      <point x="810" y="910" type="curve" smooth="yes"/>
      <point x="810" y="590" type="line" smooth="yes"/>
      <point x="914" y="590"/>
      <point x="868" y="420"/>
      <point x="1074" y="420" type="curve" smooth="yes"/>
      <point x="1164" y="420"/>
      <point x="1194" y="500"/>
      <point x="1294" y="500" type="curve"/>
    </contour>
    <contour>
      <point x="70" y="616" type="line"/>
      <point x="430" y="136" type="line"/>
      <point x="660" y="306" type="line"/>
      <point x="386" y="660" type="line"/>
      <point x="660" y="1014" type="line"/>
      <point x="430" y="1184" type="line"/>
      <point x="70" y="704" type="line"/>
    </contour>
    <contour>
      <point x="238" y="500" type="line"/>
      <point x="326" y="500" type="line"/>
      <point x="426" y="500"/>
      <point x="456" y="420"/>
      <point x="546" y="420" type="curve" smooth="yes"/>
      <point x="752" y="420"/>
      <point x="706" y="590"/>
      <point x="810" y="590" type="curve" smooth="yes"/>
      <point x="810" y="910" type="line" smooth="yes"/>
      <point x="610" y="910"/>
      <point x="626" y="740"/>
      <point x="546" y="740" type="curve" smooth="yes"/>
      <point x="466" y="740"/>
      <point x="426" y="820"/>
      <point x="326" y="820" type="curve"/>
      <point x="238" y="820" type="line"/>
    </contour>
  </outline>
</glyph>
<glyph name="uni21B8" format="2">
  <advance width="1620"/>
  <unicode hex="21B8"/>
  <outline>
    <contour>
      <point x="332" y="1090" type="line"/>
      <point x="954" y="1090" type="line"/>
      <point x="954" y="765" type="line"/>
      <point x="581" y="779" type="line"/>
      <point x="595" y="406" type="line"/>
      <point x="270" y="406" type="line"/>
      <point x="270" y="1028" type="line"/>
    </contour>
    <contour>
      <point x="519" y="1068" type="line"/>
      <point x="1460" y="126" type="line"/>
      <point x="1234" y="-100" type="line"/>
      <point x="292" y="841" type="line"/>
    </contour>
    <contour>
      <point x="164" y="1480" type="line"/>
      <point x="1456" y="1480" type="line"/>
      <point x="1456" y="1170" type="line"/>
      <point x="164" y="1170" type="line"/>
    </contour>
  </outline>
</glyph>
<glyph name="uni21BE" format="2">
  <advance width="1620"/>
  <unicode hex="21BE"/>
  <outline>
    <contour>
      <point x="650" y="1255" type="line"/>
      <point x="1064" y="810" type="line"/>
      <point x="1294" y="1040" type="line"/>
      <point x="854" y="1480" type="line"/>
      <point x="650" y="1480" type="line"/>
    </contour>
    <contour>
      <point x="650" y="1284" type="line"/>
      <point x="650" y="0" type="line"/>
      <point x="970" y="0" type="line"/>
      <point x="970" y="1284" type="line"/>
    </contour>
  </outline>
</glyph>
<glyph name="uni21C0" format="2">
  <advance width="1620"/>
  <unicode hex="21C0"/>
  <outline>
    <contour>
      <point x="1325" y="500" type="line"/>
      <point x="880" y="914" type="line"/>
      <point x="1110" y="1144" type="line"/>
      <point x="1550" y="704" type="line"/>
      <point x="1550" y="500" type="line"/>
    </contour>
    <contour>
      <point x="1354" y="500" type="line"/>
      <point x="70" y="500" type="line"/>
      <point x="70" y="820" type="line"/>
      <point x="1354" y="820" type="line"/>
    </contour>
  </outline>
</glyph>
<glyph name="uni21CA" format="2">
  <advance width="1620"/>
  <unicode hex="21CA"/>
  <outline>
    <contour>
      <point x="440" y="0" type="line"/>
      <point x="0" y="440" type="line"/>
      <point x="230" y="670" type="line"/>
      <point x="484" y="396" type="line"/>
      <point x="738" y="670" type="line"/>
      <point x="968" y="440" type="line"/>
      <point x="528" y="0" type="line"/>
    </contour>
    <contour>
      <point x="324" y="148" type="line"/>
      <point x="324" y="1480" type="line"/>
      <point x="644" y="1480" type="line"/>
      <point x="644" y="148" type="line"/>
    </contour>
    <contour>
      <point x="1092" y="0" type="line"/>
      <point x="654" y="440" type="line"/>
      <point x="884" y="670" type="line"/>
      <point x="1136" y="396" type="line"/>
      <point x="1390" y="670" type="line"/>
      <point x="1620" y="440" type="line"/>
      <point x="1180" y="0" type="line"/>
    </contour>
    <contour>
      <point x="976" y="148" type="line"/>
      <point x="976" y="1480" type="line"/>
      <point x="1296" y="1480" type="line"/>
      <point x="1296" y="148" type="line"/>
    </contour>
  </outline>
</glyph>
<glyph name="uni21DD" format="2">
  <advance width="1620"/>
  <unicode hex="21DD"/>
  <outline>
    <contour>
      <point x="1550" y="616" type="line"/>
      <point x="1110" y="176" type="line"/>
      <point x="880" y="446" type="line"/>
      <point x="1154" y="660" type="line"/>
      <point x="880" y="914" type="line"/>
      <point x="1110" y="1144" type="line"/>
      <point x="1550" y="704" type="line"/>
    </contour>
    <contour>
      <point x="1292" y="520" type="line"/>
      <point x="1200" y="520" type="line"/>
      <point x="1080" y="450" type="line"/>
      <point x="900" y="520" type="line"/>
      <point x="720" y="450" type="line"/>
      <point x="540" y="520" type="line"/>
      <point x="361" y="449" type="line"/>
      <point x="181" y="520" type="line"/>
      <point x="70" y="460" type="line"/>
      <point x="70" y="820" type="line"/>
      <point x="181" y="870" type="line"/>
      <point x="361" y="800" type="line"/>
      <point x="540" y="870" type="line"/>
      <point x="720" y="800" type="line"/>
      <point x="900" y="870" type="line"/>
      <point x="1080" y="800" type="line"/>
      <point x="1160" y="800" type="line"/>
      <point x="1292" y="800" type="line"/>
    </contour>
  </outline>
</glyph>
<glyph name="uni21F6" format="2">
  <advance width="1620"/>
  <unicode hex="21F6"/>
  <outline>
    <contour>
      <point x="1550" y="-34" type="line"/>
      <point x="1110" y="-472" type="line"/>
      <point x="880" y="-242" type="line"/>
      <point x="1154" y="10" type="line"/>
      <point x="880" y="262" type="line"/>
      <point x="1110" y="492" type="line"/>
      <point x="1550" y="54" type="line"/>
    </contour>
    <contour>
      <point x="1402" y="-150" type="line"/>
      <point x="70" y="-150" type="line"/>
      <point x="70" y="170" type="line"/>
      <point x="1402" y="170" type="line"/>
    </contour>
    <contour>
      <point x="1550" y="616" type="line"/>
      <point x="1110" y="178" type="line"/>
      <point x="880" y="408" type="line"/>
      <point x="1154" y="660" type="line"/>
      <point x="880" y="912" type="line"/>
      <point x="1110" y="1142" type="line"/>
      <point x="1550" y="704" type="line"/>
    </contour>
    <contour>
      <point x="1402" y="500" type="line"/>
      <point x="70" y="500" type="line"/>
      <point x="70" y="820" type="line"/>
      <point x="1402" y="820" type="line"/>
    </contour>
    <contour>
      <point x="1550" y="1266" type="line"/>
      <point x="1110" y="828" type="line"/>
      <point x="880" y="1058" type="line"/>
      <point x="1154" y="1310" type="line"/>
      <point x="880" y="1562" type="line"/>
      <point x="1110" y="1792" type="line"/>
      <point x="1550" y="1354" type="line"/>
    </contour>
    <contour>
      <point x="1402" y="1150" type="line"/>
      <point x="70" y="1150" type="line"/>
      <point x="70" y="1470" type="line"/>
      <point x="1402" y="1470" type="line"/>
    </contour>
  </outline>
</glyph>
<glyph name="uni2204" format="2">
  <advance width="1254"/>
  <unicode hex="2204"/>
  <outline>
    <contour>
      <point x="1106" y="1660" type="line"/>
      <point x="472" y="-180" type="line"/>
      <point x="148" y="-180" type="line"/>
      <point x="782" y="1660" type="line"/>
    </contour>
    <contour>
      <point x="184" y="572" type="line"/>
      <point x="184" y="908" type="line"/>
      <point x="804" y="908" type="line"/>
      <point x="804" y="1144" type="line"/>
      <point x="70" y="1144" type="line"/>
      <point x="70" y="1480" type="line"/>
      <point x="1184" y="1480" type="line"/>
      <point x="1184" y="0" type="line"/>
      <point x="70" y="0" type="line"/>
      <point x="70" y="336" type="line"/>
      <point x="804" y="336" type="line"/>
      <point x="804" y="572" type="line"/>
    </contour>
  </outline>
</glyph>
<glyph name="uni2213" format="2">
  <advance width="1278"/>
  <unicode hex="2213"/>
  <outline>
    <contour>
      <point x="70" y="1230" type="line"/>
      <point x="1208" y="1230" type="line"/>
      <point x="1208" y="1550" type="line"/>
      <point x="70" y="1550" type="line"/>
    </contour>
    <contour>
      <point x="459" y="0" type="line"/>
      <point x="459" y="1140" type="line"/>
      <point x="819" y="1140" type="line"/>
      <point x="819" y="0" type="line"/>
    </contour>
    <contour>
      <point x="70" y="730" type="line"/>
      <point x="1208" y="730" type="line"/>
      <point x="1208" y="410" type="line"/>
      <point x="70" y="410" type="line"/>
    </contour>
  </outline>
</glyph>
<glyph name="proportional" format="2">
  <advance width="1278"/>
  <unicode hex="221D"/>
  <outline>
    <contour>
      <point x="1208" y="506" type="line" smooth="yes"/>
      <point x="1118" y="506"/>
      <point x="1062" y="570"/>
      <point x="1062" y="660" type="curve" smooth="yes"/>
      <point x="1062" y="750"/>
      <point x="1118" y="814"/>
      <point x="1208" y="814" type="curve" smooth="yes"/>
      <point x="1208" y="1134" type="line" smooth="yes"/>
      <point x="928" y="1134"/>
      <point x="702" y="940"/>
      <point x="702" y="660" type="curve" smooth="yes"/>
      <point x="702" y="380"/>
      <point x="918" y="186"/>
      <point x="1208" y="186" type="curve" smooth="yes"/>
    </contour>
    <contour>
      <point x="50" y="660" type="curve" smooth="yes"/>
      <point x="50" y="380"/>
      <point x="266" y="186"/>
      <point x="556" y="186" type="curve" smooth="yes"/>
      <point x="846" y="186"/>
      <point x="1062" y="380"/>
      <point x="1062" y="660" type="curve" smooth="yes"/>
      <point x="1062" y="940"/>
      <point x="836" y="1134"/>
      <point x="556" y="1134" type="curve" smooth="yes"/>
      <point x="276" y="1134"/>
      <point x="50" y="940"/>
    </contour>
    <contour>
      <point x="410" y="660" type="curve" smooth="yes"/>
      <point x="410" y="750"/>
      <point x="466" y="814"/>
      <point x="556" y="814" type="curve" smooth="yes"/>
      <point x="646" y="814"/>
      <point x="702" y="750"/>
      <point x="702" y="660" type="curve" smooth="yes"/>
      <point x="702" y="570"/>
      <point x="646" y="506"/>
      <point x="556" y="506" type="curve" smooth="yes"/>
      <point x="466" y="506"/>
      <point x="410" y="570"/>
    </contour>
  </outline>
</glyph>
<glyph name="union" format="2">
  <advance width="1278"/>
  <unicode hex="222A"/>
  <outline>
    <contour>
      <point x="62" y="763" type="line" smooth="yes"/>
      <point x="62" y="432"/>
      <point x="265" y="206"/>
      <point x="639" y="206" type="curve" smooth="yes"/>
      <point x="1013" y="206"/>
      <point x="1216" y="422"/>
      <point x="1216" y="763" type="curve" smooth="yes"/>
      <point x="1216" y="1244" type="line"/>
      <point x="856" y="1244" type="line"/>
      <point x="856" y="763" type="line" smooth="yes"/>
      <point x="856" y="622"/>
      <point x="813" y="526"/>
      <point x="639" y="526" type="curve" smooth="yes"/>
      <point x="465" y="526"/>
      <point x="422" y="622"/>
      <point x="422" y="763" type="curve" smooth="yes"/>
      <point x="422" y="1244" type="line"/>
      <point x="62" y="1244" type="line"/>
    </contour>
  </outline>
</glyph>
